<?xml version="1.0" encoding="UTF-8" standalone="no"?>
<!-- Generator: Adobe Illustrator 14.0.0, SVG Export Plug-In . SVG Version: 6.00 Build 43363)  -->

<svg
   xmlns:dc="http://purl.org/dc/elements/1.1/"
   xmlns:cc="http://creativecommons.org/ns#"
   xmlns:rdf="http://www.w3.org/1999/02/22-rdf-syntax-ns#"
   xmlns:svg="http://www.w3.org/2000/svg"
   xmlns="http://www.w3.org/2000/svg"
   xmlns:xlink="http://www.w3.org/1999/xlink"
   xmlns:sodipodi="http://sodipodi.sourceforge.net/DTD/sodipodi-0.dtd"
   xmlns:inkscape="http://www.inkscape.org/namespaces/inkscape"
   version="1.1"
   x="0px"
   y="0px"
   width="800px"
   height="600px"
   viewBox="0 0 800 600"
   enable-background="new 0 0 800 600"
   xml:space="preserve"
   id="svg2"
   inkscape:version="0.48.2 r9819"
   sodipodi:docname="objects.svg"><metadata
   id="metadata246"><rdf:RDF><cc:Work
       rdf:about=""><dc:format>image/svg+xml</dc:format><dc:type
         rdf:resource="http://purl.org/dc/dcmitype/StillImage" /></cc:Work></rdf:RDF></metadata><defs
   id="defs244">
	
	

	
	
	
	
	
	
	
	
	
	
	
	
	
		
	
	
	
		
	
	
	
	
	
	
	
	
	
	
	
	
	
	
	
	
	
	
	
	
	
	
	
	
	
	
	
	
	
		

	

		
		
		
		
		
	
		<defs
   id="defs182">
			<polygon
   id="SVGID_1_"
   points="833.334,273.334 826.334,301.75 810.375,301.75 803.375,273.334 " />
		</defs>
		<clipPath
   id="SVGID_2_">
			<use
   xlink:href="#SVGID_1_"
   overflow="visible"
   id="use186"
   style="overflow:visible"
   x="0"
   y="0"
   width="800"
   height="600" />
		</clipPath>
		
	
		
		
	
		
		
	
		
		
	
		
		
	
		
		
	
		
		
	
		
		
	
		
		
	
		
		
		
		
		
		
		
		
	
		
		
		
		
	
		
		
		
		
	
		
		
		
		
	
		
		
		
		
	
		
		
	
			
			
		
				
				
				
				
				
				
			
				
				
				
				
				
				
			</defs><sodipodi:namedview
   pagecolor="#ffffff"
   bordercolor="#666666"
   borderopacity="1"
   objecttolerance="10"
   gridtolerance="10"
   guidetolerance="10"
   inkscape:pageopacity="0"
   inkscape:pageshadow="2"
   inkscape:window-width="1680"
   inkscape:window-height="998"
   id="namedview242"
   showgrid="false"
   inkscape:zoom="0.62764324"
   inkscape:cx="754.25039"
   inkscape:cy="-98.905595"
   inkscape:window-x="-8"
   inkscape:window-y="-8"
   inkscape:window-maximized="1"
   inkscape:current-layer="layer1" />




<g
   inkscape:groupmode="layer"
   id="layer3"
   inkscape:label="background"><rect
     style="fill:#262524"
     id="rect5"
     height="842.2442"
     width="2515.4639"
     y="-153.34644"
     x="-872.89075" /><circle
     cx="-417.95801"
     cy="-333.255"
     r="87.584999"
     id="circle9"
     d="m -330.37301,-333.255 c 0,48.37185 -39.21314,87.58499 -87.585,87.58499 -48.37186,0 -87.585,-39.21314 -87.585,-87.58499 0,-48.37186 39.21314,-87.585 87.585,-87.585 48.37186,0 87.585,39.21314 87.585,87.585 z"
     sodipodi:cx="-417.95801"
     sodipodi:cy="-333.255"
     sodipodi:rx="87.584999"
     sodipodi:ry="87.584999"
     style="fill:#f2f2f2"
     transform="matrix(0.6294847,0,0,0.6294847,525.86703,300.61022)" /><circle
     cx="-414.47"
     cy="-337.745"
     r="87.584999"
     id="circle11"
     d="m -326.885,-337.745 c 0,48.37186 -39.21314,87.585 -87.585,87.585 -48.37186,0 -87.585,-39.21314 -87.585,-87.585 0,-48.37185 39.21314,-87.58499 87.585,-87.58499 48.37186,0 87.585,39.21314 87.585,87.58499 z"
     sodipodi:cx="-414.47"
     sodipodi:cy="-337.745"
     sodipodi:rx="87.584999"
     sodipodi:ry="87.584999"
     style="fill:#262524"
     transform="matrix(0.6294847,0,0,0.6294847,525.86703,300.61022)" /></g><g
   inkscape:groupmode="layer"
   id="layer2"
   inkscape:label="midground"
   style="display:inline"><path
     style="fill:#231e1c"
     inkscape:connector-curvature="0"
     id="path14"
     d="m 1659.9416,695.45261 c -21.2357,-44.0079 -77.2849,-54.67452 -122.3435,-60.25112 -20.3053,-2.51354 -40.8202,-3.31424 -61.2527,-4.32771 -8.6963,-0.43182 -17.3895,-0.90646 -26.0688,-1.59071 -1.4019,-0.11016 -3.9733,-0.38336 -6.1141,-0.61312 -1.9332,-0.34432 -3.8569,-0.73397 -5.7718,-1.16706 -25.683,-5.81581 -52.4386,7.35805 -59.6248,32.23339 -2.7968,9.6821 -1.92,19.99495 1.8557,29.1955 -27.1647,5.36006 -53.6069,12.70804 -79.7815,22.17423 -12.9441,4.68085 -25.9505,8.92736 -39.4913,11.5693 1.2495,-0.36006 -6.4692,0.56213 -8.1166,0.62571 -4.2572,0.16366 -8.5144,-0.10512 -12.759,-0.36951 -11.4283,-0.7132 -22.8768,-2.36371 -34.2421,-3.68123 -40.0881,-4.64685 -80.0622,-10.14288 -120.4311,-12.08232 -40.9631,-1.96778 -81.2218,2.98438 -121.95073,6.19412 -81.41189,6.41634 -162.87606,5.7302 -244.48431,6.47992 -83.91472,0.77112 -167.83636,1.93063 -251.74351,0.0284 -40.65779,-0.92094 -81.14247,-5.00881 -121.73416,-7.2246 -1.55609,-0.085 -3.11154,-0.15611 -4.66826,-0.23165 -8.64345,-13.05803 -23.90468,-21.92621 -41.00778,-21.84123 -23.35389,0.1152 -46.64293,1.80347 -69.9559,2.91137 30.14225,-11.47047 44.54423,-52.127 17.37755,-75.68546 -30.863,-26.76443 -72.0099,-29.58264 -111.35333,-22.65453 -14.64558,2.579 -28.73848,7.42918 -42.806836,11.95517 -6.54853,2.10751 -13.15057,3.99975 -19.84891,5.62319 -3.16002,0.76545 -6.36095,1.34395 -9.56691,1.89852 10.68487,-1.87838 -5.95933,0.28894 -8.54777,0.38903 -39.88101,1.55797 -79.86713,0.051 -119.78276,1.80913 -19.17347,0.84477 -38.311704,2.25797 -57.400194,4.15712 -26.81857,2.66839 -42.03888,5.84792 -62.77033,5.53569 -19.24083,-0.28893 -38.42438,-2.93844 -57.51287,-5.0151 -20.68172,-2.24978 -41.15004,-2.8245 -61.94507,-2.83961 -40.80068,-0.029 -81.60199,-0.40413 -122.36427,-2.22459 -38.5421,-1.72228 -76.85694,-6.03739 -115.45064,-7.42352 -39.26411,-1.41004 -78.57983,-1.33325 -117.85967,-0.73335 -38.8172,0.59172 -77.6199,1.87964 -116.4157,3.19716 -22.6054,0.76733 -45.5092,-2.24978 -68.1542,-2.34799 -32.7761,-0.14289 -65.1933,2.95417 -90.8548,24.17096 -16.4711,13.6189 -21.1269,36.5888 -21.9068,56.15381 -0.1404,3.52511 -0.7585,21.87019 1.162,11.40501 -0.9145,5.11833 -2.1295,10.1838 -2.8723,15.33047 -3.1946,22.12447 -0.2895,39.50265 15.537,56.88524 14.0809,15.46581 38.6648,19.96663 58.7951,22.12639 29.7324,3.19149 59.7803,-2.22334 89.3837,-4.49011 75.1303,-5.75223 150.8598,-4.20811 226.12664,-2.44052 162.50399,3.81594 325.75707,-6.42263 487.914224,6.21805 81.54030012,6.35654 162.86721,15.4677 244.829896,13.03475 41.37351,-1.2275 82.70169,-3.46973 124.09346,-4.01863 40.17309,-0.53381 80.30463,2.74392 120.32727,5.59422 83.27516,5.92849 167.10804,4.40199 250.55756,3.63465 82.53992,-0.75853 165.3228,0.52813 247.77652,-3.42566 40.39214,-1.93692 80.50167,-6.15887 120.78799,-9.27105 40.2569,-3.10965 80.7805,0.2285 120.7805,4.63553 19.3341,2.12954 38.6246,4.60909 57.9403,6.88341 19.6462,2.31273 39.2767,5.23356 59.0753,3.20093 37.0281,-3.80208 69.1275,-19.38687 104.5498,-28.85621 23.8442,-6.37479 48.5314,-10.56401 73.0246,-13.94685 -6.6643,0.9461 10.216,-1.03425 11.8545,-1.19351 6.2256,-0.60808 12.4688,-1.03487 18.7121,-1.42956 11.2979,-0.71509 22.6394,-0.95116 33.9587,-0.76042 40.6181,0.68362 84.2131,7.74266 123.5686,-5.31789 31.539,-10.46707 42.5644,-39.61533 28.9663,-67.79548 z" /><path
     style="fill:#231e1c"
     inkscape:connector-curvature="0"
     id="path16"
     d="m 1490.0808,698.37972 c -13.9695,-36.04996 -32.5292,-68.81213 -59.7576,-92.86788 -31.93,-28.20973 -75.5431,-31.25329 -114.0336,-29.84513 -20.6962,0.75601 -41.0393,-12.05715 -61.7594,-12.15598 -20.9436,-0.10008 -81.0153,-9.34344 -101.9709,-8.49805 -21.2205,0.85547 -3.447,25.26186 -24.6682,23.98967 -2.5979,-0.15548 -5.192,-0.37958 -7.7861,-0.6043 -0.5879,-0.051 -1.0594,-0.0888 -1.4453,-0.11583 -0.114,-0.0214 -0.2171,-0.0409 -0.3418,-0.0642 -4.6267,-0.84414 -9.2106,-2.00113 -13.7782,-3.19275 -10.078,-2.62936 -20.0352,-5.86932 -30.0667,-8.72403 -21.7694,-6.19287 -43.1732,-8.30731 -65.4953,-7.85471 -20.67422,0.41924 -41.54228,3.10273 -62.21076,1.93 -43.96888,-2.49402 -87.72939,-6.59385 -131.77573,-3.65919 -21.14307,1.40941 -41.95764,4.36107 -63.18575,3.53077 -21.54852,-0.84225 -43.0064,-3.92106 -64.39944,-6.88278 -43.09578,-5.96562 -86.26332,-7.59348 -129.63922,-8.06621 -18.78823,-0.20522 -37.59094,-0.36385 -56.37791,-0.16493 -3.13735,0.0334 -6.27785,0.20017 -9.41646,0.46582 -25.95176,-1.26464 -53.31043,7.35679 -77.44109,13.51818 -9.90935,2.5299 -20.28703,3.47791 -30.32731,5.20521 -11.3087,1.94511 -22.60795,3.96072 -33.90531,5.99081 -21.73359,3.90469 -43.45648,7.88933 -65.20265,11.69708 -35.94863,6.29422 -72.31206,11.66499 -107.26924,23.73724 -35.24107,12.17046 -70.0648,33.43319 -88.999066,71.77762 -10.77048,21.81039 -10.36887,46.29105 3.93869,65.67475 14.150176,19.17032 40.306536,19.44981 59.968486,20.04279 20.95366,0.63137 41.91802,-0.0504 62.87104,0.69244 21.17965,0.75097 42.29445,4.94397 63.39856,7.195 42.49022,4.53166 84.95085,4.3894 127.57011,4.76017 43.7196,0.38021 87.45305,0.69621 131.13928,-1.65744 79.71794,-4.2956 159.66187,-9.18543 239.48871,-6.71093 7.73135,7.05904 16.90103,12.39077 25.38903,16.70275 13.74352,6.98161 27.1572,14.4643 41.50383,19.71545 14.80353,5.41798 30.35185,8.55219 45.8246,9.67078 20.236,1.46418 40.14285,-3.47413 58.33558,-13.68689 3.34378,-1.87649 6.58754,-4.11683 9.70474,-6.61274 31.97724,5.04218 64.29748,7.83898 96.43588,9.07655 42.4776,1.6354 85.732,0.60997 127.9364,-5.60997 20.6572,-3.04482 41.0305,-7.89374 61.5705,-11.79151 2.3153,-0.43938 4.6356,-0.84477 6.9559,-1.24638 0.1781,-0.0315 0.333,-0.0586 0.4897,-0.0856 0.304,-0.0428 0.6553,-0.0925 1.0827,-0.15486 0.5715,-0.0825 1.1438,-0.15422 1.7166,-0.23102 13.2878,2.72126 26.6996,4.73624 40.107,6.0185 7.9857,0.76482 16.1998,1.20483 24.4316,1.05628 10.7219,3.20659 21.7228,5.12967 32.7955,5.36384 21.3647,0.45322 43.0416,-3.44517 63.727,-9.46871 19.6664,-5.72894 39.1678,-13.88266 57.5904,-23.72402 7.3284,-3.91477 15.0825,-11.06635 18.5541,-19.74127 6.2066,-15.51552 4.5606,-29.34089 -1.2729,-44.39438 z m -223.1793,11.86768 c -2.7314,5.03209 -1.5177,2.16983 0,0 l 0,0 z" /><rect
     style="fill:#231e1c"
     id="rect18"
     height="186.97585"
     width="2516.9385"
     y="737.93781"
     x="-914.05786" /><rect
     style="fill:#2b2522"
     id="rect20"
     height="149.27222"
     width="57.431038"
     y="461.883"
     x="464.02957" /><rect
     style="fill:#2b2522"
     id="rect22"
     height="172.47882"
     width="274.82297"
     y="421.05206"
     x="896.26599" /><rect
     style="fill:#2b2522"
     id="rect24"
     height="172.47882"
     width="274.82297"
     y="421.05206"
     x="892.33173" /><polygon
     style="fill:#231e1c"
     id="polygon26"
     points="-15,265.689 -110,265.689 -90,228.735 -15,228.735 "
     transform="matrix(0.6294847,0,0,0.6294847,525.86703,300.61022)" /><rect
     style="fill:#231e1c"
     id="rect28"
     height="114.42018"
     width="108.27137"
     y="479.94031"
     x="922.90009" /><rect
     style="fill:#231e1c"
     id="rect30"
     height="114.42018"
     width="108.27137"
     y="479.94031"
     x="1050.6855" /><polygon
     style="fill:#231e1c"
     id="polygon32"
     points="1054.111,251.775 599.343,251.775 622.046,173.559 1031.408,173.559 "
     transform="matrix(0.6294847,0,0,0.6294847,525.86703,300.61022)" /><rect
     style="fill:#2b2522"
     id="rect34"
     height="309.077"
     width="417.32632"
     y="325.16013"
     x="513.53918" /><polygon
     style="fill:#231e1c"
     id="polygon36"
     points="671.056,107.426 -47.657,107.426 -11.777,-87.831 635.176,-87.831 "
     transform="matrix(0.6294847,0,0,0.6294847,525.86703,300.61022)" /><rect
     style="fill:#2b2522"
     id="rect38"
     height="74.843765"
     width="74.844391"
     transform="matrix(0.70710678,0.70710678,-0.70710678,0.70710678,0,0)"
     y="-204.32312"
     x="648.89777" /><rect
     style="fill:#231e1c"
     id="rect40"
     height="34.422741"
     width="19.362949"
     y="350.12421"
     x="592.79321" /><rect
     style="fill:#231e1c"
     id="rect42"
     height="26.997971"
     width="15.186318"
     y="505.92291"
     x="482.83356" /><rect
     style="fill:#2b2522"
     id="rect44"
     height="74.843765"
     width="74.843765"
     transform="matrix(0.70710678,0.70710678,-0.70710678,0.70710678,0,0)"
     y="-373.96063"
     x="818.53192" /><rect
     style="fill:#231e1c"
     id="rect46"
     height="34.422741"
     width="19.362949"
     y="350.12421"
     x="832.6955" /><rect
     x="595.24695"
     y="487.10327"
     width="16.996086"
     height="30.215267"
     id="rect50"
     style="fill:#231e1c" /><rect
     x="617.01135"
     y="487.10327"
     width="16.996086"
     height="30.215267"
     id="rect52"
     style="fill:#231e1c" /><rect
     x="595.24695"
     y="522.04279"
     width="16.996086"
     height="30.215267"
     id="rect54"
     style="fill:#231e1c" /><rect
     x="617.01135"
     y="522.04279"
     width="16.996086"
     height="30.215267"
     id="rect56"
     style="fill:#231e1c" /><rect
     x="812.9574"
     y="487.10327"
     width="16.996086"
     height="30.215267"
     id="rect60"
     style="fill:#231e1c" /><rect
     x="834.72174"
     y="487.10327"
     width="16.996086"
     height="30.215267"
     id="rect62"
     style="fill:#231e1c" /><rect
     x="812.9574"
     y="522.04279"
     width="16.996086"
     height="30.215267"
     id="rect64"
     style="fill:#231e1c" /><rect
     x="834.72174"
     y="522.04279"
     width="16.996086"
     height="30.215267"
     id="rect66"
     style="fill:#231e1c" /><rect
     x="857.50543"
     y="487.10327"
     width="16.996086"
     height="30.215267"
     id="rect70"
     style="fill:#231e1c" /><rect
     x="879.2699"
     y="487.10327"
     width="16.996086"
     height="30.215267"
     id="rect72"
     style="fill:#231e1c" /><rect
     x="857.50543"
     y="522.04279"
     width="16.996086"
     height="30.215267"
     id="rect74"
     style="fill:#231e1c" /><rect
     x="879.2699"
     y="522.04279"
     width="16.996086"
     height="30.215267"
     id="rect76"
     style="fill:#231e1c" /><rect
     x="551.28247"
     y="487.10327"
     width="16.996086"
     height="30.215267"
     id="rect80"
     style="fill:#231e1c" /><rect
     x="573.04755"
     y="487.10327"
     width="16.996086"
     height="30.215267"
     id="rect82"
     style="fill:#231e1c" /><rect
     x="551.28247"
     y="522.04279"
     width="16.996086"
     height="30.215267"
     id="rect84"
     style="fill:#231e1c" /><rect
     x="573.04755"
     y="522.04279"
     width="16.996086"
     height="30.215267"
     id="rect86"
     style="fill:#231e1c" /><rect
     x="645.09015"
     y="398.18036"
     width="154.22375"
     height="7.5538168"
     id="rect90"
     style="fill:#231e1c" /><rect
     x="645.09015"
     y="431.54303"
     width="154.22375"
     height="34.726784"
     id="rect92"
     style="fill:#231e1c" /><rect
     x="654.3222"
     y="404.68549"
     width="7.9743123"
     height="29.795399"
     id="rect94"
     style="fill:#231e1c" /><rect
     x="679.92139"
     y="404.68549"
     width="7.9736819"
     height="29.795399"
     id="rect96"
     style="fill:#231e1c" /><rect
     x="705.52069"
     y="404.68549"
     width="7.9736819"
     height="29.795399"
     id="rect98"
     style="fill:#231e1c" /><rect
     x="731.11926"
     y="404.68549"
     width="7.9743123"
     height="29.795399"
     id="rect100"
     style="fill:#231e1c" /><rect
     x="756.71924"
     y="404.68549"
     width="7.9730535"
     height="29.795399"
     id="rect102"
     style="fill:#231e1c" /><rect
     x="782.31793"
     y="404.68549"
     width="7.9736819"
     height="29.795399"
     id="rect104"
     style="fill:#231e1c" /><rect
     style="fill:#231e1c"
     id="rect106"
     height="160.09872"
     width="15.947365"
     y="466.26984"
     x="655.74988" /><rect
     style="fill:#231e1c"
     id="rect108"
     height="158.31477"
     width="15.946736"
     y="466.26984"
     x="774.34479" /><ellipse
     cx="318"
     cy="345.953"
     rx="58.033001"
     ry="52.032001"
     id="ellipse112"
     d="m 376.033,345.953 c 0,28.73648 -25.98226,52.032 -58.033,52.032 -32.05074,0 -58.033,-23.29552 -58.033,-52.032 0,-28.73648 25.98226,-52.032 58.033,-52.032 32.05074,0 58.033,23.29552 58.033,52.032 z"
     sodipodi:cx="318"
     sodipodi:cy="345.953"
     sodipodi:rx="58.033001"
     sodipodi:ry="52.032001"
     style="fill:#231e1c"
     transform="matrix(0.6294847,0,0,0.6294847,525.86703,300.61022)" /><rect
     x="689.51233"
     y="518.38232"
     width="73.061775"
     height="80.184387"
     id="rect114"
     style="fill:#231e1c" /><rect
     style="fill:#2b2522"
     id="rect116"
     height="119.28735"
     width="3.2456231"
     y="482.84607"
     x="724.42035" /><rect
     style="fill:#231e1c"
     id="rect118"
     height="9.2326517"
     width="90.268105"
     y="600.87378"
     x="680.90918" /><rect
     style="fill:#231e1c"
     id="rect120"
     height="9.2326517"
     width="110.95802"
     y="612.83398"
     x="670.56415" /><rect
     style="fill:#231e1c"
     id="rect122"
     height="12.501566"
     width="167.44293"
     y="624.73254"
     x="642.32172" /><rect
     style="fill:#2b2522"
     id="rect124"
     height="17.83519"
     width="3.5672896"
     y="527.01508"
     x="781.22815" /><circle
     style="fill:#ddd387"
     sodipodi:ry="8.8330002"
     sodipodi:rx="8.8330002"
     sodipodi:cy="352"
     sodipodi:cx="408.5"
     d="m 417.333,352 c 0,4.87833 -3.95467,8.833 -8.833,8.833 -4.87833,0 -8.833,-3.95467 -8.833,-8.833 0,-4.87833 3.95467,-8.833 8.833,-8.833 4.87833,0 8.833,3.95467 8.833,8.833 z"
     id="circle126"
     r="8.8330002"
     cy="352"
     cx="408.5"
     transform="matrix(0.6294847,0,0,0.6294847,525.86703,300.61022)" /><rect
     style="fill:#2b2522"
     id="rect128"
     height="17.83519"
     width="3.5666604"
     y="527.01508"
     x="661.94025" /><circle
     style="fill:#ddd387"
     sodipodi:ry="8.8330002"
     sodipodi:rx="8.8330002"
     sodipodi:cy="352"
     sodipodi:cx="218.99899"
     d="m 227.83199,352 c 0,4.87833 -3.95467,8.833 -8.833,8.833 -4.87833,0 -8.833,-3.95467 -8.833,-8.833 0,-4.87833 3.95467,-8.833 8.833,-8.833 4.87833,0 8.833,3.95467 8.833,8.833 z"
     id="circle130"
     r="8.8330002"
     cy="352"
     cx="218.99899"
     transform="matrix(0.6294847,0,0,0.6294847,525.86703,300.61022)" /><path
     d="m 478.60721,592.69742 c 0,22.38007 -11.80221,40.52308 -26.3603,40.52308 -14.55809,0 -26.3603,-18.14301 -26.3603,-40.52308 0,-22.3807 11.80221,-105.3109 26.3603,-105.3109 14.55809,0 26.3603,82.9302 26.3603,105.3109 z"
     id="path134"
     inkscape:connector-curvature="0"
     style="fill:#231e1c" /><rect
     x="443.49203"
     y="630.92792"
     width="16.279104"
     height="14.325184"
     id="rect136"
     style="fill:#231e1c" /><path
     d="m 1239.4453,529.27306 c 0,22.38007 -11.8023,40.52308 -26.3603,40.52308 -14.5582,0 -26.3603,-18.14301 -26.3603,-40.52308 0,-22.3807 11.8021,-105.3109 26.3603,-105.3109 14.558,0 26.3603,82.9302 26.3603,105.3109 z"
     id="path140"
     inkscape:connector-curvature="0"
     style="fill:#231e1c" /><rect
     x="1204.3306"
     y="567.50354"
     width="16.278475"
     height="14.325184"
     id="rect142"
     style="fill:#231e1c" /><path
     d="m 407.28093,592.69742 c 0,22.38007 -11.80157,40.52308 -26.35967,40.52308 -14.55809,0 -26.36093,-18.14301 -26.36093,-40.52308 0,-22.3807 11.80284,-105.3109 26.36093,-105.3109 14.5581,0 26.35967,82.9302 26.35967,105.3109 z"
     id="path146"
     inkscape:connector-curvature="0"
     style="fill:#231e1c" /><rect
     x="372.16638"
     y="630.92792"
     width="16.279104"
     height="14.325184"
     id="rect148"
     style="fill:#231e1c" /><path
     d="m -36.484386,614.66266 c 0,22.38007 -11.80157,40.52307 -26.35967,40.52307 -14.55809,0 -26.36093,-18.143 -26.36093,-40.52307 0,-22.3807 11.80284,-105.3109 26.36093,-105.3109 14.5581,0 26.35967,82.93083 26.35967,105.3109 z"
     id="path152"
     inkscape:connector-curvature="0"
     style="fill:#231e1c" /><rect
     x="-71.598915"
     y="652.8938"
     width="16.279104"
     height="14.325184"
     id="rect154"
     style="fill:#231e1c" /><path
     d="m 547.82094,592.69742 c 0,22.38007 -11.80222,40.52308 -26.3603,40.52308 -14.55809,0 -26.3603,-18.14301 -26.3603,-40.52308 0,-22.3807 11.80221,-105.3109 26.3603,-105.3109 14.55808,0 26.3603,82.9302 26.3603,105.3109 z"
     id="path158"
     inkscape:connector-curvature="0"
     style="fill:#231e1c" /><rect
     x="513.3208"
     y="630.92792"
     width="16.279104"
     height="14.325184"
     id="rect160"
     style="fill:#231e1c" /><circle
     style="fill:#231e1c"
     sodipodi:ry="38.998001"
     sodipodi:rx="38.998001"
     sodipodi:cy="495.99899"
     sodipodi:cx="588.41602"
     d="m 627.41402,495.99899 c 0,21.538 -17.46,38.998 -38.998,38.998 -21.53801,0 -38.99801,-17.46 -38.99801,-38.998 0,-21.538 17.46,-38.998 38.99801,-38.998 21.538,0 38.998,17.46 38.998,38.998 z"
     id="circle162"
     r="38.998001"
     cy="495.99899"
     cx="588.41602"
     transform="matrix(0.6294847,0,0,0.6294847,525.86703,300.61022)" /><rect
     x="268.13773"
     y="487.41168"
     width="19.910601"
     height="152.56821"
     id="rect166"
     style="fill:#231e1c" /><path
     d="m 359.77435,438.28734 c 0,45.11328 -36.57117,81.68005 -81.68194,81.68005 -45.11391,0 -81.68005,-36.56677 -81.68005,-81.68005 0,-45.10825 36.56614,-81.68005 81.68005,-81.68005 45.11077,0 81.68194,36.5718 81.68194,81.68005 z"
     id="path168"
     inkscape:connector-curvature="0"
     style="fill:#231e1c" /><rect
     x="67.051384"
     y="485.03351"
     width="19.911232"
     height="152.56821"
     id="rect172"
     style="fill:#231e1c" /><path
     d="m 158.68797,435.90915 c 0,45.11327 -36.5718,81.68004 -81.682556,81.68004 -45.11328,0 -81.6800499,-36.56677 -81.6800499,-81.68004 0,-45.10888 36.5667699,-81.68005 81.6800499,-81.68005 45.111386,0 81.682556,36.57054 81.682556,81.68005 z"
     id="path174"
     inkscape:connector-curvature="0"
     style="fill:#231e1c" /><path
     style="fill:#333333"
     inkscape:connector-curvature="0"
     id="path176"
     d="m 1062.188,472.38653 c 0,4.17222 -3.3822,7.55381 -7.5538,7.55381 h -28.6416 c -4.1716,0 -7.5538,-3.38159 -7.5538,-7.55381 l 3.1475,-22.58844 c 0,-4.17159 3.3822,-7.55381 7.5538,-7.55381 h 22.9762 c 4.1716,0 7.5538,3.38222 7.5538,7.55381 l 2.5179,22.58844 z" /><line
     x1="1042.2113"
     y1="472.69312"
     x2="1028.8347"
     y2="492.62634"
     id="line192"
     style="fill:none;stroke:#1e1d1d;stroke-width:0.62948471" /><line
     x1="1038.1411"
     y1="472.44507"
     x2="1024.7645"
     y2="492.37897"
     id="line194"
     style="fill:none;stroke:#1e1d1d;stroke-width:0.62948471" /><line
     x1="1033.8134"
     y1="472.44507"
     x2="1020.437"
     y2="492.37897"
     id="line196"
     style="fill:none;stroke:#1e1d1d;stroke-width:0.62948471" /><line
     x1="1054.5253"
     y1="472.69312"
     x2="1041.1488"
     y2="492.62634"
     id="line198"
     style="fill:none;stroke:#1e1d1d;stroke-width:0.62948471" /><line
     x1="1050.4551"
     y1="472.44507"
     x2="1037.0786"
     y2="492.37897"
     id="line200"
     style="fill:none;stroke:#1e1d1d;stroke-width:0.62948471" /><line
     x1="1046.1274"
     y1="472.44507"
     x2="1032.7509"
     y2="492.37897"
     id="line202"
     style="fill:none;stroke:#1e1d1d;stroke-width:0.62948471" /><line
     x1="1039.0463"
     y1="472.69312"
     x2="1052.4229"
     y2="492.62634"
     id="line206"
     style="fill:none;stroke:#1e1d1d;stroke-width:0.62948471" /><line
     x1="1043.1166"
     y1="472.44507"
     x2="1056.493"
     y2="492.37897"
     id="line208"
     style="fill:none;stroke:#1e1d1d;stroke-width:0.62948471" /><line
     x1="1047.4442"
     y1="472.44507"
     x2="1060.8208"
     y2="492.37897"
     id="line210"
     style="fill:none;stroke:#1e1d1d;stroke-width:0.62948471" /><line
     x1="1026.7323"
     y1="472.69312"
     x2="1040.1089"
     y2="492.62634"
     id="line212"
     style="fill:none;stroke:#1e1d1d;stroke-width:0.62948471" /><line
     x1="1030.8025"
     y1="472.44507"
     x2="1044.1791"
     y2="492.37897"
     id="line214"
     style="fill:none;stroke:#1e1d1d;stroke-width:0.62948471" /><line
     x1="1035.1302"
     y1="472.44507"
     x2="1048.5068"
     y2="492.37897"
     id="line216"
     style="fill:none;stroke:#1e1d1d;stroke-width:0.62948471" /><line
     style="fill:none;stroke:#442216;stroke-width:1.8884542;stroke-linecap:round"
     id="line218"
     y2="472.6698"
     x2="1050.438"
     y1="472.6698"
     x1="1030.8196" /><circle
     style="fill:#442216"
     sodipodi:ry="29.333"
     sodipodi:rx="29.333"
     sodipodi:cy="762.71503"
     sodipodi:cx="1110.175"
     d="m 1139.508,762.71503 c 0,16.20017 -13.1328,29.333 -29.333,29.333 -16.2001,0 -29.333,-13.13283 -29.333,-29.333 0,-16.20017 13.1329,-29.333 29.333,-29.333 16.2002,0 29.333,13.13283 29.333,29.333 z"
     id="circle178"
     r="29.333"
     cy="762.71503"
     cx="1110.175"
     transform="matrix(0.6294847,0,0,0.6294847,525.86703,300.61022)" /></g><g
   inkscape:groupmode="layer"
   id="layer1"
   inkscape:label="ground"
   style="display:inline"><rect
     x="-909.96619"
     y="800.80756"
     width="2531.2778"
     height="539.6131"
     id="rect232"
     style="fill:#191818" /><polygon
     points="930.286,-377.444 963.463,-377.444 966.373,815.113 927.376,815.113 "
     id="polygon234"
     style="fill:#191818"
     transform="matrix(0.6294847,0,0,0.6294847,525.86703,300.61022)" /><polygon
     points="811.044,-377.444 941,-377.444 941,-352.062 811.044,-361 "
     id="polygon236"
     style="fill:#191818"
     transform="matrix(0.6294847,0,0,0.6294847,525.86703,300.61022)" /><ellipse
     cx="780.00201"
     cy="-338.509"
     rx="28"
     ry="12.667"
     id="ellipse238"
     d="m 808.00201,-338.509 c 0,6.99579 -12.53602,12.667 -28,12.667 -15.46397,0 -28,-5.67121 -28,-12.667 0,-6.99579 12.53603,-12.667 28,-12.667 15.46398,0 28,5.67121 28,12.667 z"
     sodipodi:cx="780.00201"
     sodipodi:cy="-338.509"
     sodipodi:rx="28"
     sodipodi:ry="12.667"
     style="fill:#ddd387"
     transform="matrix(0.6294847,0,0,0.6294847,525.86703,300.61022)" /><rect
     x="987.28125"
     y="63.014988"
     width="59.170303"
     height="24.509617"
     id="rect240"
     style="fill:#191818" /></g><g
   inkscape:groupmode="layer"
   id="layer4"
   inkscape:label="physics"><path
     style="fill:none;stroke:#000000;stroke-width:0.62948471px;stroke-linecap:butt;stroke-linejoin:miter;stroke-opacity:1"
     d="m -992.09106,807.19531 2724.28946,0"
     id="path3098"
     inkscape:connector-curvature="0"
     sodipodi:nodetypes="cc" /></g></svg>