<?xml version="1.0" encoding="UTF-8" standalone="no"?>
<!-- Generator: Adobe Illustrator 14.0.0, SVG Export Plug-In . SVG Version: 6.00 Build 43363)  -->

<svg
   xmlns:dc="http://purl.org/dc/elements/1.1/"
   xmlns:cc="http://creativecommons.org/ns#"
   xmlns:rdf="http://www.w3.org/1999/02/22-rdf-syntax-ns#"
   xmlns:svg="http://www.w3.org/2000/svg"
   xmlns="http://www.w3.org/2000/svg"
   xmlns:xlink="http://www.w3.org/1999/xlink"
   xmlns:sodipodi="http://sodipodi.sourceforge.net/DTD/sodipodi-0.dtd"
   xmlns:inkscape="http://www.inkscape.org/namespaces/inkscape"
   version="1.1"
   x="0px"
   y="0px"
   width="800px"
   height="600px"
   viewBox="0 0 800 600"
   enable-background="new 0 0 800 600"
   xml:space="preserve"
   id="svg2"
   inkscape:version="0.48.2 r9819"
   sodipodi:docname="objects.svg"><metadata
   id="metadata246"><rdf:RDF><cc:Work
       rdf:about=""><dc:format>image/svg+xml</dc:format><dc:type
         rdf:resource="http://purl.org/dc/dcmitype/StillImage" /></cc:Work></rdf:RDF></metadata><defs
   id="defs244" /><sodipodi:namedview
   pagecolor="#ffffff"
   bordercolor="#666666"
   borderopacity="1"
   objecttolerance="10"
   gridtolerance="10"
   guidetolerance="10"
   inkscape:pageopacity="0"
   inkscape:pageshadow="2"
   inkscape:window-width="1440"
   inkscape:window-height="839"
   id="namedview242"
   showgrid="false"
   inkscape:zoom="3.1466667"
   inkscape:cx="-392.42747"
   inkscape:cy="-53.723517"
   inkscape:window-x="0"
   inkscape:window-y="0"
   inkscape:window-maximized="0"
   inkscape:current-layer="svg2" />
<g
   id="background">
	<rect
   x="-2222.068"
   y="-721.156"
   fill="#262524"
   width="3996.068"
   height="1337.99"
   id="rect5" />
	<g
   id="g7">
		<circle
   fill="#F2F2F2"
   cx="-417.958"
   cy="-333.255"
   r="87.585"
   id="circle9" />
		<circle
   fill="#262524"
   cx="-414.47"
   cy="-337.745"
   r="87.585"
   id="circle11" />
	</g>
</g>
<g
   id="middle_ground">
	<path
   fill="#231E1C"
   d="M1801.592,627.247c-33.735-69.911-122.775-86.856-194.355-95.715c-32.257-3.993-64.847-5.265-97.306-6.875   c-13.815-0.686-27.625-1.44-41.413-2.527c-2.227-0.175-6.312-0.609-9.713-0.974c-3.071-0.547-6.127-1.166-9.169-1.854   c-40.8-9.239-83.304,11.689-94.72,51.206c-4.443,15.381-3.05,31.764,2.948,46.38c-43.154,8.515-85.16,20.188-126.741,35.226   c-20.563,7.436-41.225,14.182-62.736,18.379c1.985-0.572-10.277,0.893-12.894,0.994c-6.763,0.26-13.526-0.167-20.269-0.587   c-18.155-1.133-36.342-3.755-54.397-5.848c-63.684-7.382-127.187-16.113-191.317-19.194c-65.074-3.126-129.029,4.741-193.731,9.84   c-129.331,10.193-258.745,9.103-388.388,10.294c-133.307,1.225-266.625,3.067-399.92,0.045   c-64.589-1.463-128.903-7.957-193.387-11.477c-2.472-0.135-4.943-0.248-7.416-0.368c-13.731-20.744-37.975-34.832-65.145-34.697   c-37.1,0.183-74.097,2.865-111.132,4.625c47.884-18.222,70.763-82.809,27.606-120.234   c-49.029-42.518-114.395-46.995-176.896-35.989c-23.266,4.097-45.654,11.802-68.003,18.992   c-10.403,3.348-20.891,6.354-31.532,8.933c-5.02,1.216-10.105,2.135-15.198,3.016c16.974-2.984-9.467,0.459-13.579,0.618   c-63.355,2.475-126.877,0.081-190.287,2.874c-30.459,1.342-60.862,3.587-91.186,6.604c-42.604,4.239-66.783,9.29-99.717,8.794   c-30.566-0.459-61.041-4.668-91.365-7.967c-32.855-3.574-65.371-4.487-98.406-4.511c-64.816-0.046-129.633-0.642-194.388-3.534   c-61.228-2.736-122.095-9.591-183.405-11.793c-62.375-2.24-124.832-2.118-187.232-1.165c-61.665,0.94-123.307,2.986-184.938,5.079   c-35.911,1.219-72.296-3.574-108.27-3.73c-52.068-0.227-103.566,4.693-144.332,38.398c-26.166,21.635-33.562,58.125-34.801,89.206   c-0.223,5.6-1.205,34.743,1.846,18.118c-1.453,8.131-3.383,16.178-4.563,24.354c-5.075,35.147-0.46,62.754,24.682,90.368   c22.369,24.569,61.423,31.719,93.402,35.15c47.233,5.07,94.967-3.532,141.995-7.133c119.352-9.138,239.656-6.685,359.225-3.877   c258.154,6.062,517.498-10.203,775.101,9.878c129.535,10.098,258.731,24.572,388.937,20.707   c65.726-1.95,131.38-5.512,197.135-6.384c63.819-0.848,127.572,4.359,191.152,8.887c132.291,9.418,265.468,6.993,398.036,5.774   c131.123-1.205,262.632,0.839,393.618-5.442c64.167-3.077,127.885-9.784,191.884-14.728c63.952-4.94,128.328,0.363,191.872,7.364   c30.714,3.383,61.359,7.322,92.044,10.935c31.21,3.674,62.395,8.314,93.847,5.085c58.823-6.04,109.816-30.798,166.088-45.841   c37.879-10.127,77.097-16.782,116.007-22.156c-10.587,1.503,16.229-1.643,18.832-1.896c9.89-0.966,19.808-1.644,29.726-2.271   c17.948-1.136,35.965-1.511,53.947-1.208c64.526,1.086,133.781,12.3,196.301-8.448   C1805.679,718.319,1823.194,672.014,1801.592,627.247z"
   id="path14" />
	<path
   fill="#231E1C"
   d="M1531.751,631.897c-22.192-57.269-51.676-109.315-94.931-147.53   c-50.724-44.814-120.008-49.649-181.154-47.412c-32.878,1.201-65.195-19.154-98.111-19.311   c-33.271-0.159-128.701-14.843-161.991-13.5c-33.711,1.359-5.476,40.131-39.188,38.11c-4.127-0.247-8.248-0.603-12.369-0.96   c-0.934-0.081-1.683-0.141-2.296-0.184c-0.181-0.034-0.345-0.065-0.543-0.102c-7.35-1.341-14.632-3.179-21.888-5.072   c-16.01-4.177-31.828-9.324-47.764-13.859c-34.583-9.838-68.585-13.197-104.046-12.478c-32.843,0.666-65.994,4.929-98.828,3.066   c-69.849-3.962-139.367-10.475-209.339-5.813c-33.588,2.239-66.654,6.928-100.377,5.609c-34.232-1.338-68.32-6.229-102.305-10.934   c-68.462-9.477-137.038-12.063-205.945-12.814c-29.847-0.326-59.717-0.578-89.562-0.262c-4.984,0.053-9.973,0.318-14.959,0.74   c-41.227-2.009-84.689,11.687-123.023,21.475c-15.742,4.019-32.228,5.525-48.178,8.269c-17.965,3.09-35.915,6.292-53.862,9.517   c-34.526,6.203-69.035,12.533-103.581,18.582c-57.108,9.999-114.875,18.531-170.408,37.709   c-55.984,19.334-111.305,53.112-141.384,114.026c-17.11,34.648-16.472,73.538,6.257,104.331   c22.479,30.454,64.031,30.898,95.266,31.84c33.287,1.003,66.591-0.08,99.877,1.1c33.646,1.193,67.189,7.854,100.715,11.43   c67.5,7.199,134.953,6.973,202.658,7.562c69.453,0.604,138.928,1.106,208.328-2.633c126.64-6.824,253.639-14.592,380.452-10.661   c12.282,11.214,26.849,19.684,40.333,26.534c21.833,11.091,43.142,22.978,65.933,31.32c23.517,8.607,48.217,13.586,72.797,15.363   c32.147,2.326,63.771-5.519,92.672-21.743c5.312-2.981,10.465-6.54,15.417-10.505c50.799,8.01,102.143,12.453,153.198,14.419   c67.48,2.598,136.194,0.969,203.24-8.912c32.816-4.837,65.181-12.54,97.811-18.732c3.678-0.698,7.364-1.342,11.05-1.98   c0.283-0.05,0.529-0.093,0.778-0.136c0.483-0.068,1.041-0.147,1.72-0.246c0.908-0.131,1.817-0.245,2.727-0.367   c21.109,4.323,42.415,7.524,63.714,9.561c12.686,1.215,25.735,1.914,38.812,1.678c17.033,5.094,34.509,8.149,52.099,8.521   c33.94,0.72,68.376-5.473,101.237-15.042c31.242-9.101,62.222-22.054,91.488-37.688c11.642-6.219,23.96-17.58,29.475-31.361   C1543.633,677.774,1541.018,655.811,1531.751,631.897z M1177.208,650.75C1172.869,658.744,1174.797,654.197,1177.208,650.75   L1177.208,650.75z"
   id="path16" />
	<rect
   x="-2287.466"
   y="694.739"
   fill="#231E1C"
   width="3998.411"
   height="297.03"
   id="rect18" />
	<rect
   x="-98.235"
   y="256.198"
   fill="#2B2522"
   width="91.235"
   height="237.134"
   id="rect20" />
	<rect
   x="588.416"
   y="191.334"
   fill="#2B2522"
   width="436.584"
   height="274"
   id="rect22" />
	<rect
   x="582.166"
   y="191.334"
   fill="#2B2522"
   width="436.584"
   height="274"
   id="rect24" />
	<polygon
   fill="#231E1C"
   points="-15,265.689 -110,265.689 -90,228.735 -15,228.735  "
   id="polygon26" />
	<rect
   x="630.727"
   y="284.884"
   fill="#231E1C"
   width="172"
   height="181.768"
   id="rect28" />
	<rect
   x="833.727"
   y="284.884"
   fill="#231E1C"
   width="172"
   height="181.768"
   id="rect30" />
	<polygon
   fill="#231E1C"
   points="1054.111,251.775 599.343,251.775 622.046,173.559 1031.408,173.559  "
   id="polygon32" />
	<rect
   x="-19.584"
   y="39"
   fill="#2B2522"
   width="662.965"
   height="491"
   id="rect34" />
	<polygon
   fill="#231E1C"
   points="671.056,107.426 -47.657,107.426 -11.777,-87.831 635.176,-87.831  "
   id="polygon36" />
	
		<rect
   x="63.59"
   y="46.471"
   transform="matrix(0.7071 0.7071 -0.7071 0.7071 110.9343 -55.9784)"
   fill="#2B2522"
   width="118.899"
   height="118.898"
   id="rect38" />
	<rect
   x="106.319"
   y="78.658"
   fill="#231E1C"
   width="30.76"
   height="54.684"
   id="rect40" />
	<rect
   x="-68.363"
   y="326.16"
   fill="#231E1C"
   width="24.125"
   height="42.889"
   id="rect42" />
	
		<rect
   x="444.698"
   y="46.472"
   transform="matrix(0.7071 0.7071 -0.7071 0.7071 222.5609 -325.4644)"
   fill="#2B2522"
   width="118.898"
   height="118.898"
   id="rect44" />
	<rect
   x="487.428"
   y="78.658"
   fill="#231E1C"
   width="30.76"
   height="54.684"
   id="rect46" />
	<g
   id="g48">
		<rect
   x="110.217"
   y="296.263"
   fill="#231E1C"
   width="27"
   height="48"
   id="rect50" />
		<rect
   x="144.792"
   y="296.263"
   fill="#231E1C"
   width="27"
   height="48"
   id="rect52" />
		<rect
   x="110.217"
   y="351.768"
   fill="#231E1C"
   width="27"
   height="48"
   id="rect54" />
		<rect
   x="144.792"
   y="351.768"
   fill="#231E1C"
   width="27"
   height="48"
   id="rect56" />
	</g>
	<g
   id="g58">
		<rect
   x="456.072"
   y="296.263"
   fill="#231E1C"
   width="27"
   height="48"
   id="rect60" />
		<rect
   x="490.647"
   y="296.263"
   fill="#231E1C"
   width="27"
   height="48"
   id="rect62" />
		<rect
   x="456.072"
   y="351.768"
   fill="#231E1C"
   width="27"
   height="48"
   id="rect64" />
		<rect
   x="490.647"
   y="351.768"
   fill="#231E1C"
   width="27"
   height="48"
   id="rect66" />
	</g>
	<g
   id="g68">
		<rect
   x="526.841"
   y="296.263"
   fill="#231E1C"
   width="27"
   height="48"
   id="rect70" />
		<rect
   x="561.416"
   y="296.263"
   fill="#231E1C"
   width="27"
   height="48"
   id="rect72" />
		<rect
   x="526.841"
   y="351.768"
   fill="#231E1C"
   width="27"
   height="48"
   id="rect74" />
		<rect
   x="561.416"
   y="351.768"
   fill="#231E1C"
   width="27"
   height="48"
   id="rect76" />
	</g>
	<g
   id="g78">
		<rect
   x="40.375"
   y="296.263"
   fill="#231E1C"
   width="27"
   height="48"
   id="rect80" />
		<rect
   x="74.951"
   y="296.263"
   fill="#231E1C"
   width="27"
   height="48"
   id="rect82" />
		<rect
   x="40.375"
   y="351.768"
   fill="#231E1C"
   width="27"
   height="48"
   id="rect84" />
		<rect
   x="74.951"
   y="351.768"
   fill="#231E1C"
   width="27"
   height="48"
   id="rect86" />
	</g>
	<g
   id="g88">
		<rect
   x="189.398"
   y="155"
   fill="#231E1C"
   width="245"
   height="12"
   id="rect90" />
		<rect
   x="189.398"
   y="208"
   fill="#231E1C"
   width="245"
   height="55.167"
   id="rect92" />
		<rect
   x="204.064"
   y="165.334"
   fill="#231E1C"
   width="12.668"
   height="47.333"
   id="rect94" />
		<rect
   x="244.731"
   y="165.334"
   fill="#231E1C"
   width="12.667"
   height="47.333"
   id="rect96" />
		<rect
   x="285.398"
   y="165.334"
   fill="#231E1C"
   width="12.667"
   height="47.333"
   id="rect98" />
		<rect
   x="326.064"
   y="165.334"
   fill="#231E1C"
   width="12.668"
   height="47.333"
   id="rect100" />
		<rect
   x="366.732"
   y="165.334"
   fill="#231E1C"
   width="12.666"
   height="47.333"
   id="rect102" />
		<rect
   x="407.398"
   y="165.334"
   fill="#231E1C"
   width="12.667"
   height="47.333"
   id="rect104" />
	</g>
	<rect
   x="206.332"
   y="263.167"
   fill="#231E1C"
   width="25.334"
   height="254.333"
   id="rect106" />
	<rect
   x="394.732"
   y="263.167"
   fill="#231E1C"
   width="25.333"
   height="251.499"
   id="rect108" />
	<g
   id="g110">
		<ellipse
   fill="#231E1C"
   cx="318"
   cy="345.953"
   rx="58.033"
   ry="52.032"
   id="ellipse112" />
		<rect
   x="259.967"
   y="345.953"
   fill="#231E1C"
   width="116.066"
   height="127.381"
   id="rect114" />
	</g>
	<rect
   x="315.422"
   y="289.5"
   fill="#2B2522"
   width="5.156"
   height="189.5"
   id="rect116" />
	<rect
   x="246.3"
   y="476.999"
   fill="#231E1C"
   width="143.4"
   height="14.667"
   id="rect118" />
	<rect
   x="229.866"
   y="495.999"
   fill="#231E1C"
   width="176.268"
   height="14.667"
   id="rect120" />
	<rect
   x="185"
   y="514.901"
   fill="#231E1C"
   width="266"
   height="19.86"
   id="rect122" />
	<rect
   x="405.667"
   y="359.667"
   fill="#2B2522"
   width="5.667"
   height="28.333"
   id="rect124" />
	<circle
   fill="#DDD387"
   cx="408.5"
   cy="352"
   r="8.833"
   id="circle126" />
	<rect
   x="216.166"
   y="359.667"
   fill="#2B2522"
   width="5.666"
   height="28.333"
   id="rect128" />
	<circle
   fill="#DDD387"
   cx="218.999"
   cy="352"
   r="8.833"
   id="circle130" />
	<g
   id="g132">
		<path
   fill="#231E1C"
   d="M-75.077,464.01c0,35.553-18.749,64.375-41.876,64.375s-41.876-28.822-41.876-64.375    c0-35.554,18.749-167.297,41.876-167.297S-75.077,428.456-75.077,464.01z"
   id="path134" />
		<rect
   x="-130.861"
   y="524.743"
   fill="#231E1C"
   width="25.861"
   height="22.757"
   id="rect136" />
	</g>
	<g
   id="g138">
		<path
   fill="#231E1C"
   d="M1133.591,363.254c0,35.553-18.749,64.375-41.876,64.375s-41.876-28.822-41.876-64.375    c0-35.554,18.749-167.297,41.876-167.297S1133.591,327.7,1133.591,363.254z"
   id="path140" />
		<rect
   x="1077.808"
   y="423.987"
   fill="#231E1C"
   width="25.86"
   height="22.757"
   id="rect142" />
	</g>
	<g
   id="g144">
		<path
   fill="#231E1C"
   d="M-188.386,464.01c0,35.553-18.748,64.375-41.875,64.375s-41.877-28.822-41.877-64.375    c0-35.554,18.75-167.297,41.877-167.297S-188.386,428.456-188.386,464.01z"
   id="path146" />
		<rect
   x="-244.169"
   y="524.743"
   fill="#231E1C"
   width="25.861"
   height="22.757"
   id="rect148" />
	</g>
	<g
   id="g150">
		<path
   fill="#231E1C"
   d="M-893.352,498.904c0,35.553-18.748,64.375-41.875,64.375s-41.877-28.822-41.877-64.375    c0-35.554,18.75-167.297,41.877-167.297S-893.352,463.351-893.352,498.904z"
   id="path152" />
		<rect
   x="-949.135"
   y="559.638"
   fill="#231E1C"
   width="25.861"
   height="22.757"
   id="rect154" />
	</g>
	<g
   id="g156">
		<path
   fill="#231E1C"
   d="M34.876,464.01c0,35.553-18.749,64.375-41.876,64.375s-41.876-28.822-41.876-64.375    c0-35.554,18.749-167.297,41.876-167.297S34.876,428.456,34.876,464.01z"
   id="path158" />
		<rect
   x="-19.931"
   y="524.743"
   fill="#231E1C"
   width="25.861"
   height="22.757"
   id="rect160" />
	</g>
	<circle
   fill="#231E1C"
   cx="588.416"
   cy="495.999"
   r="38.998"
   id="circle162" />
	<g
   id="g164">
		<rect
   x="-409.429"
   y="296.753"
   fill="#231E1C"
   width="31.63"
   height="242.37"
   id="rect166" />
		<path
   fill="#231E1C"
   d="M-263.855,218.714c0,71.667-58.097,129.757-129.76,129.757c-71.668,0-129.757-58.09-129.757-129.757    c0-71.659,58.089-129.757,129.757-129.757C-321.952,88.957-263.855,147.055-263.855,218.714z"
   id="path168" />
	</g>
	<g
   id="g170">
		<rect
   x="-728.875"
   y="292.975"
   fill="#231E1C"
   width="31.631"
   height="242.37"
   id="rect172" />
		<path
   fill="#231E1C"
   d="M-583.301,214.936c0,71.667-58.098,129.757-129.761,129.757c-71.667,0-129.757-58.09-129.757-129.757    c0-71.66,58.09-129.757,129.757-129.757C-641.398,85.179-583.301,143.275-583.301,214.936z"
   id="path174" />
	</g>
	<path
   fill="#333333"
   d="M852,272.884c0,6.628-5.373,12-12,12h-45.5c-6.627,0-12-5.372-12-12l5-35.884c0-6.627,5.373-12,12-12H836   c6.627,0,12,5.373,12,12L852,272.884z"
   id="path176" />
	<circle
   fill="#442216"
   cx="1110.175"
   cy="762.715"
   r="29.333"
   id="circle178" />
	<g
   id="g180">
		<defs
   id="defs182">
			<polygon
   id="SVGID_1_"
   points="826.334,301.75 810.375,301.75 803.375,273.334 833.334,273.334    " />
		</defs>
		<clipPath
   id="SVGID_2_">
			<use
   xlink:href="#SVGID_1_"
   overflow="visible"
   id="use186" />
		</clipPath>
		<g
   clip-path="url(#SVGID_2_)"
   id="g188">
			<g
   id="g190">
				<line
   fill="none"
   stroke="#1E1D1D"
   x1="820.265"
   y1="273.371"
   x2="799.015"
   y2="305.037"
   id="line192" />
				<line
   fill="none"
   stroke="#1E1D1D"
   x1="813.799"
   y1="272.977"
   x2="792.549"
   y2="304.644"
   id="line194" />
				<line
   fill="none"
   stroke="#1E1D1D"
   x1="806.924"
   y1="272.977"
   x2="785.674"
   y2="304.644"
   id="line196" />
				<line
   fill="none"
   stroke="#1E1D1D"
   x1="839.827"
   y1="273.371"
   x2="818.577"
   y2="305.037"
   id="line198" />
				<line
   fill="none"
   stroke="#1E1D1D"
   x1="833.361"
   y1="272.977"
   x2="812.111"
   y2="304.644"
   id="line200" />
				<line
   fill="none"
   stroke="#1E1D1D"
   x1="826.486"
   y1="272.977"
   x2="805.236"
   y2="304.644"
   id="line202" />
			</g>
			<g
   id="g204">
				<line
   fill="none"
   stroke="#1E1D1D"
   x1="815.237"
   y1="273.371"
   x2="836.487"
   y2="305.037"
   id="line206" />
				<line
   fill="none"
   stroke="#1E1D1D"
   x1="821.703"
   y1="272.977"
   x2="842.953"
   y2="304.644"
   id="line208" />
				<line
   fill="none"
   stroke="#1E1D1D"
   x1="828.578"
   y1="272.977"
   x2="849.828"
   y2="304.644"
   id="line210" />
				<line
   fill="none"
   stroke="#1E1D1D"
   x1="795.675"
   y1="273.371"
   x2="816.925"
   y2="305.037"
   id="line212" />
				<line
   fill="none"
   stroke="#1E1D1D"
   x1="802.141"
   y1="272.977"
   x2="823.391"
   y2="304.644"
   id="line214" />
				<line
   fill="none"
   stroke="#1E1D1D"
   x1="809.016"
   y1="272.977"
   x2="830.266"
   y2="304.644"
   id="line216" />
			</g>
		</g>
	</g>
	
		<line
   fill="none"
   stroke="#442216"
   stroke-width="3"
   stroke-linecap="round"
   x1="802.168"
   y1="273.334"
   x2="833.334"
   y2="273.334"
   id="line218" />
</g>

<g
   id="foreground">
	<g
   id="g230">
		<rect
   x="-2280.966"
   y="794.614"
   fill="#191818"
   width="3998.411"
   height="199.155"
   id="rect232" />
		<polygon
   fill="#191818"
   points="966.373,815.113 927.376,815.113 930.286,-377.444 963.463,-377.444   "
   id="polygon234" />
		<polygon
   fill="#191818"
   points="941,-352.062 811.044,-361 811.044,-377.444 941,-377.444   "
   id="polygon236" />
		<ellipse
   fill="#DDD387"
   cx="780.002"
   cy="-338.509"
   rx="28"
   ry="12.667"
   id="ellipse238" />
		<rect
   x="733.003"
   y="-377.444"
   fill="#191818"
   width="93.998"
   height="38.936"
   id="rect240" />
	</g>
</g>
</svg>