ply
format ascii 1.0
comment Created by Blender 2.63 (sub 0) - www.blender.org, source file: ''
element vertex 96
property float x
property float y
property float z
property float nx
property float ny
property float nz
property uchar red
property uchar green
property uchar blue
element face 24
property list uchar uint vertex_indices
end_header
0.000000 0.000000 -1.000000 0.261014 0.261014 -0.929378 255 255 255
0.000000 -1.000000 -1.000000 0.261014 0.261014 -0.929378 255 255 255
-1.835025 -1.826895 -2.028443 0.261014 0.261014 -0.929378 255 255 255
-1.000000 0.000000 -1.000000 0.261014 0.261014 -0.929378 255 255 255
-0.000000 -0.000000 1.000000 0.251176 0.251176 0.934784 255 255 255
-1.000000 0.000000 1.000000 0.251176 0.251176 0.934784 255 255 255
-1.819704 -1.840795 1.983574 0.251176 0.251176 0.934784 255 255 255
-0.000001 -1.000000 1.000000 0.251176 0.251176 0.934784 255 255 255
1.000000 -0.000000 0.000000 0.948429 0.224144 -0.224145 255 255 255
1.000000 -0.000001 1.000000 0.948429 0.224144 -0.224145 255 255 255
1.896888 -1.930507 1.864520 0.948429 0.224144 -0.224145 255 255 255
1.000000 -1.000000 0.000000 0.948429 0.224144 -0.224145 255 255 255
-0.000000 -1.000000 0.000000 0.210999 -0.954441 -0.211000 255 255 255
-0.000001 -1.000000 1.000000 0.210999 -0.954441 -0.211000 255 255 255
-1.819704 -1.840795 1.983574 0.210999 -0.954441 -0.211000 255 255 255
-1.000000 -1.000000 0.000000 0.210999 -0.954441 -0.211000 255 255 255
-1.000000 0.000000 0.000000 -0.940398 -0.240470 -0.240471 255 255 255
-1.000000 0.000000 1.000000 -0.940398 -0.240470 -0.240471 255 255 255
-1.950721 1.835235 1.882708 -0.940398 -0.240470 -0.240471 255 255 255
-1.000000 1.000000 0.000000 -0.940398 -0.240470 -0.240471 255 255 255
0.000000 1.000000 0.000000 0.222685 0.949117 0.222685 255 255 255
0.000000 1.000000 -1.000000 0.222685 0.949117 0.222685 255 255 255
-1.901619 1.924688 -2.039543 0.222685 0.949117 0.222685 255 255 255
-1.000000 1.000000 0.000000 0.222685 0.949117 0.222685 255 255 255
0.000000 1.000000 -1.000000 0.253608 -0.253608 -0.933470 255 255 255
0.000000 0.000000 -1.000000 0.253608 -0.253608 -0.933470 255 255 255
-1.000000 0.000000 -1.000000 0.253608 -0.253608 -0.933470 255 255 255
-1.901619 1.924688 -2.039543 0.253608 -0.253608 -0.933470 255 255 255
2.081045 1.953753 -2.078385 -0.250008 -0.250008 -0.935410 255 255 255
1.000000 -0.000000 -1.000000 -0.250008 -0.250008 -0.935410 255 255 255
0.000000 0.000000 -1.000000 -0.250008 -0.250008 -0.935410 255 255 255
0.000000 1.000000 -1.000000 -0.250008 -0.250008 -0.935410 255 255 255
1.000000 -0.000000 -1.000000 -0.251348 0.251348 -0.934691 255 255 255
1.807340 -1.884744 -1.992841 -0.251348 0.251348 -0.934691 255 255 255
0.000000 -1.000000 -1.000000 -0.251348 0.251348 -0.934691 255 255 255
0.000000 0.000000 -1.000000 -0.251348 0.251348 -0.934691 255 255 255
1.000000 -0.000001 1.000000 -0.215166 0.215166 0.952579 255 255 255
-0.000000 -0.000000 1.000000 -0.215166 0.215166 0.952579 255 255 255
-0.000001 -1.000000 1.000000 -0.215166 0.215166 0.952579 255 255 255
1.896888 -1.930507 1.864520 -0.215166 0.215166 0.952579 255 255 255
1.862836 2.001309 1.855893 -0.211369 -0.211369 0.954278 255 255 255
0.000000 1.000000 1.000000 -0.211369 -0.211369 0.954278 255 255 255
-0.000000 -0.000000 1.000000 -0.211369 -0.211369 0.954278 255 255 255
1.000000 -0.000001 1.000000 -0.211369 -0.211369 0.954278 255 255 255
0.000000 1.000000 1.000000 0.221427 -0.221427 0.949705 255 255 255
-1.950721 1.835235 1.882708 0.221427 -0.221427 0.949705 255 255 255
-1.000000 0.000000 1.000000 0.221427 -0.221427 0.949705 255 255 255
-0.000000 -0.000000 1.000000 0.221427 -0.221427 0.949705 255 255 255
1.000000 -0.000000 -1.000000 0.959279 0.199728 0.199729 255 255 255
1.000000 -0.000000 0.000000 0.959279 0.199728 0.199729 255 255 255
1.000000 -1.000000 0.000000 0.959279 0.199728 0.199729 255 255 255
1.807340 -1.884744 -1.992841 0.959279 0.199728 0.199729 255 255 255
2.081045 1.953753 -2.078385 0.935044 -0.250692 0.250692 255 255 255
1.000000 1.000000 0.000000 0.935044 -0.250692 0.250692 255 255 255
1.000000 -0.000000 0.000000 0.935044 -0.250692 0.250692 255 255 255
1.000000 -0.000000 -1.000000 0.935044 -0.250692 0.250692 255 255 255
1.000000 1.000000 0.000000 0.953429 -0.213277 -0.213277 255 255 255
1.862836 2.001309 1.855893 0.953429 -0.213277 -0.213277 255 255 255
1.000000 -0.000001 1.000000 0.953429 -0.213277 -0.213277 255 255 255
1.000000 -0.000000 0.000000 0.953429 -0.213277 -0.213277 255 255 255
0.000000 -1.000000 -1.000000 0.204851 -0.957117 0.204851 255 255 255
-0.000000 -1.000000 0.000000 0.204851 -0.957117 0.204851 255 255 255
-1.000000 -1.000000 0.000000 0.204851 -0.957117 0.204851 255 255 255
-1.835025 -1.826895 -2.028443 0.204851 -0.957117 0.204851 255 255 255
1.807340 -1.884744 -1.992841 -0.221138 -0.949840 0.221138 255 255 255
1.000000 -1.000000 0.000000 -0.221138 -0.949840 0.221138 255 255 255
-0.000000 -1.000000 0.000000 -0.221138 -0.949840 0.221138 255 255 255
0.000000 -1.000000 -1.000000 -0.221138 -0.949840 0.221138 255 255 255
1.000000 -1.000000 0.000000 -0.233505 -0.943902 -0.233505 255 255 255
1.896888 -1.930507 1.864520 -0.233505 -0.943902 -0.233505 255 255 255
-0.000001 -1.000000 1.000000 -0.233505 -0.943902 -0.233505 255 255 255
-0.000000 -1.000000 0.000000 -0.233505 -0.943902 -0.233505 255 255 255
-1.000000 0.000000 -1.000000 -0.951968 -0.216514 0.216514 255 255 255
-1.000000 0.000000 0.000000 -0.951968 -0.216514 0.216514 255 255 255
-1.000000 1.000000 0.000000 -0.951968 -0.216514 0.216514 255 255 255
-1.901619 1.924688 -2.039543 -0.951968 -0.216514 0.216514 255 255 255
-1.835025 -1.826895 -2.028443 -0.956151 0.207092 0.207092 255 255 255
-1.000000 -1.000000 0.000000 -0.956151 0.207092 0.207092 255 255 255
-1.000000 0.000000 0.000000 -0.956151 0.207092 0.207092 255 255 255
-1.000000 0.000000 -1.000000 -0.956151 0.207092 0.207092 255 255 255
-1.000000 -1.000000 0.000000 -0.957001 0.205121 -0.205121 255 255 255
-1.819704 -1.840795 1.983574 -0.957001 0.205121 -0.205121 255 255 255
-1.000000 0.000000 1.000000 -0.957001 0.205121 -0.205121 255 255 255
-1.000000 0.000000 0.000000 -0.957001 0.205121 -0.205121 255 255 255
0.000000 1.000000 1.000000 0.208221 0.955661 -0.208221 255 255 255
0.000000 1.000000 0.000000 0.208221 0.955661 -0.208221 255 255 255
-1.000000 1.000000 0.000000 0.208221 0.955661 -0.208221 255 255 255
-1.950721 1.835235 1.882708 0.208221 0.955661 -0.208221 255 255 255
1.862836 2.001309 1.855893 -0.251635 0.934537 -0.251635 255 255 255
1.000000 1.000000 0.000000 -0.251635 0.934537 -0.251635 255 255 255
0.000000 1.000000 0.000000 -0.251635 0.934537 -0.251635 255 255 255
0.000000 1.000000 1.000000 -0.251635 0.934537 -0.251635 255 255 255
1.000000 1.000000 0.000000 -0.218117 0.951236 0.218118 255 255 255
2.081045 1.953753 -2.078385 -0.218117 0.951236 0.218118 255 255 255
0.000000 1.000000 -1.000000 -0.218117 0.951236 0.218118 255 255 255
0.000000 1.000000 0.000000 -0.218117 0.951236 0.218118 255 255 255
4 0 1 2 3
4 4 5 6 7
4 8 9 10 11
4 12 13 14 15
4 16 17 18 19
4 20 21 22 23
4 24 25 26 27
4 28 29 30 31
4 32 33 34 35
4 36 37 38 39
4 40 41 42 43
4 44 45 46 47
4 48 49 50 51
4 52 53 54 55
4 56 57 58 59
4 60 61 62 63
4 64 65 66 67
4 68 69 70 71
4 72 73 74 75
4 76 77 78 79
4 80 81 82 83
4 84 85 86 87
4 88 89 90 91
4 92 93 94 95
