<?xml version="1.0" encoding="UTF-8" standalone="no"?>
<!-- Generator: Adobe Illustrator 16.0.0, SVG Export Plug-In . SVG Version: 6.00 Build 0)  -->

<svg
   xmlns:dc="http://purl.org/dc/elements/1.1/"
   xmlns:cc="http://creativecommons.org/ns#"
   xmlns:rdf="http://www.w3.org/1999/02/22-rdf-syntax-ns#"
   xmlns:svg="http://www.w3.org/2000/svg"
   xmlns="http://www.w3.org/2000/svg"
   xmlns:sodipodi="http://sodipodi.sourceforge.net/DTD/sodipodi-0.dtd"
   xmlns:inkscape="http://www.inkscape.org/namespaces/inkscape"
   version="1.1"
   id="Layer_1"
   x="0px"
   y="0px"
   width="800px"
   height="600px"
   viewBox="0 0 800 600"
   enable-background="new 0 0 800 600"
   xml:space="preserve"
   inkscape:version="0.48.2 r9819"
   sodipodi:docname="objects.svg"><metadata
   id="metadata794"><rdf:RDF><cc:Work
       rdf:about=""><dc:format>image/svg+xml</dc:format><dc:type
         rdf:resource="http://purl.org/dc/dcmitype/StillImage" /></cc:Work></rdf:RDF></metadata><defs
   id="defs792">
	
	
	
	

	
		
	

	
		
	

	
		
	

	
		
	

	
	
	
	
	

	
	
	
	
	
	

	
	
	

	
	
	
	
	
	
	

	

	

	
	
	

	
	
	

	
	

	
	

	
		
	

	
	

	
	

	
	

	
	

	
	

	
	

	
	

	
	

	
	

	
	

	
	

	
	

	
	

	
	

	
	
	
	
	
	
	
	
	
	
	
	

		
		
	
		
		
	
		
		
	
		
		
		
	
		
		
		
	
		
		
		
	
		
	</defs><sodipodi:namedview
   pagecolor="#ffffff"
   bordercolor="#666666"
   borderopacity="1"
   objecttolerance="10"
   gridtolerance="10"
   guidetolerance="10"
   inkscape:pageopacity="0"
   inkscape:pageshadow="2"
   inkscape:window-width="1680"
   inkscape:window-height="998"
   id="namedview790"
   showgrid="false"
   inkscape:zoom="0.62764323"
   inkscape:cx="409.34279"
   inkscape:cy="407.13535"
   inkscape:window-x="-8"
   inkscape:window-y="-8"
   inkscape:window-maximized="1"
   inkscape:current-layer="layer1" />





























<radialGradient
   id="SVGID_1_"
   cx="1825.0137"
   cy="3566.3301"
   r="616.4364"
   gradientUnits="userSpaceOnUse">
	<stop
   offset="0"
   style="stop-color:#F15A24"
   id="stop62" />
	<stop
   offset="1"
   style="stop-color:#874C39;stop-opacity:0"
   id="stop64" />
</radialGradient>

















































































































































































<g
   inkscape:groupmode="layer"
   id="layer5"
   inkscape:label="background"
   style="display:inline"><path
     d="m 274.45877,232.6556 c -3.8209,-5.32672 -8.6607,-9.08607 -15.1853,-10.51329 -4.3888,-0.95972 -8.846,-0.91171 -13.2799,-1.34574 -3.9349,-0.5868 -7.7879,-1.15807 -11.8339,-0.99901 -4.3849,0.17265 -8.7388,0.75896 -13.1315,0.79824 -9.1903,0.0815 -18.2177,1.96405 -27.282,3.30689 -8.0691,0.91947 -16.2294,0.81084 -24.3407,0.78126 -8.8189,-0.032 -17.6358,-0.20271 -26.4547,-0.20902 -0.8865,-4.8e-4 -1.754,0.0902 -2.5969,0.258 -0.3249,-0.14112 -0.6513,-0.27982 -0.9762,-0.42094 -4.4043,-1.9146 -8.7393,-4.69677 -13.5016,-5.54204 -5.9261,-1.05186 -11.5903,-0.0441 -17.4199,0.85982 -1.16,0.11105 -2.3142,0.16973 -3.4776,0.14306 -0.2027,-0.0495 -0.405,-0.0921 -0.6091,-0.14791 -7.134695,-1.95581 -14.740195,2.34669 -16.703195,9.48422 -1.9607,7.12783 2.35,14.74789 9.4842,16.70322 6.932395,1.90004 13.547095,0.73276 20.411595,-0.30455 0.9292,-0.0946 1.8569,-0.15664 2.7875,-0.15858 0.085,0.0238 0.1712,0.0456 0.2566,0.0708 0.1634,0.0815 0.3288,0.15907 0.4917,0.24248 1.7623,0.88455 3.5664,1.66096 5.3747,2.44707 4.8966,2.12846 9.814,4.22685 14.8304,6.05997 3.7996,1.3889 7.7093,2.55182 11.665,3.40436 4.3248,0.9316 8.7636,1.15613 13.1582,1.61005 0.775,0.13627 1.5461,0.29097 2.3152,0.47379 0.3996,0.095 0.7939,0.20853 1.1847,0.33171 0.3715,0.14549 0.8206,0.33171 1.0955,0.47962 3.4034,1.8307 6.641,3.61387 10.364,4.83207 5.8655,1.91992 13.099,2.26812 19.2579,1.72982 6.8514,-0.59891 12.9192,-2.62941 19.2279,-5.20693 5.0736,-2.07269 10.1263,-3.67109 15.5049,-4.55468 4.3432,-0.4898 8.6928,-0.84963 13.0302,-1.39327 -0.2968,0.0403 -0.5941,0.08 -0.8909,0.11979 7.4698,-0.77787 15.8362,-0.47914 22.3719,-4.76369 5.7365,-3.75887 9.3479,-12.33622 4.8713,-18.57659 z"
     id="path25"
     inkscape:connector-curvature="0"
     style="fill:#493f3a" /><path
     d="m 188.70847,238.37464 c -6.2272,-6.75684 -16.3264,-10.50116 -24.9469,-12.92204 -5.2952,-1.48687 -10.8639,-1.80306 -16.3177,-2.45774 -5.9048,-0.84819 -11.7994,-1.91896 -17.4917,-3.71668 -6.4455,-2.03535 -12.5215,-5.07648 -18.966,-7.12153 -14.298895,-4.53624 -29.686895,-4.37718 -44.534695,-4.79569 -14.8565,-0.41852 -29.7043,-1.11248 -44.5662,-1.31277 -7.2248,-0.0975 -14.4651004,-0.10184 -21.68700038,0.145 -5.70400002,0.19495 -11.42599962,0.58388 -17.11639962,0.0781 -6.0197,-1.128 -11.7878,-3.46935 -17.6091,-5.30247 -3.3491,-1.05478 -6.7743,-1.73662 -10.1661,-2.60759 -3.7016,-0.95051 -7.5784,-1.06932 -11.3901,-1.41073 -2.1023,-0.45052 -4.1405,-1.15613 -6.268,-1.53197 -5.5692,-0.98348 -10.5758,-0.76477 -15.7377,1.7211 -5.9106,2.84619 -9.748,8.84069 -10.0302,15.32596 -0.4671,10.72763 10.2969,16.09412 19.0208,18.39958 10.8348,2.86365 22.0333,3.24142 33.1023,4.5057 v 10.24753 c 0,7.65691 -2.3646,16.51118 2.1615,23.37132 7.283,11.038 21.1056,10.77176 32.83709962,10.0002 6.18459998,-0.40687 12.43080038,-0.22162 18.62700038,-0.30018 7.9474,-0.10087 15.8875,-0.0548 23.8315,0.20562 3.6309,0.1193 7.2501,0.49319 10.8785,0.67699 4.0329,0.20465 7.9586,-0.14161 11.9662,-0.54024 7.8606,-0.78174 15.759,-1.15467 23.656,-1.28415 15.827395,-0.25945 31.654795,0.65614 47.421095,1.96891 6.8281,0.56836 13.6039,1.46213 20.4596,0.80744 8.2316,-0.78611 15.7227,-2.95384 23.0513,-6.84025 6.8761,-3.64636 12.6223,-8.45612 15.2973,-15.921 2.4762,-6.91057 -0.8385,-14.34974 -5.4824,-19.3884 z"
     id="path27"
     inkscape:connector-curvature="0"
     style="fill:#493f3a" /><path
     d="m -25.081325,216.59106 c -0.5713,-3.92084 -4.047,-7.58563 -7.1836,-9.61031 -1.2226,-0.78901 -2.5737,-1.26184 -3.9301,-1.8079 -1.2657,-0.60716 -2.5043,-1.27252 -3.7996,-1.82876 -2.3496,-1.00773 -4.7137,-1.9723 -7.0793,-2.94026 3.7399,1.53051 1.0353,0.42336 0.2584,0.065 -0.9703,-0.4481 -1.9034,-0.96409 -2.8243,-1.50529 -2.885,-1.69394 -5.6478,-3.34666 -8.7049,-4.74187 -3.3263,-1.51838 -6.4489,-3.16625 -9.5424,-5.11479 -6.3752,-4.01589 -13.8091,-6.70835 -21.1643,-8.25341 -7.4809,-1.57125 -15.200405,-2.15367 -22.832105,-2.27443 -6.8441,-0.10863 -13.7959,-0.10281 -20.6221,0.41658 -10.6738,0.81229 -20.7584,3.11145 -30.5855,7.29659 -1.8108,0.77108 -3.6056,1.57804 -5.4023,2.38112 -0.3031,0.1353 -1.0374,0.44907 -1.6115,0.69494 -0.7328,0.28854 -1.469,0.56788 -2.21,0.83605 -3.6628,1.32538 -7.4954,2.21333 -11.342,2.83843 -4.4912,0.47768 -9.0022,0.55236 -13.5016,0.11445 -6.0212,-0.99852 -11.9206,-2.55618 -18.0781,-2.77441 -6.8858,-0.24393 -13.7566,-0.78078 -20.6492,-0.83024 -6.753,-0.0485 -13.5433,0.55284 -20.2798,0.98445 -7.4726,0.47914 -15.0767,1.29192 -22.2777,3.41795 -6.9543,2.05329 -13.5661,5.22973 -20.2114,8.09677 -1.4655,0.6057 -2.9412,1.19346 -4.3864,1.84282 -1.4767,0.66293 -2.9121,1.40248 -4.352,2.14009 -0.4907,0.25121 -0.9835,0.49659 -1.4791,0.73713 -0.099,0.049 -0.1838,0.0912 -0.2614,0.12997 l -1.2298,0.5189 c 0.2163,-0.098 -0.034,-0.006 -0.7604,0.27884 -0.8031,0.30843 -1.6207,0.57952 -2.4354,0.85255 -12.021,4.02802 -24.7506,6.88875 -37.2997,8.8596 -0.9238,0.0863 -1.8481,0.145 -2.7826,0.16149 -7.3994,0.13045 -13.5787,6.07791 -13.5787,13.57867 0,3.07605 1.0989,5.99062 2.9199,8.32712 -0.6755,1.18134 -1.1978,2.40973 -1.5223,3.5581 -0.9602,3.40194 -0.5509,6.03135 0.028,9.4362 0.5838,3.43444 1.5891,6.88439 2.4524,10.25917 2.9436,11.50938 11.5622,21.56245 24.2156,21.79862 7.3882,0.13773 13.9952,-5.2724 15.7027,-12.37162 0.1383,-0.57419 0.2396,-1.14352 0.3191,-1.71092 2.9146,4.6473 7.5304,7.45809 12.6321,9.22623 1.9893,0.68911 4.0736,0.97669 6.1666,0.92771 3.0194,4.44992 8.3466,8.08707 13.2688,9.31836 4.5435,1.13625 9.1559,0.66342 13.3896,-1.0698 0.7933,0.35644 1.5964,0.69881 2.4058,1.03634 7.171,2.99264 15.5258,2.28267 22.9926,1.19201 5.8087,-0.84818 11.281,-2.99506 16.5761,-5.45765 1.7595,-0.8186 3.4859,-1.76717 5.1667,-2.80545 2.7449,-0.0572 5.56,-0.83751 8.445,-2.18277 2.7259,-1.27155 5.0231,-3.51542 7.2791,-5.4693 0.6193,-0.53636 1.2173,-1.1052 1.8031,-1.68957 0.903,0.39184 1.8098,0.75119 2.6987,1.08678 4.5222,1.70654 9.2665,1.24341 13.8959,0.58873 3.4655,-0.4898 6.4901,-1.9272 9.088,-3.95479 6.6191,4.1027 14.8963,5.14729 22.7423,3.72541 8.8126,8.6981 23.7564,7.96728 34.6087,4.27097 4.0222,-1.36999 7.719,-3.126 11.1728,-5.35242 1.2153,0.14646 2.4451,0.24587 3.6779,0.28806 3.5231,3.76905 8.006,6.55608 13.325,7.5027 7.729705,1.37581 15.214405,-0.33316 21.395105,-4.7632 1.9408,0.66778 3.9505,0.96457 5.8345,0.72209 3.0276,-0.3899 5.8437,-0.84381 8.428,-2.63959 0.1319,-0.0917 0.2536,-0.18331 0.3821,-0.27449 1.1964,0.60814 2.498,1.03829 3.8932,1.25215 1.0839,2.93542 3.1818,5.45184 5.8908,7.03909 6.5652,3.84616 14.6155,1.36272 18.578,-4.87135 2.321,-3.65121 3.3064,-7.88533 3.53,-12.28821 0.074,-0.30795 0.1484,-0.61589 0.2148,-0.92287 0.8652,-3.98146 1.6125,-7.98862 2.3569,-11.99384 1.2604,-6.77722 2.077,-13.95209 4.349,-20.47664 0.7687,-2.20799 1.5354,-4.43198 1.8559,-6.75636 0.5529,-3.99116 0.5708,-5.01053 -0.02,-9.0657 z m -227.070305,29.69461 c 0.021,-0.0189 0.043,-0.0373 0.063,-0.0558 0.015,0.0155 0.2677,-0.1547 0.6207,-0.40008 -0.01,0.20901 -0.02,0.41754 -0.033,0.62656 -0.2565,0.14936 -0.514,0.29824 -0.7739,0.44276 0.041,-0.20465 0.082,-0.40882 0.1222,-0.61347 z m 119.3817,-39.83691 c -0.2027,-0.0102 -0.4049,-0.0247 -0.6081,-0.031 -0.097,-0.0465 -0.196,-0.0902 -0.2929,-0.13578 0.3792,-0.0335 0.7589,-0.0655 1.1396,-0.095 -0.08,0.0868 -0.1596,0.17361 -0.2386,0.26187 z"
     id="path35"
     inkscape:connector-curvature="0"
     style="fill:#493f3a" /><rect
     style="fill:#493f3a"
     id="rect740"
     height="15.588028"
     width="1.8815813"
     transform="matrix(0.9994184,0.03410062,-0.03410062,0.9994184,0,0)"
     y="186.30962"
     x="-216.48134" /><circle
     style="fill:#493f3a"
     sodipodi:ry="15.382"
     sodipodi:rx="15.382"
     sodipodi:cy="-470.457"
     sodipodi:cx="653.36603"
     d="m 668.74803,-470.457 c 0,8.49524 -6.88676,15.382 -15.382,15.382 -8.49525,0 -15.382,-6.88676 -15.382,-15.382 0,-8.49524 6.88675,-15.382 15.382,-15.382 8.49524,0 15.382,6.88676 15.382,15.382 z"
     id="circle742"
     r="15.382"
     cy="-470.457"
     cx="653.36603"
     transform="matrix(0.48495255,0,0,0.48495255,-538.40753,404.92723)" /><rect
     style="fill:#493f3a"
     id="rect746"
     height="15.588028"
     width="1.8815813"
     transform="matrix(0.9994184,0.03410062,-0.03410062,0.9994184,0,0)"
     y="186.92976"
     x="-234.65569" /><circle
     style="fill:#493f3a"
     sodipodi:ry="15.382"
     sodipodi:rx="15.382"
     sodipodi:cy="-470.457"
     sodipodi:cx="615.867"
     d="m 631.249,-470.457 c 0,8.49524 -6.88675,15.382 -15.382,15.382 -8.49524,0 -15.382,-6.88676 -15.382,-15.382 0,-8.49524 6.88676,-15.382 15.382,-15.382 8.49525,0 15.382,6.88676 15.382,15.382 z"
     id="circle748"
     r="15.382"
     cy="-470.457"
     cx="615.867"
     transform="matrix(0.48495255,0,0,0.48495255,-538.40753,404.92723)" /><rect
     style="fill:#493f3a"
     id="rect752"
     height="15.588028"
     width="1.8815813"
     transform="matrix(0.9994184,0.03410062,-0.03410062,0.9994184,0,0)"
     y="174.34808"
     x="-136.10374" /><circle
     style="fill:#493f3a"
     sodipodi:ry="15.382"
     sodipodi:rx="15.382"
     sodipodi:cy="-489.45599"
     sodipodi:cx="819.85699"
     d="m 835.23899,-489.45599 c 0,8.49524 -6.88675,15.382 -15.382,15.382 -8.49524,0 -15.382,-6.88676 -15.382,-15.382 0,-8.49525 6.88676,-15.382 15.382,-15.382 8.49525,0 15.382,6.88675 15.382,15.382 z"
     id="circle754"
     r="15.382"
     cy="-489.45599"
     cx="819.85699"
     transform="matrix(0.48495255,0,0,0.48495255,-538.40753,404.92723)" /><rect
     style="fill:#493f3a"
     id="rect758"
     height="15.588028"
     width="1.8815813"
     transform="matrix(0.9994184,0.03410062,-0.03410062,0.9994184,0,0)"
     y="194.2462"
     x="105.47828" /><circle
     style="fill:#493f3a"
     sodipodi:ry="15.382"
     sodipodi:rx="15.382"
     sodipodi:cy="-431.45901"
     sodipodi:cx="1316.333"
     d="m 1331.715,-431.45901 c 0,8.49524 -6.8867,15.382 -15.382,15.382 -8.4952,0 -15.382,-6.88676 -15.382,-15.382 0,-8.49525 6.8868,-15.382 15.382,-15.382 8.4953,0 15.382,6.88675 15.382,15.382 z"
     id="circle760"
     r="15.382"
     cy="-431.45901"
     cx="1316.333"
     transform="matrix(0.48495255,0,0,0.48495255,-538.40753,404.92723)" /></g><g
   inkscape:groupmode="layer"
   id="layer4"
   inkscape:label="midground"
   style="display:inline"><rect
     x="441.68155"
     y="277.3847"
     width="199.80045"
     height="246.3559"
     id="rect23"
     style="fill:#303030" /><rect
     x="174.7953"
     y="419.64264"
     width="1239.0916"
     height="624.21008"
     id="rect3"
     style="fill:#303030" /><rect
     x="113.8008"
     y="416.81488"
     width="797.04034"
     height="77.350899"
     id="rect55"
     style="fill:#303030" /><polyline
     points="3336.941,1156.548 3378.939,1158.047 3416.438,1176.047 3458.436,1183.546 3498.934,1177.547   3578.43,1128.049 3641.427,1111.55 "
     id="polyline788"
     transform="matrix(0.48495255,0,0,0.48495255,-538.40753,404.92723)"
     style="fill:#303030" /><path
     d="m 691.96897,131.44454 c -5.284,-9.02011 -17.1755,-12.1175 -26.2088,-6.87177 -12.988,7.54246 -21.8762,20.44996 -27.5496,34.03251 0.6435,-1.52566 1.287,-3.05083 1.9306,-4.57601 -1.8841,4.16526 -4.5625,7.83198 -7.3408,11.43809 0.6576,-0.85158 1.3157,-1.70315 1.9738,-2.55473 -1.9262,2.50187 -3.723,4.93245 -5.287,7.69911 -0.4291,0.75895 -0.867,1.51208 -1.3137,2.26036 -2.3355,1.07078 -4.4824,2.58625 -6.0566,4.16089 -3.576,3.57604 -5.6104,8.48473 -5.6104,13.54521 0,5.06048 2.0344,9.96917 5.6104,13.54521 3.9306,3.93054 8.2447,4.95428 13.5452,5.61042 4.1478,0.51356 9.7777,-1.31665 13.1733,-3.63811 4.5823,-3.1328 6.7956,-5.88393 10.0972,-10.29943 2.2138,-2.96063 3.6856,-6.37761 5.754,-9.42408 1.642,-2.11536 3.2651,-4.24576 4.7937,-6.44356 1.965,-2.82485 3.3845,-5.79131 4.7201,-8.8887 -0.2202,0.52132 -0.4404,1.04265 -0.6601,1.56397 1.5553,-3.25112 3.3758,-6.34463 5.4436,-9.2849 1.4195,-1.66921 2.9335,-3.2453 4.5668,-4.70549 0.5058,-0.3322 1.0189,-0.65469 1.5461,-0.96021 9.0147,-5.23506 12.1373,-17.22067 6.8722,-26.20878 z"
     id="path19"
     inkscape:connector-curvature="0"
     style="fill:#303030" /><path
     d="m 723.89437,215.70893 c -0.6091,-2.98537 -1.2531,-5.97559 -1.9417,-8.94592 -0.3628,-1.56688 -0.7871,-3.17159 -1.2832,-4.78212 0.8346,-2.05183 1.289,-4.26079 1.2788,-6.55316 -0.024,-5.23943 -0.9272,-10.51668 -1.7589,-15.67609 -0.7672,-4.75787 -1.9132,-9.51962 -3.8413,-14.00301 -3.3477,-7.78543 -7.6492,-14.97145 -15.8517,-19.35736 -6.3781,-3.41067 -12.9773,-3.66818 -20.0547,-2.62069 -5.0139,0.74198 -9.0046,3.40534 -12.8241,6.22631 -0.077,0.0456 -0.1528,0.0941 -0.2308,0.13918 -3.2313,0.99173 -6.3587,2.02807 -9.574,3.31271 -4.2962,1.71673 -7.9542,4.7506 -11.4802,7.52986 -4.5746,3.60562 -8.5391,7.79222 -13.1777,11.32607 -16.9781,11.58842 -35.5019,21.54207 -54.3326,30.3042 -9.9275,4.61965 -19.9878,8.9949 -29.9545,13.54181 -8.9993,4.10512 -17.695,8.88724 -26.8446,12.71061 -7.5041,2.63377 -15.179,4.23654 -23.139,5.45911 -8.8082,1.35302 -17.5563,3.27246 -26.3688,4.58813 -4.7016,0.41318 -9.4226,0.47477 -14.1509,0.45489 -5.3985,-0.0218 -10.7199,-0.065 -16.0738,-0.61492 -4.0319,-0.52714 -8.0672,-1.05041 -12.1262,-1.35253 -5.3781,-0.40057 -10.7829,0.21677 -16.0631,1.14837 -6.9843,1.23226 -12.7785,7.33248 -14.5927,13.37887 -0.9956,3.39466 -0.9956,6.78933 0,10.18448 1.5562,5.18609 5.0275,8.38386 9.6016,11.44779 5.8451,3.916 11.8764,7.62443 18.4248,10.48468 4.3592,1.90344 8.8984,3.7191 13.6135,4.75205 5.2885,1.15855 10.9275,1.54409 16.3638,1.79917 7.494,0.35208 15.017,-0.0655 22.4936,-0.58824 2.3122,0.98202 4.6429,1.92574 7.0439,2.73076 5.3975,1.80936 11.5288,2.24 17.2211,2.41992 9.4634,0.2997 18.9607,-1.24633 28.3305,-2.51109 4.7234,-0.47719 9.5181,-0.67942 14.1213,-1.7885 4.2763,-1.03053 7.962,-2.99749 11.6297,-5.06048 1.2288,1.11684 2.6158,2.07268 4.1516,2.79478 8.4484,3.97176 16.7324,3.69825 25.6691,2.19877 17.208,-1.72934 34.4796,-2.75259 51.5504,-5.53282 16.3012,-2.65512 32.2193,-7.28156 47.3765,-13.36044 7.3116,-2.93251 14.2411,-7.1482 19.8627,-12.34786 2.8811,-2.6653 5.6778,-5.79422 7.782,-8.96096 1.6231,-2.44319 2.4296,-4.6536 2.9219,-7.058 1.224,-1.13673 2.2589,-2.41506 3.7671,-4.33499 2.7753,-3.53239 3.5707,-9.03515 3.8267,-13.16258 0.2134,-3.42861 -0.6808,-6.96489 -1.3661,-10.32076 z"
     id="path21"
     inkscape:connector-curvature="0"
     style="fill:#303030" /><path
     d="m 456.80147,253.07307 c -3.58,-6.23698 -10.4367,-9.13893 -17.1354,-10.65829 -2.0668,-0.46895 -4.1623,-0.79726 -6.236,-1.22935 -3.1861,-0.66487 -6.3363,-2.05717 -9.3857,-3.17984 -13.568,-4.99598 -26.7132,-11.06516 -40.3418,-15.90547 -14.1111,-5.0115 -29.1786,-7.45615 -44.1088,-8.11035 -6.9344,-0.30358 -13.8867,-0.0708 -20.7982,0.53054 -7.5051,0.65275 -14.8672,2.0625 -22.2981,3.1585 -7.7471,0.88116 -15.7455,1.06204 -23.204,3.40145 -4.2089,1.32004 -8.252,3.20651 -12.2887,4.96349 -0.3327,0.14452 -0.6654,0.28855 -0.9981,0.43307 -0.4117,0.17458 -1.1871,0.50483 -1.5149,0.63625 -1.9699,0.79339 -3.95,1.56349 -5.93,2.3302 -7.9804,3.0906 -16.1703,5.55368 -24.0474,8.89403 -3.5464,1.50432 -7.009,3.19778 -10.3688,5.08182 -0.9999,0.5606 -1.9587,1.16728 -2.9053,1.80305 -3.7089,0.30116 -7.398,0.83315 -11.0133,1.7211 -6.8475,1.6823 -13.2916,5.1565 -19.4349,8.54195 -10.8945,6.00372 -21.0775,13.21011 -31.2363,20.3588 -5.0367,3.54403 -7.9595,9.08364 -6.2404,15.33468 0.934,3.39418 3.2046,6.33687 6.2404,8.1152 3.4155,2.00091 6.6977,1.96502 10.4628,1.36902 6.7787,-1.0732 12.8658,-4.37088 19.3981,-6.30439 3.5038,-1.03731 7.0357,-2.07074 10.475,-3.30543 1.5509,-0.55673 3.0916,-1.23227 4.5993,-1.88404 -2.8161,1.22062 -0.1023,0.16973 0.5776,-0.0645 1.6988,-0.58582 3.4019,-1.15855 5.1027,-1.73759 7.5861,-2.58237 14.9797,-5.54931 22.1584,-9.1171 1.5509,-0.77059 3.111,-1.52179 4.6808,-2.25212 0.3074,-0.14258 0.6183,-0.27594 0.9277,-0.41464 0.4141,-0.17361 1.0698,-0.44907 1.3811,-0.56933 2.982,-1.15371 6.0566,-2.02517 9.1981,-2.59062 6.4523,-0.67069 12.9613,-0.82636 19.4151,-1.48735 7.9566,-0.8152 15.6872,-2.6493 23.5672,-3.85198 10.0681,-1.2376 20.2066,-1.67696 30.3227,-2.35832 11.0515,-0.7444 21.9019,-2.51448 32.8424,-4.07166 5.5052,-0.67215 10.892,-0.89959 16.4103,-0.32056 9.831,1.56107 19.5329,4.28116 29.1767,6.66859 11.6733,2.89031 23.2263,5.13904 35.1513,6.72095 -1.2032,-0.16149 -2.4063,-0.32346 -3.6095,-0.48495 3.9892,0.55576 7.9775,1.25215 12.005,1.44273 5.045,0.2386 9.5977,-0.96263 14.1305,-3.02852 6.7777,-3.08964 8.2699,-12.65872 4.8724,-18.57902 z"
     id="path33"
     inkscape:connector-curvature="0"
     style="fill:#303030" /><path
     d="m 517.48017,275.09331 c -5.5212,-4.51006 -13.8687,-7.18215 -21.5111,-8.89646 -6.5201,-1.46261 -13.2615,-2.31273 -19.9378,-3.25645 -8.4556,-1.38842 -16.6644,-3.48487 -25.1196,-4.92033 -9.9856,-1.69588 -20.06,-3.0295 -30.0181,-4.83013 -11.0811,-2.00382 -21.6322,-4.66233 -33.0941,-4.96058 -4.8801,-0.12657 -9.7446,0.12948 -14.6218,0.003 -5.4402,-0.14063 -10.8775,-0.44324 -16.3104,-0.75119 -10.3552,-0.58776 -20.7089,-1.23372 -31.0772,-1.15952 -11.7524,0.0849 -22.8408,1.58143 -34.3206,2.94269 -20.5048,2.43155 -41.4314,2.86898 -61.5419,6.8034 -6.9722,1.36417 -13.4943,3.49117 -19.8695,5.89896 -2.5368,0.95778 -5.0726,1.9112 -7.6652,2.78703 -0.6401,0.21677 -1.287,0.41996 -1.9378,0.61783 0.7628,-0.25412 -2.0344,0.45537 -2.9306,0.62316 -6.0449,1.13139 -11.9439,2.49508 -17.9214,3.77099 -5.5338,1.18037 -11.2936,1.75504 -17.0553,2.10857 -11.7121,0.46701 -23.4824,0.42919 -35.1019,1.6018 -10.1059,1.01986 -19.7739,3.5969 -29.890495,4.48242 -9.9241,0.17555 -19.8578,-1.00191 -29.7688,-1.531 -9.9377,-0.53053 -18.5456,5.26853 -18.9185,12.63981 -0.3744,7.41395 7.6099,13.95257 17.5475,14.48262 14.1034,0.75362 27.9183,2.3525 41.970695,0.81666 5.898,-0.6445 11.6117,-1.9529 17.4001,-2.94027 3.0368,-0.51793 6.1196,-0.91898 9.2238,-1.2376 0.7381,1.04556 1.6469,2.04214 2.7085,2.98343 6.8684,6.08955 18.2449,7.72918 28.1917,8.05264 7.7011,0.25072 15.3973,-0.27836 23.0571,-0.70658 29.4075,-1.27639 59.2937,0.51987 88.7681,1.27203 15.7091,0.40057 31.4114,1.13188 47.1093,1.91169 6.6317,0.32928 13.2596,0.76622 19.8918,1.08096 9.1525,0.43354 17.7638,-0.31425 26.1903,-2.79527 3.1973,-0.94129 5.6682,-2.77926 7.3102,-5.03817 10.9003,0.98203 21.7593,2.20314 32.5025,3.77438 4.2802,0.67457 8.5657,1.39133 12.8575,2.11634 4.3986,3.36945 10.6642,4.55661 17.1334,4.04644 1.7759,-0.14015 3.5542,-0.26818 5.3335,-0.38408 13.4613,2.00285 26.9983,3.46935 40.6405,3.31756 3.8209,0.62025 7.7447,0.69396 11.3445,0.0975 10.0783,-1.67066 15.9055,-7.6831 19.3622,-14.45789 0.902,-1.76862 1.4331,-3.60465 2.4476,-5.34223 0.9393,-1.61005 2.0135,-3.16965 2.866,-4.80976 3.5363,-6.80583 1.5102,-14.69504 -5.2447,-20.21428 z"
     id="path37"
     inkscape:connector-curvature="0"
     style="fill:#303030" /><circle
     style="fill:#4d4d4d"
     sodipodi:ry="8.5089998"
     sodipodi:rx="8.5089998"
     sodipodi:cy="-348.931"
     sodipodi:cx="1763.5"
     d="m 1772.009,-348.931 c 0,4.69939 -3.8096,8.509 -8.509,8.509 -4.6994,0 -8.509,-3.80961 -8.509,-8.509 0,-4.69939 3.8096,-8.509 8.509,-8.509 4.6994,0 8.509,3.80961 8.509,8.509 z"
     id="circle466"
     r="8.5089998"
     cy="-348.931"
     cx="1763.5"
     transform="matrix(0.48495255,0,0,0.48495255,-538.40753,404.92723)" /><rect
     style="fill:#4d4d4d"
     id="rect468"
     height="8.329545"
     width="8.2529221"
     y="235.71225"
     x="312.67981" /><circle
     style="fill:#4d4d4d"
     sodipodi:ry="8.5089998"
     sodipodi:rx="8.5089998"
     sodipodi:cy="-349.009"
     sodipodi:cx="1798.5"
     d="m 1807.009,-349.009 c 0,4.69939 -3.8096,8.509 -8.509,8.509 -4.6994,0 -8.509,-3.80961 -8.509,-8.509 0,-4.69939 3.8096,-8.509 8.509,-8.509 4.6994,0 8.509,3.80961 8.509,8.509 z"
     id="circle472"
     r="8.5089998"
     cy="-349.009"
     cx="1798.5"
     transform="matrix(0.48495255,0,0,0.48495255,-538.40753,404.92723)" /><rect
     style="fill:#4d4d4d"
     id="rect474"
     height="8.329545"
     width="8.2529221"
     y="235.67442"
     x="329.65317" /><circle
     style="fill:#4d4d4d"
     sodipodi:ry="8.5089998"
     sodipodi:rx="8.5089998"
     sodipodi:cy="-351.509"
     sodipodi:cx="1703.75"
     d="m 1712.259,-351.509 c 0,4.69939 -3.8096,8.509 -8.509,8.509 -4.6994,0 -8.509,-3.80961 -8.509,-8.509 0,-4.69939 3.8096,-8.509 8.509,-8.509 4.6994,0 8.509,3.80961 8.509,8.509 z"
     id="circle478"
     r="8.5089998"
     cy="-351.509"
     cx="1703.75"
     transform="matrix(0.48495255,0,0,0.48495255,-538.40753,404.92723)" /><rect
     style="fill:#4d4d4d"
     id="rect480"
     height="8.329545"
     width="8.2529221"
     y="234.46204"
     x="283.70389" /><circle
     style="fill:#4d4d4d"
     sodipodi:ry="8.5089998"
     sodipodi:rx="8.5089998"
     sodipodi:cy="-323.41299"
     sodipodi:cx="1615"
     d="m 1623.509,-323.41299 c 0,4.69939 -3.8096,8.509 -8.509,8.509 -4.6994,0 -8.509,-3.80961 -8.509,-8.509 0,-4.6994 3.8096,-8.509 8.509,-8.509 4.6994,0 8.509,3.8096 8.509,8.509 z"
     id="circle484"
     r="8.5089998"
     cy="-323.41299"
     cx="1615"
     transform="matrix(0.48495255,0,0,0.48495255,-538.40753,404.92723)" /><rect
     style="fill:#4d4d4d"
     id="rect486"
     height="8.329545"
     width="8.2529221"
     y="248.08728"
     x="240.66437" /><circle
     style="fill:#4d4d4d"
     sodipodi:ry="8.5089998"
     sodipodi:rx="8.5089998"
     sodipodi:cy="-322.246"
     sodipodi:cx="1652.5"
     d="m 1661.009,-322.246 c 0,4.69939 -3.8096,8.509 -8.509,8.509 -4.6994,0 -8.509,-3.80961 -8.509,-8.509 0,-4.69939 3.8096,-8.509 8.509,-8.509 4.6994,0 8.509,3.80961 8.509,8.509 z"
     id="circle490"
     r="8.5089998"
     cy="-322.246"
     cx="1652.5"
     transform="matrix(0.48495255,0,0,0.48495255,-538.40753,404.92723)" /><rect
     style="fill:#4d4d4d"
     id="rect492"
     height="8.329545"
     width="8.2529221"
     y="248.65321"
     x="258.85007" /><circle
     style="fill:#4d4d4d"
     sodipodi:ry="8.5089998"
     sodipodi:rx="8.5089998"
     sodipodi:cy="-317.992"
     sodipodi:cx="1688"
     d="m 1696.509,-317.992 c 0,4.69939 -3.8096,8.509 -8.509,8.509 -4.6994,0 -8.509,-3.80961 -8.509,-8.509 0,-4.6994 3.8096,-8.509 8.509,-8.509 4.6994,0 8.509,3.8096 8.509,8.509 z"
     id="circle496"
     r="8.5089998"
     cy="-317.992"
     cx="1688"
     transform="matrix(0.48495255,0,0,0.48495255,-538.40753,404.92723)" /><rect
     style="fill:#4d4d4d"
     id="rect498"
     height="8.329545"
     width="8.2529221"
     y="250.7162"
     x="276.06589" /><circle
     style="fill:#4d4d4d"
     sodipodi:ry="8.5089998"
     sodipodi:rx="8.5089998"
     sodipodi:cy="-313.737"
     sodipodi:cx="1719.5"
     d="m 1728.009,-313.737 c 0,4.69939 -3.8096,8.509 -8.509,8.509 -4.6994,0 -8.509,-3.80961 -8.509,-8.509 0,-4.69939 3.8096,-8.509 8.509,-8.509 4.6994,0 8.509,3.80961 8.509,8.509 z"
     id="circle502"
     r="8.5089998"
     cy="-313.737"
     cx="1719.5"
     transform="matrix(0.48495255,0,0,0.48495255,-538.40753,404.92723)" /><rect
     style="fill:#4d4d4d"
     id="rect504"
     height="8.329545"
     width="8.2529221"
     y="252.77968"
     x="291.34189" /><circle
     style="fill:#4d4d4d"
     sodipodi:ry="8.5089998"
     sodipodi:rx="8.5089998"
     sodipodi:cy="-314.90399"
     sodipodi:cx="1781.4821"
     d="m 1789.9911,-314.90399 c 0,4.69939 -3.8097,8.509 -8.509,8.509 -4.6994,0 -8.509,-3.80961 -8.509,-8.509 0,-4.69939 3.8096,-8.509 8.509,-8.509 4.6993,0 8.509,3.80961 8.509,8.509 z"
     id="circle508"
     r="8.5089998"
     cy="-314.90399"
     cx="1781.4821"
     transform="matrix(0.48495255,0,0,0.48495255,-538.40753,404.92723)" /><rect
     style="fill:#4d4d4d"
     id="rect510"
     height="8.329545"
     width="8.2529221"
     y="252.21373"
     x="321.40073" /><circle
     style="fill:#4d4d4d"
     sodipodi:ry="8.5089998"
     sodipodi:rx="8.5089998"
     sodipodi:cy="-322.32501"
     sodipodi:cx="1835.4821"
     d="m 1843.9911,-322.32501 c 0,4.69939 -3.8097,8.509 -8.509,8.509 -4.6994,0 -8.509,-3.80961 -8.509,-8.509 0,-4.69939 3.8096,-8.509 8.509,-8.509 4.6993,0 8.509,3.80961 8.509,8.509 z"
     id="circle514"
     r="8.5089998"
     cy="-322.32501"
     cx="1835.4821"
     transform="matrix(0.48495255,0,0,0.48495255,-538.40753,404.92723)" /><rect
     style="fill:#4d4d4d"
     id="rect516"
     height="8.329545"
     width="8.2529221"
     y="248.6149"
     x="347.58817" /><circle
     style="fill:#4d4d4d"
     sodipodi:ry="8.5089998"
     sodipodi:rx="8.5089998"
     sodipodi:cy="-398.332"
     sodipodi:cx="1746.4821"
     d="m 1754.9911,-398.332 c 0,4.69939 -3.8097,8.509 -8.509,8.509 -4.6994,0 -8.509,-3.80961 -8.509,-8.509 0,-4.69939 3.8096,-8.509 8.509,-8.509 4.6993,0 8.509,3.80961 8.509,8.509 z"
     id="circle520"
     r="8.5089998"
     cy="-398.332"
     cx="1746.4821"
     transform="matrix(0.48495255,0,0,0.48495255,-538.40753,404.92723)" /><rect
     style="fill:#4d4d4d"
     id="rect522"
     height="8.329545"
     width="8.2529221"
     y="211.75511"
     x="304.4274" /><circle
     style="fill:#4d4d4d"
     sodipodi:ry="8.5089998"
     sodipodi:rx="8.5089998"
     sodipodi:cy="-398.332"
     sodipodi:cx="1709.04"
     d="m 1717.549,-398.332 c 0,4.69939 -3.8096,8.509 -8.509,8.509 -4.6994,0 -8.509,-3.80961 -8.509,-8.509 0,-4.69939 3.8096,-8.509 8.509,-8.509 4.6994,0 8.509,3.80961 8.509,8.509 z"
     id="circle526"
     r="8.5089998"
     cy="-398.332"
     cx="1709.04"
     transform="matrix(0.48495255,0,0,0.48495255,-538.40753,404.92723)" /><rect
     style="fill:#4d4d4d"
     id="rect528"
     height="8.329545"
     width="8.2529221"
     y="211.75511"
     x="286.26932" /><circle
     style="fill:#4d4d4d"
     sodipodi:ry="8.5089998"
     sodipodi:rx="8.5089998"
     sodipodi:cy="-390.80099"
     sodipodi:cx="1676.464"
     d="m 1684.973,-390.80099 c 0,4.69939 -3.8096,8.50899 -8.509,8.50899 -4.6994,0 -8.509,-3.8096 -8.509,-8.50899 0,-4.6994 3.8096,-8.509 8.509,-8.509 4.6994,0 8.509,3.8096 8.509,8.509 z"
     id="circle532"
     r="8.5089998"
     cy="-390.80099"
     cx="1676.464"
     transform="matrix(0.48495255,0,0,0.48495255,-538.40753,404.92723)" /><rect
     style="fill:#4d4d4d"
     id="rect534"
     height="8.329545"
     width="8.2529221"
     y="215.40729"
     x="270.47147" /><circle
     style="fill:#4d4d4d"
     sodipodi:ry="8.5089998"
     sodipodi:rx="8.5089998"
     sodipodi:cy="-365.30099"
     sodipodi:cx="1636.9821"
     d="m 1645.4911,-365.30099 c 0,4.69939 -3.8097,8.50899 -8.509,8.50899 -4.6994,0 -8.509,-3.8096 -8.509,-8.50899 0,-4.6994 3.8096,-8.509 8.509,-8.509 4.6993,0 8.509,3.8096 8.509,8.509 z"
     id="circle538"
     r="8.5089998"
     cy="-365.30099"
     cx="1636.9821"
     transform="matrix(0.48495255,0,0,0.48495255,-538.40753,404.92723)" /><rect
     style="fill:#4d4d4d"
     id="rect540"
     height="8.329545"
     width="8.2529221"
     y="227.77357"
     x="251.32509" /><circle
     style="fill:#4d4d4d"
     sodipodi:ry="8.5089998"
     sodipodi:rx="8.5089998"
     sodipodi:cy="-351.509"
     sodipodi:cx="1734.3879"
     d="m 1742.8969,-351.509 c 0,4.69939 -3.8096,8.509 -8.509,8.509 -4.6994,0 -8.509,-3.80961 -8.509,-8.509 0,-4.69939 3.8096,-8.509 8.509,-8.509 4.6994,0 8.509,3.80961 8.509,8.509 z"
     id="circle544"
     r="8.5089998"
     cy="-351.509"
     cx="1734.3879"
     transform="matrix(0.48495255,0,0,0.48495255,-538.40753,404.92723)" /><rect
     style="fill:#4d4d4d"
     id="rect546"
     height="8.329545"
     width="8.2529221"
     y="234.46204"
     x="298.56192" /><rect
     style="fill:#303030"
     id="rect550"
     height="56.253651"
     width="6.7892337"
     transform="matrix(0.99941499,0.03420052,-0.03420052,0.99941499,0,0)"
     y="149.86823"
     x="332.43497" /><circle
     style="fill:#303030"
     sodipodi:ry="55.508999"
     sodipodi:rx="55.508999"
     sodipodi:cy="-517.89203"
     sodipodi:cx="1793.298"
     d="m 1848.807,-517.89203 c 0,30.65677 -24.8523,55.509 -55.509,55.509 -30.6568,0 -55.509,-24.85223 -55.509,-55.509 0,-30.65677 24.8522,-55.509 55.509,-55.509 30.6567,0 55.509,24.85223 55.509,55.509 z"
     id="circle552"
     r="55.508999"
     cy="-517.89203"
     cx="1793.298"
     transform="matrix(0.48495255,0,0,0.48495255,-538.40753,404.92723)" /><rect
     x="406.54471"
     y="100.98619"
     transform="matrix(0.96466221,0.26348968,-0.26348968,0.96466221,0,0)"
     width="2.4248576"
     height="14.32218"
     id="rect554"
     style="fill:#4d4d4d" /><path
     d="m -126.16483,288.83735 c -0.1756,-0.0146 -0.3512,-0.0344 -0.5267,-0.0499 -1.2909,-6.12059 -6.8238,-10.91337 -13.294,-10.861 -3.7007,0.0301 -7.3626,0.38602 -11.006,0.89377 -0.6814,-0.10912 -1.3787,-0.16634 -2.0872,-0.16634 h -25.6632 c 0.5155,-8.0279 -9.718,-15.69306 -17.2256,-12.60828 -3.5207,1.44661 -4.8378,2.26764 -7.8378,4.6119 -1.8893,1.47668 -3.3922,3.80348 -4.7496,5.66909 -0.036,0.0504 -0.066,0.10475 -0.1013,0.15567 -7.2685,0.24005 -13.2834,6.20158 -13.2834,13.56801 0,7.33781 6.1759,13.66353 13.5787,13.57867 1.3433,-0.0155 2.6832,-0.0941 4.0149,-0.23424 0.7575,0.56788 1.5329,1.10667 2.3579,1.59065 2.1352,1.2536 4.5372,2.13379 6.8863,2.90341 7.2364,2.36996 15.1009,2.01207 22.5716,1.49559 2.9946,-0.20707 5.963,-0.5897 8.9202,-1.05283 12.4298,2.81806 24.6361,6.59924 37.4447,7.66274 7.3868,0.61346 13.5786,-6.64094 13.5786,-13.57867 5e-4,-7.86496 -6.2049,-12.96618 -13.5781,-13.57819 z"
     id="path39"
     inkscape:connector-curvature="0"
     style="fill:#303030;display:inline" /><path
     d="m -302.23563,292.41824 h -32.0069 c -7.4023,0 -13.5786,6.17684 -13.5786,13.57867 0,7.40183 6.1763,13.57867 13.5786,13.57867 h 32.0069 c 7.4023,0 13.5787,-6.17684 13.5787,-13.57867 0,-7.40183 -6.1764,-13.57867 -13.5787,-13.57867 z"
     id="path29"
     inkscape:connector-curvature="0"
     style="fill:#303030;display:inline" /><path
     d="m 22.412475,277.86966 c -11.2553,-2.92329 -22.93150038,-3.39612 -34.4365,-4.77533 -3.4257,-0.50774 -6.8223,-1.14206 -10.1791,-2.014 -7.1594,-1.85931 -14.7203,2.27539 -16.7033,9.48421 -1.9407,7.05509 2.323,14.84343 9.4843,16.70322 11.2552,2.9233 22.9313996,3.39613 34.4368996,4.77533 3.4252,0.50775 6.8218004,1.14207 10.1787004,2.01401 7.1593,1.85931 14.7202,-2.2754 16.7032,-9.48422 1.9408,-7.0546 -2.3229,-14.84342 -9.4842,-16.70322 z"
     id="path31"
     inkscape:connector-curvature="0"
     style="fill:#303030;display:inline" /><path
     style="fill:#303030;display:inline"
     inkscape:connector-curvature="0"
     id="path344"
     d="m -12.965807,281.39284 c -2.6008,-9.45803 -12.625739,-15.06553 -22.059036,-12.52535 -0.955842,0.25751 -1.913138,0.47525 -2.877224,0.66584 -12.842028,1.03246 -25.773288,-2.05038 -38.639079,-1.89859 -15.918568,0.18719 -31.784274,1.78947 -47.709634,1.82875 -2.01158,0.005 -3.95236,0.35741 -5.77093,0.99222 v -42.42365 h -57.12693 v 51.32544 h 46.91965 c -1.24391,2.42621 -1.95388,5.15892 -1.95388,8.03905 0,9.75774 8.1569,17.95683 17.93258,17.93307 16.7265,-0.0412 33.393345,-1.73129 50.117903,-1.85204 16.423888,-0.11881 32.336151,4.36554 48.642196,-0.0252 9.433297,-2.54066 15.104817,-12.6786 12.524384,-22.05952 z" /><path
     style="fill:#303030;display:inline"
     inkscape:connector-curvature="0"
     id="path346"
     d="M -184.92998,245.17028 H -206.474 l -6.40913,6.40865 v 16.68528 c -4.43538,-0.62656 -9.1336,-0.93257 -13.45258,-0.46168 -5.32624,0.58049 -10.24172,2.30595 -15.40161,3.33939 -4.05324,0.28078 -8.10744,0.10765 -12.17522,-0.0398 -3.7836,-0.13724 -7.62443,0.20513 -11.41287,0.0272 -4.85777,-1.00967 -9.53708,-2.04214 -14.59126,-2.53243 -4.82721,-0.46846 -9.70972,-0.31764 -14.55148,-0.19883 -4.53479,0.11106 -9.07589,0.0626 -13.59953,0.41609 -4.20842,0.32832 -8.37998,0.81763 -12.59034,0.7478 -3.69776,-1.57173 -6.29953,-2.35541 -10.70775,-2.804 -4.11628,-0.41851 -8.36155,0.60086 -12.50207,1.3826 -1.07805,0.0563 -2.14834,0.0529 -3.22882,-0.008 -5.8815,-1.04604 -11.66068,-2.5557 -17.6998,-2.68857 -6.50176,-0.14306 -12.9749,-0.87195 -19.4786,-0.92772 -9.77616,-0.0839 -17.93306,8.22043 -17.93306,17.93258 0,9.8392 8.15836,17.84965 17.93306,17.93306 4.06778,0.0349 8.11713,0.35498 12.17425,0.63432 3.09933,0.21289 6.21757,0.17555 9.31448,0.40348 4.74672,0.86224 9.41148,1.96745 14.24451,2.46647 4.94991,0.51162 9.84163,-0.3773 14.7188,-1.21481 0.85885,0.37196 1.71867,0.74149 2.59886,1.08969 2.94899,1.16534 6.15841,1.42042 9.30478,1.65223 4.98822,0.36711 10.04143,-0.435 15.00492,-0.82296 4.87474,-0.38021 9.8135,-0.26867 14.70134,-0.37924 4.12791,-0.0936 8.25001,-0.0766 12.35901,0.27449 4.63712,0.8506 9.12293,2.13282 13.90165,2.50332 4.70938,0.36517 9.54823,-0.1159 14.28282,0.0621 5.76415,0.21629 11.21744,-0.0563 16.94134,-0.8831 3.70018,-0.53442 7.19718,-1.83797 10.81395,-2.67306 2.3045,-0.0955 4.67204,4.8e-4 6.9678,0.20853 0.21338,0.0228 0.42531,0.0403 0.63771,0.0572 0.4869,0.0485 0.96845,0.10136 1.44565,0.1581 -0.29582,-0.0398 -0.59213,-0.0795 -0.88795,-0.1193 8.57784,0.48301 16.65036,-3.86119 19.12895,-12.8721 1.78851,-6.49981 -0.65662,-14.47583 -5.93776,-18.90878 h 17.62997 v -26.84843 z" /><polygon
     style="fill:#303030;display:inline"
     id="polygon348"
     points="841.183,-380.829 851.108,-342.254 761.431,-342.254 771.355,-380.829 "
     transform="matrix(0.48495255,0,0,0.48495255,-538.40753,404.92723)" /><polyline
     style="fill:#303030;display:inline"
     id="polyline368"
     points="711.105,-363.916 756.208,-409.02 801.311,-363.916  "
     transform="matrix(0.48495255,0,0,0.48495255,-538.40753,404.92723)" /><rect
     style="fill:#303030;display:inline"
     id="rect370"
     height="6.3897347"
     width="2.2671533"
     y="215.25356"
     x="-141.35846" /><rect
     style="fill:#ddd387;display:inline"
     id="rect372"
     height="4.5343065"
     width="2.2671533"
     y="230.09554"
     x="-175.78038" /><circle
     cx="982.87"
     cy="-361.95801"
     r="40.52"
     id="circle354"
     d="m 1023.39,-361.95801 c 0,22.37858 -18.1414,40.52 -40.52,40.52 -22.37858,0 -40.52001,-18.14142 -40.52001,-40.52 0,-22.37858 18.14143,-40.52 40.52001,-40.52 22.3786,0 40.52,18.14142 40.52,40.52 z"
     sodipodi:cx="982.87"
     sodipodi:cy="-361.95801"
     sodipodi:rx="40.52"
     sodipodi:ry="40.52"
     style="fill:#303030;display:inline"
     transform="matrix(0.48495255,0,0,0.48495255,-538.40753,404.92723)" /><circle
     cx="534.46997"
     cy="-361.95801"
     r="40.52"
     id="circle360"
     d="m 574.98997,-361.95801 c 0,22.37858 -18.14142,40.52 -40.52,40.52 -22.37858,0 -40.52,-18.14142 -40.52,-40.52 0,-22.37858 18.14142,-40.52 40.52,-40.52 22.37858,0 40.52,18.14142 40.52,40.52 z"
     sodipodi:cx="534.46997"
     sodipodi:cy="-361.95801"
     sodipodi:rx="40.52"
     sodipodi:ry="40.52"
     style="fill:#303030;display:inline"
     transform="matrix(0.48495255,0,0,0.48495255,-538.40753,404.92723)" /><circle
     cx="445.58301"
     cy="-361.95801"
     r="40.52"
     id="circle366"
     d="m 486.10301,-361.95801 c 0,22.37858 -18.14142,40.52 -40.52,40.52 -22.37858,0 -40.52,-18.14142 -40.52,-40.52 0,-22.37858 18.14142,-40.52 40.52,-40.52 22.37858,0 40.52,18.14142 40.52,40.52 z"
     sodipodi:cx="445.58301"
     sodipodi:cy="-361.95801"
     sodipodi:rx="40.52"
     sodipodi:ry="40.52"
     style="fill:#303030;display:inline"
     transform="matrix(0.48495255,0,0,0.48495255,-538.40753,404.92723)" /><rect
     x="-64.156906"
     y="241.21259"
     width="4.7898765"
     height="36.703148"
     id="rect352"
     style="fill:#303030;display:inline" /><rect
     x="-281.61011"
     y="241.21259"
     width="4.7898765"
     height="36.703148"
     id="rect358"
     style="fill:#303030;display:inline" /><rect
     x="-324.71561"
     y="241.21259"
     width="4.7898765"
     height="36.703148"
     id="rect364"
     style="fill:#303030;display:inline" /><circle
     style="fill:#303030;display:inline"
     sodipodi:ry="4.7820001"
     sodipodi:rx="4.7820001"
     sodipodi:cy="-285.39099"
     sodipodi:cx="643.30298"
     d="m 648.08498,-285.39099 c 0,2.64102 -2.14098,4.782 -4.782,4.782 -2.64103,0 -4.782,-2.14098 -4.782,-4.782 0,-2.64103 2.14097,-4.782 4.782,-4.782 2.64102,0 4.782,2.14097 4.782,4.782 z"
     id="circle374"
     r="4.7820001"
     cy="-285.39099"
     cx="643.30298"
     transform="matrix(0.48495255,0,0,0.48495255,-538.40753,404.92723)" /><circle
     style="fill:#303030;display:inline"
     sodipodi:ry="4.7820001"
     sodipodi:rx="4.7820001"
     sodipodi:cy="-284.39099"
     sodipodi:cx="901.30298"
     d="m 906.08498,-284.39099 c 0,2.64102 -2.14098,4.782 -4.782,4.782 -2.64103,0 -4.782,-2.14098 -4.782,-4.782 0,-2.64103 2.14097,-4.782 4.782,-4.782 2.64102,0 4.782,2.14097 4.782,4.782 z"
     id="circle376"
     r="4.7820001"
     cy="-284.39099"
     cx="901.30298"
     transform="matrix(0.48495255,0,0,0.48495255,-538.40753,404.92723)" /><circle
     style="fill:#303030;display:inline"
     sodipodi:ry="4.7820001"
     sodipodi:rx="4.7820001"
     sodipodi:cy="-283.797"
     sodipodi:cx="658.92297"
     d="m 663.70497,-283.797 c 0,2.64103 -2.14097,4.782 -4.782,4.782 -2.64102,0 -4.782,-2.14097 -4.782,-4.782 0,-2.64102 2.14098,-4.782 4.782,-4.782 2.64103,0 4.782,2.14098 4.782,4.782 z"
     id="circle378"
     r="4.7820001"
     cy="-283.797"
     cx="658.92297"
     transform="matrix(0.48495255,0,0,0.48495255,-538.40753,404.92723)" /></g><g
   inkscape:groupmode="layer"
   id="layer3"
   inkscape:label="cave"
   style="display:inline"><path
     d="m 361.17997,755.54889 32.9767,39.76611 4.5261,21.66089 13.5787,9.37608 17.7817,32.65331 -0.3234,13.57867 -42.9988,27.80378 -55.2846,-65.63008 c 0,0 -2.2633,-49.78863 -2.2633,-50.75853 0,-0.96991 18.7517,-27.48032 18.7517,-27.48032 l 13.2552,-0.96991 z"
     id="path9"
     inkscape:connector-curvature="0"
     style="fill:#333230" /><path
     d="m 608.02027,909.76283 39.7661,-22.79277 29.5822,7.27429 7.2742,10.66896 22.3079,1.93981 34.9165,16.00343 8.2442,12.12382 24.2477,16.97334 7.2742,29.09715 c 0,0 -45.1005,2.42476 -46.5554,2.42476 -1.4549,0 -84.8667,-0.9699 -84.8667,-0.9699 l -19.3981,7.75924 c 0,0 -42.1909,-7.75924 -43.6457,-7.75924 -1.4549,0 -20.127,-5.79713 -20.127,-5.79713 l 20.127,-44.15299 13.5786,-3.87962 7.2743,-18.91315 z"
     id="path11"
     inkscape:connector-curvature="0"
     style="fill:#333230" /><polygon
     points="2056,888 2091,864 2123,816 2198,823 2217,857 2257,897 2299,924 2309,972 2380,1058 2393,1107 2427,1160 2435,1201 2285,1230 2029,1192 1914,1002 1999,888 "
     id="polygon13"
     transform="matrix(0.48495255,0,0,0.48495255,-538.40753,404.92723)"
     style="fill:#333230" /><path
     d="m 590.20317,882.33586 c 0,0 38.6163,-34.12611 41.3107,-35.02425 2.6944,-0.89861 37.7186,-0.89861 37.7186,-0.89861 l 16.1649,-25.14576 26.942,-18.85932 h 26.0435 l 41.3106,-17.06257 15.2668,-27.83967 10.7766,-34.12611 27.8402,-14.36915 20.6551,-17.96119 34.1266,2.6944 9.8785,17.96119 53.8835,56.57796 21.5538,36.8205 35.02473,34.12612 0.8981,17.96118 16.1649,65.55831 31.4322,25.14625 v 53.88306 l -372.69573,4.4907 -90.7036,-1.7963 -43.1074,-23.349 13.471,-54.78169 26.0444,-44.00605 z"
     id="path5"
     inkscape:connector-curvature="0"
     style="fill:#2d2c2b" /><path
     d="m 1248.7105,921.35853 -39.7661,-22.79277 -29.5821,7.27429 -7.2743,10.66896 -22.3078,1.93981 -34.9166,16.00343 -8.2441,12.12382 -24.2477,16.97334 -7.2743,29.09715 c 0,0 45.1006,2.42476 46.5555,2.42476 1.4548,0 84.8667,-0.9699 84.8667,-0.9699 l 19.3981,7.75928 c 0,0 42.1908,-7.75928 43.6457,-7.75928 1.4549,0 20.127,-5.79713 20.127,-5.79713 l -20.127,-44.15299 -13.5787,-3.87962 -7.2743,-18.91315 z"
     id="path7"
     inkscape:connector-curvature="0"
     style="fill:#2d2c2b" /></g><g
   inkscape:groupmode="layer"
   id="layer6"
   inkscape:label="monster"
   style="display:inline"><path
     d="m 825.77757,836.63684 c 0,0 -4.24236,56.38883 -20.64734,52.87486 -16.40497,-3.51445 -38.9412,-19.2177 -56.1221,-18.90296 -17.1809,0.31473 -21.15509,3.22299 -21.15509,3.22299 0,0 13.13397,2.27782 13.86092,5.42807 0,0 -14.90259,0.12076 -19.38647,5.13662 0,0 14.53937,2.61729 15.62954,7.34315 0,0 -3.223,0.41221 -6.97895,4.26516 -3.75596,3.85246 -3.18808,7.03957 -3.18808,7.03957 0,0 12.57676,-3.73171 16.79342,-2.71379 4.21618,1.01791 24.70542,6.41059 30.49721,11.37795 5.79179,4.96737 40.44311,14.22512 48.05298,1.18862 7.60988,-13.03698 14.15383,-53.69928 13.18489,-60.77474 -0.96893,-7.07642 -10.54093,-15.4855 -10.54093,-15.4855 z"
     id="path684"
     inkscape:connector-curvature="0"
     style="fill:#232323;display:inline" /><path
     d="m 917.36135,807.34813 c -10.79602,-25.37708 -29.56174,-46.76543 -50.78521,-61.99827 -11.80374,-8.47164 -24.82132,-15.49036 -38.91695,-15.39628 -8.70927,0.0582 -16.2333,2.11149 -24.16179,5.58714 -2.35639,1.03344 -4.56486,2.3365 -6.62446,3.93782 -1.89179,1.47134 -3.83209,2.8811 -5.55707,4.58619 -1.76134,1.74147 -3.17207,3.96837 -4.62499,5.9785 -3.64102,5.03817 -5.48966,12.97733 -5.07212,19.50721 0.2386,3.71232 0.65275,7.40377 1.74826,10.96915 1.30355,4.24091 3.01931,8.08852 4.76466,12.09665 3.23269,7.42172 7.94982,14.19456 12.69023,20.54841 4.1512,5.56386 8.7437,10.72327 13.34638,15.83225 5.46736,6.07015 11.20726,11.98366 16.04223,18.69104 3.17935,5.13274 5.81507,10.58894 8.02742,16.26773 5.34563,15.84243 7.92461,32.46467 11.65729,48.73725 2.33456,10.1777 11.93517,16.90496 21.05567,14.80075 4.60317,-1.06205 8.31694,-4.18902 10.57245,-8.33003 1.56009,2.24678 3.15559,4.13858 5.77724,5.62399 3.37867,1.91266 6.8228,3.70504 10.67963,3.59253 5.10655,-0.14985 9.46336,-1.55815 13.58352,-4.66524 4.15071,-3.13037 7.60405,-6.47897 10.05937,-11.42257 3.0164,-6.07452 4.47417,-12.58258 5.5207,-19.41314 1.10521,-7.21609 2.24193,-14.35993 2.51302,-21.73218 0.29291,-7.94982 -0.39572,-15.808 -1.2599,-23.75249 -1.50481,-13.83812 -5.61284,-27.29992 -11.03558,-40.04641 z"
     id="path686"
     inkscape:connector-curvature="0"
     style="fill:#232323;display:inline" /><path
     d="m 886.98004,817.13593 c 0,0 -1.93399,48.67129 -11.80957,54.91602 -9.8746,6.24474 -62.0778,-30.24406 -72.59885,-31.26537 -10.52056,-1.02131 -19.06591,5.13371 -19.06591,5.13371 0,0 12.36775,0.4253 13.0428,4.62353 0,0 -14.09369,-1.56639 -18.02374,3.09885 0,0 16.82397,4.76175 15.47435,6.89651 0,0 -12.98073,-0.0766 -17.00002,3.25888 0,0 11.02395,1.30986 16.3754,8.41587 5.35096,7.10504 22.24526,15.3211 38.53433,22.63322 16.28907,7.3126 36.28948,11.38959 47.74212,0.55915 11.45216,-10.82948 12.68102,-23.50565 15.05196,-34.4132 2.74386,-12.62768 2.59934,-43.45175 2.59934,-43.45175 0,0 -6.54249,-10.79796 -10.32221,-0.40542 z"
     id="path688"
     inkscape:connector-curvature="0"
     style="fill:#232323;display:inline" /><path
     style="fill:#ff931e;display:inline"
     inkscape:connector-curvature="0"
     id="path690"
     d="m 817.0654,801.34248 c 0,0 -2.56637,4.89802 -4.69386,6.05754 -2.12797,1.16001 -7.6346,0.66342 -7.6346,0.66342 0,0 2.69245,-4.66622 4.81994,-5.82671 2.12846,-1.15952 7.50852,-0.89425 7.50852,-0.89425 z" /><path
     style="fill:#ff931e;display:inline"
     inkscape:connector-curvature="0"
     id="path692"
     d="m 833.07708,791.78794 c 0,0 -2.56637,4.89754 -4.69386,6.05706 -2.12797,1.16001 -7.63461,0.6639 -7.63461,0.6639 0,0 2.69246,-4.6667 4.81995,-5.8267 2.12748,-1.15904 7.50852,-0.89426 7.50852,-0.89426 z" /></g><g
   inkscape:groupmode="layer"
   id="layer1"
   inkscape:label="ground"
   style="display:inline"><path
     style="fill:#231e1c"
     inkscape:connector-curvature="0"
     id="path646"
     d="m 1003.0699,356.90674 c -0.2648,-14.85797 -0.4723,-29.67861 -1.2133,-44.52543 -0.3599,-7.21318 -0.8817,-14.37108 -0.6232,-21.59397 0.2464,-6.88875 0.5795,-13.78041 -0.051,-20.65849 -0.982,-10.70533 -3.191,-21.36943 -11.3416,-29.05496 -6.28256,-5.92418 -14.60871,-9.79119 -23.03622,-11.44634 -8.51625,-1.6726 -16.90253,-1.94611 -25.39551,0.066 -8.33342,1.97424 -14.92926,7.10989 -22.34419,10.89106 -0.28321,0.08 -0.56788,0.15276 -0.854,0.22114 -6.2554,0.31425 -12.36144,-0.81278 -18.62993,-1.08484 -7.7544,-0.33607 -15.50927,-0.66196 -23.26609,-0.9476 -15.81721,-0.58194 -31.62569,-0.82102 -47.45261,-0.92674 -5.68558,-0.0378 -11.37698,-0.16343 -17.07032,-0.32153 -2.58917,-0.6314 -5.35097,-0.73615 -8.14769,-0.24199 -22.6468,-0.70221 -45.32027,-1.51111 -67.86572,0.99658 -4.62305,0.51405 -9.23689,1.12606 -13.84297,1.79093 -12.17182,0.91559 -24.8349,1.28997 -36.65126,4.33645 -10.83869,2.79429 -21.21376,7.56283 -31.46663,11.96959 -2.49653,-0.0315 -4.99355,-0.0824 -7.4867,-0.0878 -4.12161,-0.009 -7.97116,1.35399 -11.12384,3.64199 -3.02077,0.96215 -5.96637,2.23903 -8.89839,3.94752 -5.33836,3.11048 -10.36586,7.16614 -14.61162,11.65438 -3.98922,4.21666 -7.7607,9.14378 -10.06471,14.51947 -1.09938,2.56443 -2.09936,4.83013 -2.77102,7.30872 l -19.45338,51.31186 0.48495,15.51849 -7.75924,38.31125 3.93393,60.6952 c 0.0441,1.09648 0.0912,2.19296 0.14452,3.28798 0.33074,6.84462 0.67117,13.72367 1.26912,20.55035 0.10233,1.16922 0.22599,2.33602 0.3579,3.50184 l 1.08387,16.71438 2.32098,44.68062 c -0.41852,3.04356 -0.80551,6.09149 -1.1086,9.14911 -0.15373,1.5533 -0.27206,3.11728 -0.36517,4.68658 l 2.54697,2.91117 3.23318,15.51848 0.9699,11.63887 3.55616,-11.63887 1.29337,-8.72914 4.20308,-8.72915 2.90972,-14.54857 3.23269,3.87962 0.64693,7.43577 5.49596,9.69905 1.29337,20.04503 4.52606,17.78127 1.61635,24.24763 1.93981,15.1955 1.93981,6.46588 1.29337,14.54857 6.14289,-28.45071 -0.32346,-13.57867 v -14.54858 l 1.29337,-9.37558 2.26279,-6.78934 3.87962,-17.45829 v 14.87204 l 1.93981,3.55616 0.64693,18.42819 8.08221,-19.07464 5.49646,-21.66137 8.08222,-1.61635 8.40616,-13.25569 51.08103,-16.48839 7.43577,-0.32346 c 0,0 0.31813,0.21241 0.85546,0.57321 3.31804,-12.93514 7.40474,-25.66902 12.41527,-38.15946 3.92569,-8.58754 8.94301,-17.23618 9.99439,-26.25097 16.76626,-9.7e-4 33.53253,-0.13481 50.2823,-0.71482 31.63928,-1.09502 63.29116,-4.23945 94.33006,-10.58457 26.56279,-5.4305 52.58341,-14.0127 77.52161,-24.60455 2.08335,-0.80502 4.24818,-1.49899 6.09876,-2.73562 3.06054,-2.04504 4.90239,-3.94218 6.83153,-6.33736 l -0.36663,0.47477 c 10.21407,-10.92259 16.57956,-24.65062 18.71576,-39.41646 1.984,-13.72125 1.7449,-27.2456 1.4985,-41.06239 z" /><polygon
     points="2510,-1109 3159,-1109 3159,-305.966 2479,-292 "
     id="polygon618"
     transform="matrix(0.48495255,0,0,0.48495255,-538.40753,404.92723)"
     style="fill:#231e1c" /><path
     d="m 729.76667,223.24267 c -0.1465,3.21087 -2.868,5.69431 -6.0784,5.54785 l -61.041,-2.7875 c -3.2099,-0.14646 -5.6938,-2.86801 -5.5478,-6.07888 l 2.788,-61.0405 c 0.1464,-3.21087 2.8685,-5.69479 6.0784,-5.54785 l 61.0409,2.7875 c 3.2104,0.14646 5.6939,2.86801 5.5479,6.07888 l -2.788,61.0405 z"
     id="path620"
     inkscape:connector-curvature="0"
     style="fill:#231e1c" /><path
     d="m 735.58607,124.7973 c -0.1464,3.21087 -2.868,5.69431 -6.0784,5.54786 l -61.0409,-2.78751 c -3.2099,-0.14646 -5.6939,-2.86801 -5.5479,-6.07888 l 2.788,-61.040489 c 0.1465,-3.21087 2.8685,-5.6948 6.0784,-5.54786 l 61.041,2.78751 c 3.2104,0.14645 5.6938,2.86801 5.5478,6.07888 l -2.788,61.040489 z"
     id="path622"
     inkscape:connector-curvature="0"
     style="fill:#231e1c" /><path
     d="m 740.67767,23.689541 c -0.1465,3.21087 -2.8681,5.69432 -6.0784,5.54786 l -61.041,-2.78751 c -3.2099,-0.14645 -5.6938,-2.86801 -5.5479,-6.07888 l 2.788,-61.04049 c 0.1465,-3.21087 2.8685,-5.6948 6.0784,-5.54786 l 61.041,2.78751 c 3.2104,0.14646 5.6938,2.86801 5.5478,6.07888 l -2.7879,61.04049 z"
     id="path624"
     inkscape:connector-curvature="0"
     style="fill:#231e1c" /><circle
     cx="1119.156"
     cy="-1170.267"
     r="254.384"
     id="circle574"
     sodipodi:cx="1119.156"
     sodipodi:cy="-1170.267"
     sodipodi:rx="254.384"
     sodipodi:ry="254.384"
     transform="matrix(0.48495255,0,0,0.48495255,-538.40753,404.92723)"
     style="fill:#231e1c" /><path
     d="m 30.617375,114.66422 c 0,0 -68.2454,16.49323 -68.2454,-50.915169"
     id="path556"
     inkscape:connector-curvature="0"
     style="fill:none;stroke:#231e1c;stroke-width:8.24419308;stroke-linecap:round" /><path
     d="m 710.34527,547.98823 53.8298,2.42477 31.5219,-12.60877 52.8598,-2.42476 33.4617,0.48495 40.736,-20.85296 58.6793,-72.74288 -6.7893,-20.85296 c 0,0 -193.4961,0.48495 -198.8306,0.9699 -5.3345,0.48496 -57.2244,17.4583 -57.2244,17.4583 l -8.2442,108.14441 z"
     id="path762"
     inkscape:connector-curvature="0"
     style="fill:#231e1c" /><path
     style="fill:#231e1c"
     inkscape:connector-curvature="0"
     id="path638"
     d="m 473.74324,382.88517 c -0.86224,-7.62006 -2.31807,-15.1344 -3.47226,-22.70451 -0.53781,-5.20354 -0.52569,-10.42503 -0.50968,-15.64506 0.80502,-3.32774 0.76137,-6.88244 -0.13385,-10.33482 -0.12948,-2.93008 -0.37244,-5.85677 -0.83557,-8.7757 -1.75214,-11.04771 -10.80572,-21.08962 -20.59739,-25.87076 -9.30576,-4.54498 -19.19103,-6.44599 -29.51422,-6.80389 -10.64616,-0.36905 -21.09204,2.02274 -31.54907,3.74965 -3.35151,0.24975 -6.71611,0.27012 -10.07004,0.50775 -5.22342,0.36953 -10.12532,1.31034 -15.09997,2.77732 -0.11687,0.0344 -0.23229,0.0727 -0.34916,0.10815 -1.48832,-0.0354 -2.97664,-0.0567 -4.46254,-0.0417 -5.99643,0.0606 -11.96184,0.90929 -17.93548,1.34768 -6.29274,0.46168 -12.62865,0.20756 -18.93109,0.12706 -6.4295,-0.082 -12.85852,-0.11251 -19.28463,0.14888 -2.36511,0.0965 -4.70937,0.29097 -7.04878,0.45537 -3.56198,0.002 -7.12298,0 -10.68448,0 -1.48929,-0.27351 -2.97373,-0.57273 -4.45817,-0.87825 -3.57894,-0.73664 -7.1705,-1.2696 -10.78049,-1.7531 -10.65392,-1.55427 -21.12793,-4.09979 -31.72511,-5.98577 -12.61119,-2.24484 -25.18989,-4.40191 -37.97227,-5.47317 -11.45361,-0.96021 -22.9174,-0.6542 -34.3812,-1.23372 -4.63032,-0.23424 -9.25192,-0.59504 -13.874,-0.93887 -1.17456,-0.32734 -2.34572,-0.64887 -3.51203,-0.95924 -21.25499,-5.65066 -43.45805,-6.69962 -65.285768,-6.55268 -21.900942,0.14791 -43.766482,1.76135 -65.660635,2.23079 -9.2693832,0.19931 -18.1954198,0.31667 -27.184015,2.36123 -4.871349,0.44179 -9.720389,1.17213 -14.527239,2.13088 -0.241991,0.048 -0.482043,0.10572 -0.724034,0.15616 -0.261874,0.0485 -0.523749,0.0936 -0.785623,0.14257 -7.46536,1.39764 -15.029165,2.78411 -22.377651,4.81316 -0.750221,-0.13143 -1.517901,-0.20029 -2.29916,-0.19399 -15.339534,0.11979 -29.828946,5.55368 -44.826589,8.07689 -3.341806,0.38457 -6.679736,0.54897 -10.053556,0.46264 -3.10563,-0.079 -5.61575,-0.21483 -8.78297,0.40979 -1.4534,0.28661 -2.81854,0.838 -4.21763,1.27154 -4.65312,0.17362 -9.30964,-0.008 -13.96664,0.0732 -5.28404,0.0926 -10.52007,0.9379 -15.80751,1.09115 -5.20936,0.1513 -10.42163,-0.0165 -15.63148,0.0514 -5.55852,0.0737 -11.1122,0.37923 -16.67024,0.47428 -5.11625,0.0878 -10.2131,0.13094 -15.32256,0.46459 -5.16329,0.33801 -10.40272,1.33556 -15.57134,0.94808 -5.37279,-0.40251 -10.64325,-0.67699 -16.03496,-0.48544 -5.68219,0.20126 -11.35225,0.62753 -17.03978,0.65178 -2.24193,0.009 -4.3733,0.59358 -6.27334,1.60907 -7.81404,0.14452 -15.64942,0.48641 -23.43485,-0.274 -4.58377,-0.44809 -9.08122,-1.37969 -13.70379,-1.32489 -4.46884,0.0529 -8.91634,0.55624 -13.39293,0.56206 -9.24708,0.0116 -18.37,-0.56739 -27.61223,0.19156 -9.29654,0.76332 -18.7536,0.274 -28.0739,0.274 -7.7316,0 -14.1839,6.84462 -14.1839,15.04662 0,7.17245 4.93343,13.30613 11.34207,14.73383 v 21.35731 h -0.34431 v 108.14442 20.85296 336.55707 h 687.82808 c 8.53662,-11.94487 17.61881,-23.53038 25.67582,-35.80599 2.68954,-4.09736 5.18608,-8.30724 7.67291,-12.52487 l -0.37535,-5.82282 9.05261,-22.63128 v -14.22512 c 0,0 8.40568,-17.45829 8.40568,-19.3981 0,-1.93981 0,-23.27772 0,-23.27772 l 4.20309,-30.7135 0.32298,-6.46636 3.87962,2.90972 4.20308,12.93223 V 653.7074 l 5.49597,-13.25569 9.37607,-11.3154 0.64644,-3.87962 h 4.20309 l 4.20259,7.43578 0.96991,6.14289 3.55664,-8.72914 h 2.26279 l 4.84953,-8.08271 c 0.64644,9.05213 7.27089,34.8002 7.27089,34.8002 l 5.49936,-29.78821 9.69905,-96.02061 8.24419,-15.03353 7.20058,-75.39363 c 1.31374,-2.20217 2.35929,-4.49357 3.30932,-7.187 0.94711,-2.68469 1.43837,-5.57695 1.70073,-8.47309 1.90101,-5.52118 3.21814,-11.24023 4.34566,-16.97964 1.61537,-8.22431 2.87285,-16.69692 1.92671,-25.06283 z" /><path
     d="m -37.599425,80.293691 c 0,0 -28.9672,11.95893 -28.9672,-15.67997"
     id="path560"
     inkscape:connector-curvature="0"
     style="fill:none;stroke:#231e1c;stroke-width:5.81943083;stroke-linecap:round" /><circle
     cx="1364.525"
     cy="-706.599"
     r="90.474998"
     id="circle564"
     sodipodi:cx="1364.525"
     sodipodi:cy="-706.599"
     sodipodi:rx="90.474998"
     sodipodi:ry="90.474998"
     transform="matrix(0.48495255,0,0,0.48495255,-538.40753,404.92723)"
     style="fill:#231e1c" /><path
     d="m 148.04277,-69.356359 c 0,0 9.7937,82.1689 -93.261195,83.21252"
     id="path566"
     inkscape:connector-curvature="0"
     style="fill:none;stroke:#231e1c;stroke-width:11.15390873;stroke-linecap:round" /><path
     d="m 171.37627,-70.009109 c 0,0 7.2336,34.40011 -29.5685,34.40011"
     id="path568"
     inkscape:connector-curvature="0"
     style="fill:none;stroke:#231e1c;stroke-width:5.81943083;stroke-linecap:round" /><path
     d="m 8.7852746,-49.966509 c 0,0 -7.2335,34.40011 29.5686004,34.40011"
     id="path570"
     inkscape:connector-curvature="0"
     style="fill:none;stroke:#231e1c;stroke-width:5.81943083;stroke-linecap:round" /><circle
     cx="1406.5551"
     cy="-1081.271"
     r="133.80299"
     id="circle572"
     sodipodi:cx="1406.5551"
     sodipodi:cy="-1081.271"
     sodipodi:rx="133.80299"
     sodipodi:ry="133.80299"
     transform="matrix(0.48495255,0,0,0.48495255,-538.40753,404.92723)"
     style="fill:#231e1c" /><circle
     cx="986.87"
     cy="-806.48297"
     r="115.13"
     id="circle576"
     sodipodi:cx="986.87"
     sodipodi:cy="-806.48297"
     sodipodi:rx="115.13"
     sodipodi:ry="115.13"
     transform="matrix(0.48495255,0,0,0.48495255,-538.40753,404.92723)"
     style="fill:#231e1c" /><ellipse
     cx="1095.4449"
     cy="-625.26599"
     rx="13.943"
     ry="16.611"
     id="ellipse582"
     d="m 1109.3879,-625.26599 c 0,9.174 -6.2424,16.611 -13.943,16.611 -7.7005,0 -13.943,-7.437 -13.943,-16.611 0,-9.174 6.2425,-16.611 13.943,-16.611 7.7006,0 13.943,7.437 13.943,16.611 z"
     sodipodi:cx="1095.4449"
     sodipodi:cy="-625.26599"
     sodipodi:rx="13.943"
     sodipodi:ry="16.611"
     style="fill:#231e1c"
     transform="matrix(0.48495255,0,0,0.48495255,-538.40753,404.92723)" /><circle
     cx="1095.4449"
     cy="-646.45801"
     r="7.2880001"
     id="circle584"
     d="m 1102.7329,-646.45801 c 0,4.02505 -3.2629,7.288 -7.288,7.288 -4.025,0 -7.288,-3.26295 -7.288,-7.288 0,-4.02505 3.263,-7.288 7.288,-7.288 4.0251,0 7.288,3.26295 7.288,7.288 z"
     sodipodi:cx="1095.4449"
     sodipodi:cy="-646.45801"
     sodipodi:rx="7.2880001"
     sodipodi:ry="7.2880001"
     style="fill:#231e1c"
     transform="matrix(0.48495255,0,0,0.48495255,-538.40753,404.92723)" /><polygon
     points="1088.972,-649.803 1079.372,-646.458 1088.532,-644.159 1091.159,-647.958 "
     id="polygon586"
     style="fill:#231e1c"
     transform="matrix(0.48495255,0,0,0.48495255,-538.40753,404.92723)" /><path
     style="fill:#231e1c"
     inkscape:connector-curvature="0"
     id="path588"
     d="m -2.6945116,107.74249 1.83554536,9.99535 c 0,0 -6.54734436,7.5318 -12.44727676,0 l 2.101784,-9.99535 h 8.5099474 z" /><path
     d="m -78.997425,64.028381 c 0,0 -0.8773,12.13788 12.1379,12.13788"
     id="path778"
     inkscape:connector-curvature="0"
     style="fill:none;stroke:#231e1c;stroke-width:3.87962031;stroke-linecap:round" /><path
     d="m -3.8283254,-43.977339 c 0,0 -0.9699,13.41718 13.4172,13.41718"
     id="path780"
     inkscape:connector-curvature="0"
     style="fill:none;stroke:#231e1c;stroke-width:3.87962031;stroke-linecap:round" /><path
     d="m 116.97437,102.74748 c 0,0 17.6062,54.67646 -52.077595,55.38206"
     id="path558"
     inkscape:connector-curvature="0"
     style="fill:none;stroke:#231e1c;stroke-width:8.24419308;stroke-linecap:round" /><path
     d="m 137.46747,89.722141 c 0,0 13.2193,32.828369 -17.3327,32.828369"
     id="path562"
     inkscape:connector-curvature="0"
     style="fill:none;stroke:#231e1c;stroke-width:5.81943083;stroke-linecap:round" /><ellipse
     cx="1142.7791"
     cy="-618.26599"
     rx="13.943"
     ry="16.611"
     id="ellipse594"
     d="m 1156.7221,-618.26599 c 0,9.174 -6.2425,16.611 -13.943,16.611 -7.7006,0 -13.943,-7.437 -13.943,-16.611 0,-9.174 6.2424,-16.611 13.943,-16.611 7.7005,0 13.943,7.437 13.943,16.611 z"
     sodipodi:cx="1142.7791"
     sodipodi:cy="-618.26599"
     sodipodi:rx="13.943"
     sodipodi:ry="16.611"
     style="fill:#231e1c"
     transform="matrix(0.48495255,0,0,0.48495255,-538.40753,404.92723)" /><circle
     cx="1142.7791"
     cy="-639.45801"
     r="7.2880001"
     id="circle596"
     d="m 1150.0671,-639.45801 c 0,4.02505 -3.263,7.288 -7.288,7.288 -4.0251,0 -7.288,-3.26295 -7.288,-7.288 0,-4.02505 3.2629,-7.288 7.288,-7.288 4.025,0 7.288,3.26295 7.288,7.288 z"
     sodipodi:cx="1142.7791"
     sodipodi:cy="-639.45801"
     sodipodi:rx="7.2880001"
     sodipodi:ry="7.2880001"
     style="fill:#231e1c"
     transform="matrix(0.48495255,0,0,0.48495255,-538.40753,404.92723)" /><polygon
     points="1130.306,-648.729 1136.307,-641.436 1140.678,-642.931 1140.015,-645.714 "
     id="polygon598"
     style="fill:#231e1c"
     transform="matrix(0.48495255,0,0,0.48495255,-538.40753,404.92723)" /><path
     style="fill:#231e1c"
     inkscape:connector-curvature="0"
     id="path600"
     d="m 20.260232,111.13716 1.835546,9.99535 c 0,0 -6.547345,7.5318 -12.4472773,0 l 2.1017843,-9.99535 h 8.509947 z" /><path
     d="m 93.365375,285.92424 c 0,10.56663 -8.5642,19.13089 -19.1328,19.13089 -10.5647,0 -19.129,-8.56426 -19.129,-19.13089 0,-10.56663 8.5643,-19.13089 19.129,-19.13089 10.5686,0 19.1328,8.56426 19.1328,19.13089 z"
     id="path626"
     inkscape:connector-curvature="0"
     style="fill:#231e1c" /><path
     d="m -115.64913,300.95777 c 0,10.56663 -8.5643,19.13089 -19.1329,19.13089 -10.5647,0 -19.1289,-8.56426 -19.1289,-19.13089 0,-10.56663 8.5642,-19.13089 19.1289,-19.13089 10.5686,0 19.1329,8.56426 19.1329,19.13089 z"
     id="path628"
     inkscape:connector-curvature="0"
     style="fill:#231e1c" /><circle
     cx="788.30298"
     cy="-196.39101"
     r="24.697001"
     id="circle630"
     sodipodi:cx="788.30298"
     sodipodi:cy="-196.39101"
     sodipodi:rx="24.697001"
     sodipodi:ry="24.697001"
     transform="matrix(0.48495255,0,0,0.48495255,-538.40753,404.92723)"
     style="fill:#231e1c" /><circle
     cx="615"
     cy="-203"
     r="24.697001"
     id="circle632"
     sodipodi:cx="615"
     sodipodi:cy="-203"
     sodipodi:rx="24.697001"
     sodipodi:ry="24.697001"
     transform="matrix(0.48495255,0,0,0.48495255,-538.40753,404.92723)"
     style="fill:#231e1c" /><polygon
     points="1819.021,808.565 1822.021,955.558 1867.019,1051.553 1961.514,1147.549 1963.014,1213.545 1519.035,1279.542 1412.541,1269.042 1445.539,802.565 "
     id="polygon634"
     transform="matrix(0.48495255,0,0,0.48495255,-538.40753,404.92723)"
     style="fill:#231e1c" /><rect
     x="-361.97348"
     y="685.64008"
     width="584.91144"
     height="387.03043"
     id="rect678"
     style="fill:#231e1c" /><polygon
     points="1821.01,853.997 1872.428,873.729 1913.084,986.131 1959.123,1035.756 1997.387,1107.503 2029.076,1181.043 1969.288,1216.919 1822.805,1188.221 1741.49,1151.748 1745.677,1065.055 1763.613,1013.636 1792.313,863.271 "
     id="polygon448"
     transform="matrix(0.48495255,0,0,0.48495255,-538.40753,404.92723)"
     style="fill:#231e1c" /><rect
     x="144.42506"
     y="989.07489"
     width="1222.8064"
     height="84.37738"
     id="rect640"
     style="fill:#231e1c" /><polygon
     points="2094.396,1129.798 2130.966,1144.425 2146.719,1170.305 1914.928,1165.803 1952.896,1066.104 1986.374,1063.412 2015.069,1043.72 2051.078,1044.845 2088.208,1092.105 "
     id="polygon676"
     transform="matrix(0.48495255,0,0,0.48495255,-538.40753,404.92723)"
     style="fill:#231e1c" /><path
     d="m 498.66547,967.97993 68.3749,8.72866 114.9279,6.54638 72.739,-7.27381 78.5585,8.72867 114.9279,0.72742 v 22.54935 l -2.9097,33.4598 c 0,0 -264.7715,8.0017 -285.8655,8.0017 -21.094,0 -272.7722,-33.4603 -272.7722,-33.4603 v -24.73111 l 61.8285,-38.55179 50.1907,15.27503 z"
     id="path642"
     inkscape:connector-curvature="0"
     style="fill:#231e1c" /><polygon
     points="2591.618,1238.422 2551.618,1206.172 2535.618,1179.172 2506.618,1174.672 2459.213,1198.842 2418.618,1261.172 2455.618,1294.172 2554.618,1302.172 2588.618,1288.172 "
     id="polygon47"
     transform="matrix(0.48495255,0,0,0.48495255,-538.40753,404.92723)"
     style="fill:#231e1c" /><circle
     style="fill:#808080"
     sodipodi:ry="25.667"
     sodipodi:rx="25.667"
     sodipodi:cy="1119.424"
     sodipodi:cx="2110.021"
     d="m 2135.688,1119.424 c 0,14.1754 -11.4915,25.667 -25.667,25.667 -14.1755,0 -25.667,-11.4916 -25.667,-25.667 0,-14.1755 11.4915,-25.667 25.667,-25.667 14.1755,0 25.667,11.4915 25.667,25.667 z"
     id="circle662"
     r="25.667"
     cy="1119.424"
     cx="2110.021"
     transform="matrix(0.48495255,0,0,0.48495255,-538.40753,404.92723)" /><polygon
     style="fill:#808080"
     id="polygon664"
     points="2130.526,1152.023 2131.075,1158.823 2127.864,1158.643 2125.478,1161.803 2097.905,1142.118 2135.602,1119.75 2138.144,1155.062 2135.489,1156.475 "
     transform="matrix(0.48495255,0,0,0.48495255,-538.40753,404.92723)" /><circle
     style="fill:#303030"
     sodipodi:ry="7.0009999"
     sodipodi:rx="7.0009999"
     sodipodi:cy="1124.858"
     sodipodi:cx="2101.5139"
     d="m 2108.5149,1124.858 c 0,3.8666 -3.1344,7.001 -7.001,7.001 -3.8665,0 -7.001,-3.1344 -7.001,-7.001 0,-3.8665 3.1345,-7.001 7.001,-7.001 3.8666,0 7.001,3.1345 7.001,7.001 z"
     id="circle666"
     r="7.0009999"
     cy="1124.858"
     cx="2101.5139"
     transform="matrix(0.48495255,0,0,0.48495255,-538.40753,404.92723)" /><circle
     style="fill:#303030"
     sodipodi:ry="7.0009999"
     sodipodi:rx="7.0009999"
     sodipodi:cy="1114.561"
     sodipodi:cx="2118.8689"
     d="m 2125.8699,1114.561 c 0,3.8666 -3.1345,7.001 -7.001,7.001 -3.8665,0 -7.001,-3.1344 -7.001,-7.001 0,-3.8665 3.1345,-7.001 7.001,-7.001 3.8665,0 7.001,3.1345 7.001,7.001 z"
     id="circle668"
     r="7.0009999"
     cy="1114.561"
     cx="2118.8689"
     transform="matrix(0.48495255,0,0,0.48495255,-538.40753,404.92723)" /><polygon
     style="fill:#303030"
     id="polygon670"
     points="2114.396,1127.487 2124.4,1135.784 2117.633,1139.799 "
     transform="matrix(0.48495255,0,0,0.48495255,-538.40753,404.92723)" /><path
     style="fill:#595959"
     inkscape:connector-curvature="0"
     id="path672"
     d="m 474.21656,948.08863 c 0,0 -5.73457,3.40292 -8.34119,4.94943 -2.60662,1.54651 -9.14087,-1.62556 -7.9959,-6.11089 0,0 -3.91599,1.47814 -0.98881,6.6487 2.92717,5.17057 7.02162,5.41983 11.08795,3.00671 4.06681,-2.41313 8.34167,-4.94943 8.34167,-4.94943 l -2.10372,-3.54452 z" /><path
     style="fill:#808080"
     inkscape:connector-curvature="0"
     id="path674"
     d="m 490.49787,938.70965 c 0,0 5.73456,-3.40291 8.34118,-4.94942 2.60662,-1.54652 2.95433,-8.80141 -1.53148,-9.94638 0,0 3.17402,-2.72883 6.30972,2.31807 3.1357,5.0469 1.39181,8.76019 -2.67451,11.17331 -4.06682,2.41264 -8.34119,4.94894 -8.34119,4.94894 l -2.10372,-3.54452 z" /><path
     style="fill:#ff931e"
     inkscape:connector-curvature="0"
     id="path710"
     d="m 723.51999,967.3912 c 0,3.83889 -3.11194,6.95083 -6.95082,6.95083 -3.83889,0 -6.95083,-3.11194 -6.95083,-6.95083 0,-3.83888 6.95083,-19.80158 6.95083,-19.80158 0,0 6.95082,15.9627 6.95082,19.80158 z" /><path
     style="fill:#ff931e"
     inkscape:connector-curvature="0"
     id="path712"
     d="m 736.73495,967.93338 c 0,4.30735 -3.49166,7.799 -7.79949,7.799 -4.30784,0 -7.79949,-3.49165 -7.79949,-7.799 0,-4.30784 7.79949,-22.21956 7.79949,-22.21956 0,0 7.79949,17.91172 7.79949,22.21956 z" /><path
     style="fill:#ff931e"
     inkscape:connector-curvature="0"
     id="path714"
     d="m 748.49505,967.14872 c 0,3.83889 -3.11194,6.95083 -6.95083,6.95083 -3.83888,0 -6.95082,-3.11194 -6.95082,-6.95083 0,-3.83888 6.95082,-19.80158 6.95082,-19.80158 0,0 6.95083,15.9627 6.95083,19.80158 z" /><path
     style="fill:#ff931e"
     inkscape:connector-curvature="0"
     id="path716"
     d="m 742.25128,958.1771 c 0,3.83889 -3.11194,6.95083 -6.95082,6.95083 -3.83888,0 -6.95083,-3.11194 -6.95083,-6.95083 0,-3.83888 6.95083,-19.80158 6.95083,-19.80158 0,0 6.95082,15.9627 6.95082,19.80158 z" /><path
     style="fill:#ff931e"
     inkscape:connector-curvature="0"
     id="path718"
     d="m 729.76376,958.1771 c 0,3.83889 -3.11194,6.95083 -6.95083,6.95083 -3.83888,0 -6.95082,-3.11194 -6.95082,-6.95083 0,-3.83888 6.95082,-19.80158 6.95082,-19.80158 0,0 6.95083,15.9627 6.95083,19.80158 z" /><path
     style="fill:#ff931e"
     inkscape:connector-curvature="0"
     id="path720"
     d="m 736.00752,949.93291 c 0,3.83888 -3.11194,6.95082 -6.95082,6.95082 -3.83889,0 -6.95083,-3.11194 -6.95083,-6.95082 0,-3.83889 6.95083,-19.80158 6.95083,-19.80158 0,0 6.95082,15.96269 6.95082,19.80158 z" /><circle
     style="fill:#231e1c"
     sodipodi:ry="16.947001"
     sodipodi:rx="16.947001"
     sodipodi:cy="1181"
     sodipodi:cx="2574.895"
     d="m 2591.842,1181 c 0,9.3596 -7.5874,16.947 -16.947,16.947 -9.3596,0 -16.947,-7.5874 -16.947,-16.947 0,-9.3596 7.5874,-16.947 16.947,-16.947 9.3596,0 16.947,7.5874 16.947,16.947 z"
     id="circle724"
     r="16.947001"
     cy="1181"
     cx="2574.895"
     transform="matrix(0.48495255,0,0,0.48495255,-538.40753,404.92723)" /><circle
     style="fill:#231e1c"
     sodipodi:ry="16.948"
     sodipodi:rx="16.948"
     sodipodi:cy="1181"
     sodipodi:cx="2590.5791"
     d="m 2607.5271,1181 c 0,9.3601 -7.5879,16.948 -16.948,16.948 -9.3601,0 -16.948,-7.5879 -16.948,-16.948 0,-9.3601 7.5879,-16.948 16.948,-16.948 9.3601,0 16.948,7.5879 16.948,16.948 z"
     id="circle726"
     r="16.948"
     cy="1181"
     cx="2590.5791"
     transform="matrix(0.48495255,0,0,0.48495255,-538.40753,404.92723)" /><circle
     style="fill:#231e1c"
     sodipodi:ry="16.947001"
     sodipodi:rx="16.947001"
     sodipodi:cy="1181"
     sodipodi:cx="2613.947"
     d="m 2630.894,1181 c 0,9.3596 -7.5874,16.947 -16.947,16.947 -9.3595,0 -16.947,-7.5874 -16.947,-16.947 0,-9.3596 7.5875,-16.947 16.947,-16.947 9.3596,0 16.947,7.5874 16.947,16.947 z"
     id="circle728"
     r="16.947001"
     cy="1181"
     cx="2613.947"
     transform="matrix(0.48495255,0,0,0.48495255,-538.40753,404.92723)" /><circle
     style="fill:#231e1c"
     sodipodi:ry="16.947001"
     sodipodi:rx="16.947001"
     sodipodi:cy="1181"
     sodipodi:cx="2637"
     d="m 2653.947,1181 c 0,9.3596 -7.5874,16.947 -16.947,16.947 -9.3596,0 -16.947,-7.5874 -16.947,-16.947 0,-9.3596 7.5874,-16.947 16.947,-16.947 9.3596,0 16.947,7.5874 16.947,16.947 z"
     id="circle730"
     r="16.947001"
     cy="1181"
     cx="2637"
     transform="matrix(0.48495255,0,0,0.48495255,-538.40753,404.92723)" /><polygon
     points="2368.333,1171.667 2383,1178 2415,1178 2436,1187 2470,1185 2491,1196 2490,1221 2296,1232 2116,1190 2130.526,1152.023 2188,1150 2211,1155 2218,1162 2290,1139 2344,1159 "
     id="polygon736"
     transform="matrix(0.48495255,0,0,0.48495255,-538.40753,404.92723)"
     style="fill:#231e1c" /><polygon
     points="3336.825,1142.26 3283.029,1098.887 3261.511,1062.573 3222.506,1056.521 3158.751,1089.028 3104.153,1172.857 3153.916,1217.24 3287.063,1228 3357,1210.517 "
     id="polygon49"
     transform="matrix(0.48495255,0,0,0.48495255,-538.40753,404.92723)"
     style="fill:#231e1c" /><path
     d="m 754.90997,981.02516 44.0284,-39.91887 35.2231,4.69628 13.5025,-22.30782 27.5914,-8.80528 11.1539,-17.02426 23.4814,-14.08981 33.4617,20.54647 1.1741,23.48188 c 0,0 8.8058,22.30782 10.5666,24.65645 1.7614,2.34814 12.3285,29.35223 12.3285,29.35223 l -1.7614,24.65597 -210.7502,-25.24324 z"
     id="path706"
     inkscape:connector-curvature="0"
     style="fill:#231e1c" /><circle
     style="fill:#231e1c"
     sodipodi:ry="16.947001"
     sodipodi:rx="16.947001"
     sodipodi:cy="1181"
     sodipodi:cx="2653"
     d="m 2669.947,1181 c 0,9.3596 -7.5874,16.947 -16.947,16.947 -9.3596,0 -16.947,-7.5874 -16.947,-16.947 0,-9.3596 7.5874,-16.947 16.947,-16.947 9.3596,0 16.947,7.5874 16.947,16.947 z"
     id="circle732"
     r="16.947001"
     cy="1181"
     cx="2653"
     transform="matrix(0.48495255,0,0,0.48495255,-538.40753,404.92723)" /><path
     d="m 928.72867,824.42379 -25.5716,76.3005 5.593,34.01263 -14.4608,21.25062 -7.4906,57.43006 8.0977,19.5465 78.091,16.2396 43.45223,-126.40874 c 0,0 -24.68213,-73.60803 -25.22673,-75.01682 -0.5451,-1.40879 -42.6812,-29.39055 -42.6812,-29.39055 l -19.803,6.0362 z"
     id="path734"
     inkscape:connector-curvature="0"
     style="fill:#231e1c" /><path
     d="m 1011.8999,925.59266 c -2.4281,0.45925 -5.5488,-0.99998 -6.9823,-2.81903 -2.3869,-4.38785 -1.7303,-9.99051 1.982,-13.70282 4.5178,-4.51782 11.3134,-4.40386 15.8318,0.11445 1.884,1.88404 2.1444,5.71468 2.9097,8.40568 l -8.0827,8.56766 c 0,0 -2.6682,-1.13188 -5.6585,-0.56594 z"
     id="path768"
     inkscape:connector-curvature="0"
     style="fill:#808080" /><circle
     style="fill:#231e1c"
     sodipodi:ry="5.9260001"
     sodipodi:rx="5.9260001"
     sodipodi:cy="1047.363"
     sodipodi:cx="3211.427"
     d="m 3217.353,1047.363 c 0,3.2729 -2.6532,5.926 -5.926,5.926 -3.2728,0 -5.926,-2.6531 -5.926,-5.926 0,-3.2728 2.6532,-5.926 5.926,-5.926 3.2728,0 5.926,2.6532 5.926,5.926 z"
     id="circle770"
     r="5.9260001"
     cy="1047.363"
     cx="3211.427"
     transform="matrix(0.48495255,0,0,0.48495255,-538.40753,404.92723)" /><circle
     style="fill:#231e1c"
     sodipodi:ry="5.9260001"
     sodipodi:rx="5.9260001"
     sodipodi:cy="1059.515"
     sodipodi:cx="3199.2739"
     d="m 3205.1999,1059.515 c 0,3.2729 -2.6531,5.926 -5.926,5.926 -3.2728,0 -5.926,-2.6531 -5.926,-5.926 0,-3.2728 2.6532,-5.926 5.926,-5.926 3.2729,0 5.926,2.6532 5.926,5.926 z"
     id="circle772"
     r="5.9260001"
     cy="1059.515"
     cx="3199.2739"
     transform="matrix(0.48495255,0,0,0.48495255,-538.40753,404.92723)" /><polyline
     style="fill:#231e1c"
     id="polyline774"
     points="3216.48,1059.383 3211.296,1059.383 3211.295,1064.569  "
     transform="matrix(0.48495255,0,0,0.48495255,-538.40753,404.92723)" /><polygon
     points="1176.668,-1126.501 1235,-1126.501 1252,-203.834 1160,-203.834 "
     id="polygon462"
     transform="matrix(0.48495255,0,0,0.48495255,-538.40753,404.92723)"
     style="fill:#231e1c;display:inline" /></g><g
   inkscape:groupmode="layer"
   id="layer7"
   inkscape:label="physics"
   style="display:inline"><path
     style="fill:none;stroke:#000000;stroke-width:1px;stroke-linecap:butt;stroke-linejoin:miter;stroke-opacity:1;display:inline"
     d="m -417.55209,-141.23212 43.62444,448.20228 23.81991,-2.6966 96.62794,1.3483 75.50462,-3.59546 75.50462,-2.69659 132.13309,-17.97729 62.471087,-2.6966 61.122793,8.53922 67.41484,4.94375 62.92052,11.68524 61.57222,-0.89886 55.7296,-5.84262 20.67389,-2.24717 31.90969,9.43808 12.5841,17.52786 1.79773,35.05572 4.94376,30.56139 -10.78638,52.13415 -7.64035,77.75178 -9.43808,14.38183 -12.13467,121.34672 -8.53921,-35.95458 -46.74096,39.99947 -3.59546,57.52733 -8.98864,19.32559 2.24716,9.43808 -10.78637,24.26934 0.44943,4.94375 -17.07843,28.31424 2.24716,21.12331 27.8648,8.53922 18.42673,54.83074 22.47161,23.37047 7.19092,13.9324 8.53921,1.3483 12.5841,-10.78637 13.03354,-0.89887 5.39319,2.24716 17.07842,21.12332 5.84262,4.04489 13.03354,-1.79773 4.49432,22.47162 1.79773,7.64034 28.31424,-1.79772 13.03353,5.84262 31.46026,-11.68524 34.15685,14.83126 26.51651,4.94376 26.06707,2.69659 20.22445,-5.39319 7.19092,1.79773 6.74148,5.84262"
     id="path4485"
     inkscape:connector-curvature="0"
     sodipodi:nodetypes="ccccccccccccccccccccccccccccccccccccccccccccccccccccc" /><path
     style="fill:none;stroke:#000000;stroke-width:1px;stroke-linecap:butt;stroke-linejoin:miter;stroke-opacity:1;display:inline"
     d="m 595.49777,968.9839 18.87615,10.78637 18.87616,0.44944 22.92104,6.74148 23.81991,-8.53921 12.13468,5.39318 14.38183,2.6966 0,-13.48297 42.69607,-0.44943 10.33694,8.53921 39.99947,-37.75231 39.99947,4.49432 10.78638,-23.37048 28.76366,-7.19091 11.23581,-18.42673 22.92105,-14.38183 17.52786,-59.77449 18.87615,-4.94376 39.55004,26.51651 24.71876,73.25746 27.4154,2.24716 10.3369,17.97729 25.6177,19.32559 9.8875,30.56139 418.8709,1.3483 0,-230.55876"
     id="path4487"
     inkscape:connector-curvature="0" /><path
     style="fill:none;stroke:#000000;stroke-width:1px;stroke-linecap:butt;stroke-linejoin:miter;stroke-opacity:1"
     d="m 667.37289,-182.41526 12.03324,51.45966 -12.66884,384.55729 -11.44068,6.35594 -12.71186,-2.54238 -16.52543,8.26272 -15.88983,15.88983 -14.61864,31.14406 -15.25424,33.68644 3.17797,15.88984 -9.5339,40.04237 8.8983,153.81356 -1.27118,8.26271 5.08474,27.33051 5.08475,-22.88136 6.99152,-19.70339 6.35594,17.16102 5.72034,8.8983 0.63559,15.88983 5.72034,34.32204 1.27118,21.61017 3.17797,19.06779 3.81356,-23.51694 -1.90678,-34.32204 8.26271,-26.05932 3.81356,13.34746 1.27119,17.16101 6.35593,-18.4322 3.81356,-21.61017 12.07627,-0.63559 6.35593,-13.98305 47.66949,-12.71187 49.57628,2.54238 33.05084,-14.61865 86.44068,0 41.31356,-20.33898 68.00847,-92.79661 10.16948,-31.77966 -3.17795,-124.57627 -9.5339,-19.0678 1.27119,-373.09322 18.43216,-46.39831"
     id="path4492"
     inkscape:connector-curvature="0"
     sodipodi:nodetypes="cccccccccccccccccccccccccccccccccccccccccc" /></g></svg>