<?xml version="1.0" encoding="UTF-8" standalone="no"?>
<svg
   xmlns:dc="http://purl.org/dc/elements/1.1/"
   xmlns:cc="http://creativecommons.org/ns#"
   xmlns:rdf="http://www.w3.org/1999/02/22-rdf-syntax-ns#"
   xmlns:svg="http://www.w3.org/2000/svg"
   xmlns="http://www.w3.org/2000/svg"
   xmlns:sodipodi="http://sodipodi.sourceforge.net/DTD/sodipodi-0.dtd"
   xmlns:inkscape="http://www.inkscape.org/namespaces/inkscape"
   with="744"
   height="1052"
   id="svg2"
   version="1.1"
   inkscape:version="0.48.3.1 r9886"
   width="100%"
   sodipodi:docname="objects.svg">
  <metadata
     id="metadata20">
    <rdf:RDF>
      <cc:Work
         rdf:about="">
        <dc:format>image/svg+xml</dc:format>
        <dc:type
           rdf:resource="http://purl.org/dc/dcmitype/StillImage" />
      </cc:Work>
    </rdf:RDF>
  </metadata>
  <defs
     id="defs18" />
  <sodipodi:namedview
     pagecolor="#ffffff"
     bordercolor="#666666"
     borderopacity="1"
     objecttolerance="10"
     gridtolerance="10"
     guidetolerance="10"
     inkscape:pageopacity="0"
     inkscape:pageshadow="2"
     inkscape:window-width="1304"
     inkscape:window-height="603"
     id="namedview16"
     showgrid="false"
     inkscape:zoom="0.8973384"
     inkscape:cx="349.72489"
     inkscape:cy="943.8662"
     inkscape:window-x="0"
     inkscape:window-y="0"
     inkscape:window-maximized="0"
     inkscape:current-layer="svg2" />
  <g
     id="tree4"
     transform="translate(-560,880)"
     style="fill:#000000">
    <polygon
       id="polygon4"
       points="383.85,-412.55 437.25,-392.62 461.76,-404.79 484.25,-422.78 505.24,-476.76 518.74,-595.2 538.23,-692.65 548.88,-718.61 554.73,-743.62 536.74,-763.11 496.26,-767.61 422.78,-767.61 376.31,-760.11 326.83,-745.12 271.36,-731.63 230.88,-733.13 155.92,-743.62 122.93,-734.63 97.45,-721.13 65.96,-706.14 142.42,-757.12 158.92,-763.11 184.4,-764.61 212.89,-758.62 230.88,-761.61 268.36,-766.11 304.34,-770.61 332.83,-781.1 367.31,-790.1 398.3,-809.09 424.28,-811.09 475.27,-812.59 502.25,-815.59 529.24,-826.08 553.23,-835.08 568.22,-848.57 580.22,-868.06 581.71,-893.05 584.7,-917.54 587.7,-943.02 587.7,-968.51 587.7,-995.5 586.2,-1019.49 922.03,-1026.98 1209.93,-1025.48 1214.43,-986.5 1221.93,-967.01 1232.42,-947.52 1241.42,-923.53 1241.42,-889.05 1247.42,-866.56 1269.17,-853.46 1302.89,-845.57 1343,-842.8 1384.88,-848.08 1472.38,-877.09 1454.38,-862.1 1435.38,-847.61 1438.38,-841.61 1449.76,-844.98 1432.47,-827.26 1446.07,-827.24 1469.39,-826.11 1366.4,-784.11 1266.91,-758.62 1256.41,-749.62 1248.92,-730.13 1248.92,-704.64 1244.42,-685.15 1236.92,-668.66 1230.92,-626.68 1227.93,-581.7 1241.42,-569.71 1256.41,-547.22 1247.42,-535.23 1260.91,-520.23 1271.4,-491.75 1275.9,-464.76 1275.9,-439.28 1278.9,-409.29 1292.39,-365.81 1320.88,-337.33 1353.86,-338.83 1395.84,-376.31 1436.32,-392.8 1473.8,-379.31 1506.79,-355.32 1554.76,-334.33 1625.23,-296.85 1769.16,-79.46 1790.14,233.89 -86.21,218.22 -117.65,-199.89 22.29,-332.86 70.7,-356.54 111.17,-373.68 145.52,-393.99 182.55,-407.39 226.4,-405.12 272.87,-443.5 313.29,-452.24 "
       style="fill:#000000" />
  </g>
  <g
     id="tree3"
     transform="translate(-560,880)"
     style="fill:#000000">
    <polygon
       id="polygon6"
       points="899.49,-392.5 885,-394 867,-366 846.99,-333 829.5,-271 813.87,10.57 1233.49,11 1201,-274 1188.99,-336 1180.49,-377 1172.49,-398.5 1165,-439.5 1152.49,-530 1141.5,-571.5 1142.49,-593 1156.99,-598.5 1173,-602.5 1186.5,-604.5 1201.49,-608.5 1216,-613 1232,-622 1245.99,-628.5 1253.99,-635.5 1263.5,-645 1273.5,-653.5 1283,-658 1298.49,-663.5 1314.5,-665.5 1329.99,-668.5 1347.5,-672.5 1361.49,-673.5 1326.49,-673.5 1296.5,-671.5 1270,-665.5 1246.49,-650.5 1229.49,-642.5 1211.99,-633.5 1188.99,-625 1141.5,-617.5 1139.49,-650.5 1140,-681 1140.49,-706.5 1143.5,-739 1146.5,-765.5 1143.02,-839.32 1142.03,-957.98 1012.99,-1006 1016.46,-933.85 1014.44,-869.28 1006.35,-818.93 1013.99,-706.5 1010.99,-666 996.49,-576.5 992,-504 979,-435 964.5,-376.5 952.5,-371.5 931.99,-372 917.49,-383.5 "
       style="fill:#000000" />
  </g>
  <g
     id="tree2"
     transform="translate(-560,880)"
     style="fill:#000000">
    <polygon
       id="polygon8"
       points="611.49,-708 620.5,-775.5 656.5,-1027.5 809.5,-1026.5 808,-1015.5 767,-759.5 765.49,-701.5 762.99,-667.5 757,-623.5 755.99,-573.5 752.49,-532.5 752.49,-496 758.99,-434.5 768.5,-377 778.99,-322 790,-273.5 796.99,-243.5 835.54,19.31 394.88,20.24 481.49,-237 518.99,-321 545.49,-385 567.5,-462.5 586.49,-538.5 603.49,-625 "
       style="fill:#000000" />
  </g>
  <g
     id="tree1"
     transform="translate(-560,880)"
     style="fill:#000000">
    <polygon
       id="polygon10"
       points="277.49,-578 275,-550.5 267.49,-501.5 260.99,-461.5 255.5,-435 252,-409.5 247.99,-386.5 237.99,-346 230.99,-303 224.99,-274 130.79,25.54 950.6,17.4 655,-231 612.5,-298.5 577.5,-392 545.49,-472.5 535.99,-523.5 528.5,-553 518.99,-605 502.49,-688.5 500,-738.5 498.5,-779.5 495.01,-843.05 494.76,-954.84 305.95,-1004.97 306.19,-953.49 301.99,-825.85 293,-713.5 288.5,-668.5 286.5,-653 281.99,-624.5 280.49,-610.5 "
       style="fill:#000000" />
  </g>
  <g
     id="ground-background"
     transform="translate(-560,880)"
     style="fill:#000000">
    <polygon
       id="polygon12"
       points="587.5,-419 632.49,-424 747,-404.5 807.49,-364.5 828.49,-357.5 846.99,-359.5 933.99,-353 1015.49,-353 1074.99,-334.5 1168.49,-329 1214.99,-327.5 1265.49,-315 1363.5,-331.5 1438.99,-327 1486.49,-317 1522,-293.5 1595.5,-267.5 1658.5,-268 1724,-280 1750.5,-294 1816.49,-390.5 1857.99,-461 1884.49,-505.5 1965.5,-552.5 2000,-560 2000.5,212 -1,212.5 -1,-315.5 218.49,-327 307.49,-345 348.49,-348.5 426,-368.5 498.5,-395.5 "
       style="fill:#000000" />
  </g>
  <g
     id="ground"
     transform="translate(-560,880)">
    <polygon
       id="polygon14"
       points="1752.49,-526.5 1796.5,-541 1832.5,-543 1864.99,-544 1905,-533 1939.5,-526 1992.49,-510.5 2000.99,-510.5 2002.99,269.5 0,269 -3,-379 56.99,-375 144.49,-353.5 230.5,-339.5 322.5,-329.5 410.99,-310.5 535.99,-304.5 671.5,-303 767.99,-306.5 837.5,-310 1043.49,-336 1199.99,-343.5 1341,-372 1397.99,-393 1428.99,-372.5 1448.99,-363.5 1477.99,-323.5 1497,-283 1521.5,-256.5 1577.5,-235.5 1629.49,-229 1674.5,-252.5 1739.99,-248.5 1777.49,-241 1810.49,-261.5 1821.49,-305 1816.49,-337 1782.49,-382.5 1766.5,-427.5 1760,-459.5 1752.49,-476 "
       style="fill:#000000" />
  </g>
</svg>
