<?xml version="1.0" encoding="utf-8"?>
<!-- Generator: Adobe Illustrator 16.0.0, SVG Export Plug-In . SVG Version: 6.00 Build 0)  -->
<!DOCTYPE svg PUBLIC "-//W3C//DTD SVG 1.1//EN" "http://www.w3.org/Graphics/SVG/1.1/DTD/svg11.dtd">
<svg version="1.1" id="Layer_1" xmlns="http://www.w3.org/2000/svg" xmlns:xlink="http://www.w3.org/1999/xlink" x="0px" y="0px"
	 width="800px" height="600px" viewBox="0 0 800 600" enable-background="new 0 0 800 600" xml:space="preserve">
<rect x="1470.665" y="30.344" fill="#303030" width="2555.078" height="1287.157"/>
<path fill="#2D2C2B" d="M2327.26,984.444c0,0,79.629-70.37,85.185-72.222c5.556-1.853,77.778-1.853,77.778-1.853l33.333-51.852
	l55.556-38.889h53.703L2718,784.444l31.481-57.407l22.222-70.37l57.408-29.63L2871.703,590l70.371,5.556l20.37,37.037
	l111.111,116.667L3118,825.186l72.223,70.37l1.852,37.037l33.333,135.185l64.815,51.853v111.11l-768.52,9.26l-187.036-3.704
	l-88.89-48.147l27.778-112.963L2327.26,984.444z"/>
<path fill="#2D2C2B" d="M3685.14,1064.911l-82-47l-61,15l-15,22l-46,4l-72,33l-17,25l-50,35l-15,60c0,0,93,5,96,5s175-2,175-2l40,16
	c0,0,87-16,90-16s41.503-11.954,41.503-11.954l-41.503-91.046l-28-8L3685.14,1064.911z"/>
<path fill="#333230" d="M1855.001,723.002l68,82l9.333,44.666l28,19.334l36.667,67.333l-0.667,28l-88.666,57.333l-114-135.333
	c0,0-4.667-102.667-4.667-104.667s38.667-56.666,38.667-56.666L1855.001,723.002z"/>
<path fill="#333230" d="M2364,1041l82-47l61,15l15,22l46,4l72,33l17,25l50,35l15,60c0,0-93,5-96,5s-175-2-175-2l-40,16
	c0,0-87-16-90-16s-41.503-11.954-41.503-11.954L2321,1088l28-8L2364,1041z"/>
<polygon fill="#333230" points="1914,1002 1999,888 2056,888 2091,864 2123,816 2198,823 2217,857 2257,897 2299,924 2309,972 
	2380,1058 2393,1107 2427,1160 2435,1201 2285,1230 2029,1192 "/>
<rect x="381.51" y="-1330.456" fill="#534741" width="2781.49" height="1135.5"/>
<rect x="388.843" y="-1662.157" fill="#534741" width="2781.49" height="1474.535"/>
<path fill="#303030" d="M2537.107-563.937c-10.896-18.6-35.417-24.987-54.044-14.17c-26.782,15.553-45.11,42.169-56.809,70.177
	c1.327-3.146,2.654-6.291,3.981-9.436c-3.885,8.589-9.408,16.15-15.137,23.586c1.356-1.756,2.713-3.512,4.07-5.268
	c-3.972,5.159-7.677,10.171-10.902,15.876c-0.885,1.565-1.788,3.118-2.709,4.661c-4.816,2.208-9.243,5.333-12.489,8.58
	c-7.374,7.374-11.569,17.496-11.569,27.931s4.195,20.557,11.569,27.931c8.105,8.105,17.001,10.216,27.931,11.569
	c8.553,1.059,20.162-2.715,27.164-7.502c9.449-6.46,14.013-12.133,20.821-21.238c4.565-6.105,7.6-13.151,11.865-19.433
	c3.386-4.362,6.733-8.755,9.885-13.287c4.052-5.825,6.979-11.942,9.733-18.329c-0.454,1.075-0.908,2.15-1.361,3.225
	c3.207-6.704,6.961-13.083,11.225-19.146c2.927-3.442,6.049-6.692,9.417-9.703c1.043-0.685,2.101-1.35,3.188-1.98
	C2541.525-520.688,2547.964-545.403,2537.107-563.937z"/>
<path fill="#303030" d="M2602.939-390.179c-1.256-6.156-2.584-12.322-4.004-18.447c-0.748-3.231-1.623-6.54-2.646-9.861
	c1.721-4.231,2.658-8.786,2.637-13.513c-0.049-10.804-1.912-21.686-3.627-32.325c-1.582-9.811-3.945-19.63-7.921-28.875
	c-6.903-16.054-15.773-30.872-32.687-39.916c-13.152-7.033-26.76-7.564-41.354-5.404c-10.339,1.53-18.568,7.022-26.444,12.839
	c-0.159,0.094-0.315,0.194-0.476,0.287c-6.663,2.045-13.112,4.182-19.742,6.831c-8.859,3.54-16.402,9.796-23.673,15.527
	c-9.433,7.435-17.608,16.068-27.173,23.355c-35.01,23.896-73.207,44.421-112.037,62.489c-20.471,9.526-41.216,18.548-61.768,27.924
	c-18.557,8.465-36.488,18.326-55.355,26.21c-15.474,5.431-31.3,8.736-47.714,11.257c-18.163,2.79-36.202,6.748-54.374,9.461
	c-9.695,0.852-19.43,0.979-29.18,0.938c-11.132-0.045-22.105-0.134-33.145-1.268c-8.314-1.087-16.635-2.166-25.005-2.789
	c-11.09-0.826-22.235,0.447-33.123,2.368c-14.402,2.541-26.35,15.12-30.091,27.588c-2.053,7-2.053,14,0,21.001
	c3.209,10.694,10.367,17.288,19.799,23.606c12.053,8.075,24.49,15.722,37.993,21.62c8.989,3.925,18.349,7.669,28.072,9.799
	c10.905,2.389,22.533,3.184,33.743,3.71c15.453,0.726,30.966-0.135,46.383-1.213c4.768,2.025,9.574,3.971,14.525,5.631
	c11.13,3.731,23.773,4.619,35.511,4.99c19.514,0.618,39.098-2.57,58.419-5.178c9.74-0.984,19.627-1.401,29.119-3.688
	c8.818-2.125,16.418-6.181,23.981-10.435c2.534,2.303,5.394,4.274,8.561,5.763c17.421,8.19,34.503,7.626,52.931,4.534
	c35.484-3.566,71.099-5.676,106.3-11.409c33.614-5.475,66.438-15.015,97.693-27.55c15.077-6.047,29.366-14.74,40.958-25.462
	c5.941-5.496,11.708-11.948,16.047-18.478c3.347-5.038,5.01-9.596,6.025-14.554c2.524-2.344,4.658-4.98,7.768-8.939
	c5.723-7.284,7.363-18.631,7.891-27.142C2606.196-375.967,2604.352-383.259,2602.939-390.179z"/>
<rect x="2021" y="-263" fill="#303030" width="412" height="508"/>
<path fill="#493F3A" d="M1676.177-355.234c-7.879-10.984-17.859-18.736-31.313-21.679c-9.05-1.979-18.241-1.88-27.384-2.775
	c-8.114-1.21-16.059-2.388-24.402-2.06c-9.042,0.356-18.02,1.565-27.078,1.646c-18.951,0.168-37.566,4.05-56.257,6.819
	c-16.639,1.896-33.466,1.672-50.192,1.611c-18.185-0.066-36.366-0.418-54.551-0.431c-1.828-0.001-3.617,0.186-5.355,0.532
	c-0.67-0.291-1.343-0.577-2.013-0.868c-9.082-3.948-18.021-9.685-27.841-11.428c-12.22-2.169-23.9-0.091-35.921,1.773
	c-2.392,0.229-4.772,0.35-7.171,0.295c-0.418-0.102-0.835-0.19-1.256-0.305c-14.712-4.033-30.395,4.839-34.443,19.557
	c-4.043,14.698,4.846,30.411,19.557,34.443c14.295,3.918,27.935,1.511,42.09-0.628c1.916-0.195,3.829-0.323,5.748-0.327
	c0.176,0.049,0.353,0.094,0.529,0.146c0.337,0.168,0.678,0.328,1.014,0.5c3.634,1.824,7.354,3.425,11.083,5.046
	c10.097,4.389,20.237,8.716,30.581,12.496c7.835,2.864,15.897,5.262,24.054,7.02c8.918,1.921,18.071,2.384,27.133,3.32
	c1.598,0.281,3.188,0.6,4.774,0.977c0.824,0.196,1.637,0.43,2.443,0.684c0.766,0.3,1.692,0.684,2.259,0.989
	c7.018,3.775,13.694,7.452,21.371,9.964c12.095,3.959,27.011,4.677,39.711,3.567c14.128-1.235,26.64-5.422,39.649-10.737
	c10.462-4.274,20.881-7.57,31.972-9.392c8.956-1.01,17.925-1.752,26.869-2.873c-0.612,0.083-1.225,0.165-1.837,0.247
	c15.403-1.604,32.655-0.988,46.132-9.823C1677.961-324.679,1685.408-342.366,1676.177-355.234z"/>
<path fill="#493F3A" d="M1499.355-343.441c-12.841-13.933-33.666-21.654-51.442-26.646c-10.919-3.066-22.402-3.718-33.648-5.068
	c-12.176-1.749-24.331-3.957-36.069-7.664c-13.291-4.197-25.82-10.468-39.109-14.685c-29.485-9.354-61.216-9.026-91.833-9.889
	c-30.635-0.863-61.252-2.294-91.898-2.707c-14.898-0.201-29.828-0.21-44.72,0.299c-11.762,0.402-23.561,1.204-35.295,0.161
	c-12.413-2.326-24.307-7.154-36.311-10.934c-6.906-2.175-13.969-3.581-20.963-5.377c-7.633-1.96-15.627-2.205-23.487-2.909
	c-4.335-0.929-8.538-2.384-12.925-3.159c-11.484-2.028-21.808-1.577-32.452,3.549c-12.188,5.869-20.101,18.23-20.683,31.603
	c-0.963,22.121,21.233,33.187,39.222,37.941c22.342,5.905,45.434,6.684,68.259,9.291v21.131c0,15.789-4.876,34.047,4.457,48.193
	c15.018,22.761,43.521,22.212,67.712,20.621c12.753-0.839,25.633-0.457,38.41-0.619c16.388-0.208,32.761-0.113,49.142,0.424
	c7.487,0.246,14.95,1.017,22.432,1.396c8.316,0.422,16.411-0.292,24.675-1.114c16.209-1.612,32.496-2.381,48.78-2.648
	c32.637-0.535,65.274,1.353,97.785,4.06c14.08,1.172,28.052,3.015,42.189,1.665c16.974-1.621,32.421-6.091,47.533-14.105
	c14.179-7.519,26.028-17.437,31.544-32.83C1515.766-317.711,1508.931-333.051,1499.355-343.441z"/>
<path fill="#303030" d="M487-232h-66c-15.264,0-28,12.737-28,28s12.736,28,28,28h66c15.264,0,28-12.737,28-28S502.264-232,487-232z"
	/>
<path fill="#303030" d="M1156.443-262c-23.209-6.028-47.286-7.003-71.01-9.847c-7.064-1.047-14.068-2.355-20.99-4.153
	c-14.763-3.834-30.354,4.692-34.443,19.557c-4.002,14.548,4.79,30.608,19.557,34.443c23.209,6.028,47.286,7.003,71.011,9.847
	c7.063,1.047,14.067,2.355,20.989,4.153c14.763,3.834,30.354-4.692,34.443-19.557C1180.002-242.104,1171.21-258.165,1156.443-262z"
	/>
<path fill="#303030" d="M2052.178-313.132c-7.382-12.861-21.521-18.845-35.334-21.978c-4.262-0.967-8.583-1.644-12.859-2.535
	c-6.57-1.371-13.066-4.242-19.354-6.557c-27.978-10.302-55.084-22.817-83.187-32.798c-29.098-10.334-60.168-15.375-90.955-16.724
	c-14.299-0.626-28.635-0.146-42.887,1.094c-15.476,1.346-30.657,4.253-45.98,6.513c-15.975,1.817-32.468,2.19-47.848,7.014
	c-8.679,2.722-17.016,6.612-25.34,10.235c-0.686,0.298-1.372,0.595-2.058,0.893c-0.849,0.36-2.448,1.041-3.124,1.312
	c-4.062,1.636-8.145,3.224-12.228,4.805c-16.456,6.373-33.344,11.452-49.587,18.34c-7.313,3.102-14.453,6.594-21.381,10.479
	c-2.062,1.156-4.039,2.407-5.991,3.718c-7.648,0.621-15.255,1.718-22.71,3.549c-14.12,3.469-27.408,10.633-40.076,17.614
	c-22.465,12.38-43.463,27.24-64.411,41.981c-10.386,7.308-16.413,18.731-12.868,31.621c1.926,6.999,6.608,13.067,12.868,16.734
	c7.043,4.126,13.811,4.052,21.575,2.823c13.978-2.213,26.53-9.013,40-13c7.225-2.139,14.508-4.27,21.6-6.816
	c3.198-1.148,6.375-2.541,9.484-3.885c-5.807,2.517-0.211,0.35,1.191-0.133c3.503-1.208,7.015-2.389,10.522-3.583
	c15.643-5.325,30.889-11.443,45.692-18.8c3.198-1.589,6.415-3.138,9.652-4.644c0.634-0.294,1.275-0.569,1.913-0.855
	c0.854-0.358,2.206-0.926,2.848-1.174c6.149-2.379,12.489-4.176,18.967-5.342c13.305-1.383,26.727-1.704,40.035-3.067
	c16.407-1.681,32.348-5.463,48.597-7.943c20.761-2.552,41.667-3.458,62.527-4.863c22.789-1.535,45.163-5.185,67.723-8.396
	c11.352-1.386,22.46-1.855,33.839-0.661c20.272,3.219,40.278,8.828,60.164,13.751c24.071,5.96,47.894,10.597,72.484,13.859
	c-2.481-0.333-4.962-0.667-7.443-1c8.226,1.146,16.45,2.582,24.755,2.975c10.403,0.492,19.791-1.985,29.138-6.245
	C2056.107-281.192,2059.184-300.924,2052.178-313.132z"/>
<path fill="#493F3A" d="M1058.508-388.36c-1.178-8.085-8.345-15.642-14.813-19.817c-2.521-1.627-5.307-2.602-8.104-3.728
	c-2.61-1.252-5.164-2.624-7.835-3.771c-4.845-2.078-9.72-4.067-14.598-6.063c7.712,3.156,2.135,0.873,0.533,0.134
	c-2.001-0.924-3.925-1.988-5.824-3.104c-5.949-3.493-11.646-6.901-17.95-9.778c-6.859-3.131-13.298-6.529-19.677-10.547
	c-13.146-8.281-28.475-13.833-43.642-17.019c-15.426-3.24-31.344-4.441-47.081-4.69c-14.113-0.224-28.448-0.212-42.524,0.859
	c-22.01,1.675-42.805,6.416-63.069,15.046c-3.734,1.59-7.435,3.254-11.14,4.91c-0.625,0.279-2.139,0.926-3.323,1.433
	c-1.511,0.595-3.029,1.171-4.557,1.724c-7.553,2.733-15.456,4.564-23.388,5.853c-9.261,0.985-18.563,1.139-27.841,0.236
	c-12.416-2.059-24.581-5.271-37.278-5.721c-14.199-0.503-28.367-1.61-42.58-1.712c-13.925-0.1-27.927,1.14-41.818,2.03
	c-15.409,0.988-31.089,2.664-45.938,7.048c-14.34,4.234-27.974,10.784-41.677,16.696c-3.022,1.249-6.065,2.461-9.045,3.8
	c-3.045,1.367-6.005,2.892-8.974,4.413c-1.012,0.518-2.028,1.024-3.05,1.52c-0.204,0.101-0.379,0.188-0.539,0.268l-2.536,1.07
	c0.446-0.202-0.069-0.013-1.568,0.575c-1.656,0.636-3.342,1.195-5.022,1.758c-24.788,8.306-51.037,14.205-76.914,18.269
	c-1.905,0.178-3.811,0.299-5.738,0.333c-15.258,0.269-28,12.533-28,28c0,6.343,2.266,12.353,6.021,17.171
	c-1.393,2.436-2.47,4.969-3.139,7.337c-1.98,7.015-1.136,12.437,0.058,19.458c1.204,7.082,3.277,14.196,5.057,21.155
	c6.07,23.733,23.842,44.463,49.934,44.95c15.235,0.284,28.859-10.872,32.38-25.511c0.285-1.184,0.494-2.358,0.658-3.528
	c6.01,9.583,15.528,15.379,26.048,19.025c4.102,1.421,8.4,2.014,12.716,1.913c6.226,9.176,17.211,16.676,27.361,19.215
	c9.369,2.343,18.88,1.368,27.61-2.206c1.636,0.735,3.292,1.441,4.961,2.137c14.787,6.171,32.015,4.707,47.412,2.458
	c11.978-1.749,23.262-6.176,34.181-11.254c3.628-1.688,7.188-3.644,10.654-5.785c5.66-0.118,11.465-1.727,17.414-4.501
	c5.621-2.622,10.358-7.249,15.01-11.278c1.277-1.106,2.51-2.279,3.718-3.484c1.862,0.808,3.732,1.549,5.565,2.241
	c9.325,3.519,19.108,2.564,28.654,1.214c7.146-1.01,13.383-3.974,18.74-8.155c13.649,8.46,30.717,10.614,46.896,7.682
	c18.172,17.936,48.987,16.429,71.365,8.807c8.294-2.825,15.917-6.446,23.039-11.037c2.506,0.302,5.042,0.507,7.584,0.594
	c7.265,7.772,16.509,13.519,27.477,15.471c15.939,2.837,31.373-0.687,44.118-9.822c4.002,1.377,8.146,1.989,12.031,1.489
	c6.243-0.804,12.05-1.74,17.379-5.443c0.272-0.189,0.523-0.378,0.788-0.566c2.467,1.254,5.151,2.141,8.028,2.582
	c2.235,6.053,6.561,11.242,12.147,14.515c13.538,7.931,30.138,2.81,38.309-10.045c4.786-7.529,6.818-16.26,7.279-25.339
	c0.152-0.635,0.306-1.27,0.443-1.903c1.784-8.21,3.325-16.473,4.86-24.732c2.599-13.975,4.283-28.77,8.968-42.224
	c1.585-4.553,3.166-9.139,3.827-13.932C1059.689-377.896,1059.726-379.998,1058.508-388.36z M590.276-327.128
	c0.043-0.039,0.088-0.077,0.131-0.115c0.031,0.032,0.552-0.319,1.28-0.825c-0.021,0.431-0.042,0.861-0.067,1.292
	c-0.529,0.308-1.06,0.615-1.596,0.913C590.109-326.285,590.194-326.706,590.276-327.128z M836.448-409.274
	c-0.418-0.021-0.835-0.051-1.254-0.064c-0.2-0.096-0.404-0.186-0.604-0.28c0.782-0.069,1.565-0.135,2.35-0.196
	C836.775-409.635,836.611-409.456,836.448-409.274z"/>
<path fill="#303030" d="M2177.301-267.725c-11.385-9.3-28.598-14.81-44.357-18.345c-13.445-3.016-27.346-4.769-41.113-6.715
	c-17.436-2.863-34.363-7.186-51.798-10.146c-20.591-3.497-41.365-6.247-61.899-9.96c-22.85-4.132-44.607-9.614-68.242-10.229
	c-10.063-0.261-20.094,0.267-30.151,0.006c-11.218-0.29-22.43-0.914-33.633-1.549c-21.353-1.212-42.703-2.544-64.083-2.391
	c-24.234,0.175-47.099,3.261-70.771,6.068c-42.282,5.014-85.434,5.916-126.903,14.029c-14.377,2.813-27.826,7.199-40.972,12.164
	c-5.231,1.975-10.46,3.941-15.806,5.747c-1.32,0.447-2.654,0.866-3.996,1.274c1.573-0.524-4.195,0.939-6.043,1.285
	c-12.465,2.333-24.629,5.145-36.955,7.776c-11.411,2.434-23.288,3.619-35.169,4.348c-24.151,0.963-48.422,0.885-72.382,3.303
	c-20.839,2.103-40.775,7.417-61.636,9.243c-20.464,0.362-40.948-2.066-61.385-3.157c-20.492-1.094-38.242,10.864-39.011,26.064
	c-0.772,15.288,15.692,28.771,36.184,29.864c29.082,1.554,57.569,4.851,86.546,1.684c12.162-1.329,23.944-4.027,35.88-6.063
	c6.262-1.068,12.619-1.895,19.02-2.552c1.522,2.156,3.396,4.211,5.585,6.152c14.163,12.557,37.622,15.938,58.133,16.605
	c15.88,0.517,31.75-0.574,47.545-1.457c60.64-2.632,122.267,1.072,183.045,2.623c32.393,0.826,64.772,2.334,97.142,3.942
	c13.675,0.679,27.342,1.58,41.018,2.229c18.873,0.894,36.63-0.648,54.006-5.764c6.593-1.941,11.688-5.731,15.074-10.389
	c22.477,2.025,44.869,4.543,67.022,7.783c8.826,1.391,17.663,2.869,26.513,4.364c9.07,6.948,21.99,9.396,35.33,8.344
	c3.662-0.289,7.329-0.553,10.998-0.792c27.758,4.13,55.672,7.154,83.803,6.841c7.879,1.279,15.97,1.431,23.393,0.201
	c20.782-3.445,32.798-15.843,39.926-29.813c1.86-3.647,2.955-7.433,5.047-11.016c1.937-3.32,4.152-6.536,5.91-9.918
	C2195.408-240.076,2191.23-256.344,2177.301-267.725z"/>
<path fill="#303030" d="M850.068-239.384c-0.362-0.03-0.724-0.071-1.086-0.103c-2.662-12.621-14.071-22.504-27.413-22.396
	c-7.631,0.062-15.182,0.796-22.695,1.843c-1.405-0.225-2.843-0.343-4.304-0.343h-52.919c1.063-16.554-20.039-32.36-35.52-25.999
	c-7.26,2.983-9.976,4.676-16.162,9.51c-3.896,3.045-6.995,7.843-9.794,11.69c-0.075,0.104-0.137,0.216-0.209,0.321
	c-14.988,0.495-27.391,12.788-27.391,27.978c0,15.131,12.735,28.175,28,28c2.77-0.032,5.533-0.194,8.279-0.483
	c1.562,1.171,3.161,2.282,4.862,3.28c4.403,2.585,9.356,4.4,14.2,5.987c14.922,4.887,31.139,4.149,46.544,3.084
	c6.175-0.427,12.296-1.216,18.394-2.171c25.631,5.811,50.801,13.608,77.213,15.801c15.232,1.265,28-13.694,28-28
	C878.068-227.603,865.272-238.122,850.068-239.384z"/>
<polygon fill="#2D1D16" points="5594.522,305.903 4749.128,286.903 4807.062,-82.535 5594.522,-32.764 "/>
<rect x="4937.128" y="295.903" fill="#65392B" width="494" height="43"/>
<polygon fill="#44261D" points="4997.46,98.651 5026.127,110.059 5048.793,175.049 5074.46,203.74 5095.793,245.223 
	5113.46,287.743 5080.127,308.486 4998.46,291.894 4953.127,270.806 4955.46,220.682 4910.794,137.972 4981.46,104.013 "/>
<polygon fill="#231E1C" points="2506.618,1174.672 2459.213,1198.842 2418.618,1261.172 2455.618,1294.172 2554.618,1302.172 
	2588.618,1288.172 2591.618,1238.422 2551.618,1206.172 2535.618,1179.172 "/>
<polygon fill="#231E1C" points="3222.506,1056.521 3158.751,1089.028 3104.153,1172.857 3153.916,1217.24 3287.063,1228 
	3357,1210.517 3336.825,1142.26 3283.029,1098.887 3261.511,1062.573 "/>
<polygon fill="#44261D" points="4211,756.5 4163.595,780.67 4123,843 4160,876 4259,884 4293,870 4296,820.25 4256,788 4240,761 "/>
<polygon fill="#FF00FF" points="4896,1268.5 4848.595,1292.67 4808,1355 4845,1388 4944,1396 4978,1382 4981,1332.25 4941,1300 
	4925,1273 "/>
<rect x="1344.891" y="24.513" fill="#303030" width="1643.543" height="159.502"/>
<circle fill="#303030" cx="81.002" cy="2170.231" r="47.444"/>
<rect x="1106.025" y="2524.779" fill="#874C39" width="1291.729" height="1171.06"/>
<radialGradient id="SVGID_1_" cx="1825.0137" cy="3566.3301" r="616.4364" gradientUnits="userSpaceOnUse">
	<stop  offset="0" style="stop-color:#F15A24"/>
	<stop  offset="1" style="stop-color:#874C39;stop-opacity:0"/>
</radialGradient>
<rect x="1179.148" y="2980.801" fill="url(#SVGID_1_)" width="1291.73" height="1171.06"/>
<polygon fill="#5E3A30" points="1310.311,3239.847 1217.314,3317.851 1187.316,3395.847 1152.818,3526.347 1388.307,3530.84 
	1488.607,3550.151 1448.084,3430.895 1403.305,3302.103 "/>
<polygon fill="#5E3A30" points="2315.014,3156.415 2188.452,3262.573 2147.626,3368.721 2100.676,3546.323 2421.161,3552.438 
	2557.663,3578.72 2502.515,3416.419 2441.573,3241.142 "/>
<polygon fill="#5E3A30" points="1113.819,3095.851 1037.38,3246.104 994.15,3338.534 937.07,3495.406 1165.07,3534.304 
	1260.667,3532.106 1242.824,3378.553 1220.94,3252.908 "/>
<g>
	<linearGradient id="SVGID_2_" gradientUnits="userSpaceOnUse" x1="-1784.416" y1="1572.0127" x2="-2135.5232" y2="947.8206">
		<stop  offset="0" style="stop-color:#F15A24"/>
		<stop  offset="1" style="stop-color:#874C39"/>
	</linearGradient>
	<path fill="url(#SVGID_2_)" d="M-2286.047,678.17c-1.353-1.045-2.706-2.09-4.059-3.135c0.02,0.043,0.04,0.086,0.06,0.129
		C-2288.703,676.152-2287.365,677.148-2286.047,678.17z"/>
	<linearGradient id="SVGID_3_" gradientUnits="userSpaceOnUse" x1="-2061.7764" y1="1727.7842" x2="-2412.8108" y2="1103.7214">
		<stop  offset="0" style="stop-color:#F15A24"/>
		<stop  offset="1" style="stop-color:#874C39"/>
	</linearGradient>
	<path fill="url(#SVGID_3_)" d="M-1616.819,1311.351c-0.143-0.646-0.302-1.29-0.478-1.93c-2.504-9.104-9.292-19.471-18.152-23.606
		c-2.481-1.158-4.973-2.276-7.472-3.373c-4.668-6.673-9.007-13.519-14.15-19.963c-8.594-10.769-22.658-18.824-35.986-21.808
		c-15.168-3.395-29.961-1.806-45.152,0.123c-16.44,2.087-32.759,4.653-48.996,7.964c-0.627-0.047-1.253-0.098-1.88-0.143
		c-11.419-0.815-22.87-1.179-34.317-1.197c-15.862-0.026-32.165,3.239-47.746,5.824c-3.643,0.604-7.277,1.248-10.908,1.915
		c-9.582-8.096-20.361-14.518-31.628-19.978c-21.442-10.392-43.954-18.137-65.992-27.074c-3.253-1.51-6.26-3.16-9.219-5.144
		c-8.592-7.247-16.372-15.344-23.48-24.058c-27.606-37.64-43.688-82.189-63.255-124.21c-5.075-10.901-10.347-21.733-16.589-32.021
		c-6.391-10.532-13.696-20.485-21.042-30.362c-13.625-18.319-27.601-36.552-37.326-57.285c-3.449-9.22-5.859-18.664-7.325-28.456
		c-2.065-13.796-4.851-27.478-7.788-41.11c-5.185-24.067-10.979-48.035-14.811-72.364c-1.233-14.482,0.662-29.546,0.943-43.98
		c0.174-8.886,0.177-17.808-0.653-26.662c-1.123-11.996-2.657-25.484-9.554-35.867c-6.848-10.31-16.64-18.869-29.195-21.333
		c-15.351-3.013-28.149-0.07-41.953,6.695c-4.725,2.315-9.156,5.258-13.292,8.616c-5.071-3.255-10.91-5.265-16.702-7.244
		c-2.621-5.39-5.775-10.328-10.75-14.905c-10.277-9.457-22.956-14.933-37.083-14.47c-4.382,0.144-8.678,0.715-12.884,1.64
		c-8.099-6.227-17.223-10.802-26.66-14.812c-15.551-6.607-30.953-13.05-48.17-13.418c-13.292-0.284-27.889,7.591-34.107,19.563
		c-4.7,9.05-8.776,18.537-11.899,28.249c-2.953,9.186-4.041,18.886-5.164,28.418c-1.859,15.789,0.702,32.341,4.157,47.714
		c1.016,4.52,2.242,8.988,3.59,13.422c-13.324,28.86-16.835,59.769-16.068,91.349c0.307,12.623,1.015,25.245,1.222,37.855
		c-8.533,3.574-14.899,7.194-22.071,14.043c-5.556,5.305-10.101,11.876-14.194,18.365c-7.926,12.564-13.357,26.928-18.625,40.725
		c-7.633,19.989-12.57,41.039-20.717,60.81c1.328-3.145,2.655-6.29,3.982-9.436c-12.482,29.524-19.648,61.995-24.708,93.57
		c-4.707,29.374-7.867,59.55-4.046,89.138c-1.304-0.329-2.604-0.676-3.897-1.058c-5.491-2.983-10.638-6.542-15.65-10.292
		c-20.417-16.098-40.343-33.016-65.807-40.438c-14.399-4.198-29.68-5.818-44.014-10.337c-12.397-11.464-31.94-14.01-46.951-5.218
		c-18.778,11-24.746,35.281-14.17,54.044c1.447,2.567,3.063,4.879,4.796,7.01c-2.044,2.755-4.008,5.576-5.869,8.467
		c-2.6,1.788-5.18,3.661-7.752,5.663c-13.797,10.738-24.916,26.42-34.326,40.884c-9.926,15.255-17.19,31.962-24.165,48.71
		c-12.15,29.178-21.87,59.612-31.555,89.684c-6.539,20.304-11.064,40.71-13.025,61.995c-1.917,20.802,1.602,42.28,7.83,62.114
		c10.811,34.431,36.176,59.923,62.185,83.56c11.499,10.449,21.82,21.351,32.012,33.067c10.78,12.393,21.983,24.433,34.767,34.794
		c14.729,11.939,29.168,20.715,46.807,27.683c9.308,3.677,18.716,7.091,28.252,10.124c14.167,4.508,28.333,7.337,43.08,9.194
		c15.589,1.964,30.336-0.571,44.524-7.253c4.764-2.244,9.082-5.563,12.82-9.59c14.879,6.754,29.893,13.25,45.013,19.53
		c65.477,27.194,137.981,27.114,207.338,35.908c37.577,5.293,75.058,12.276,113.029,13.868
		c40.051,1.679,79.095-7.062,117.771-16.461c35.395-8.602,69.635-19.956,104.067-31.701c30.248-10.318,60.789-19.847,90.344-32.075
		c41.842-17.312,81.521-38.897,113.254-71.891c18.758-19.503,30.895-41.753,41.224-66.443c7.655-18.297,13.683-37.215,21.101-55.604
		c5.24-11.762,11.17-23.105,18.627-33.607c6.88-8.215,14.542-15.665,22.822-22.474c17.244-12.561,36.202-22.442,55.737-30.971
		c3.327-1.362,6.662-2.706,10.011-4.015c6.692-1.877,12.501-5.263,17.43-10.158c7.375-7.374,11.569-17.496,11.569-27.931
		C-1585.883,1331.443-1599.29,1315.295-1616.819,1311.351z M-2286.047,678.17c-1.318-1.021-2.656-2.018-3.999-3.006
		c-0.02-0.043-0.04-0.086-0.06-0.129C-2288.752,676.08-2287.399,677.125-2286.047,678.17z"/>
</g>
<g>
	<path fill="#874C39" d="M-3732.191,882.19c-1.353-1.045-2.706-2.09-4.059-3.135c0.02,0.043,0.04,0.086,0.06,0.129
		C-3734.848,880.173-3733.51,881.169-3732.191,882.19z"/>
	<path fill="#874C39" d="M-3062.964,1515.371c-0.143-0.646-0.302-1.29-0.478-1.93c-2.504-9.104-9.292-19.471-18.152-23.606
		c-2.481-1.158-4.973-2.276-7.472-3.373c-4.668-6.673-9.007-13.519-14.15-19.963c-8.594-10.769-22.658-18.824-35.986-21.808
		c-15.168-3.395-29.961-1.806-45.152,0.123c-16.439,2.087-32.759,4.653-48.996,7.964c-0.627-0.047-1.253-0.098-1.88-0.143
		c-11.419-0.815-22.87-1.179-34.317-1.197c-15.862-0.026-32.165,3.239-47.746,5.824c-3.643,0.604-7.277,1.248-10.908,1.915
		c-9.582-8.096-20.361-14.518-31.628-19.978c-21.442-10.392-43.954-18.137-65.992-27.074c-3.253-1.51-6.26-3.16-9.219-5.144
		c-8.592-7.247-16.372-15.344-23.48-24.058c-27.606-37.64-43.688-82.189-63.255-124.21c-5.075-10.901-10.347-21.733-16.589-32.021
		c-6.391-10.532-13.696-20.485-21.042-30.362c-13.625-18.319-27.601-36.552-37.326-57.285c-3.449-9.22-5.859-18.664-7.325-28.456
		c-2.065-13.796-4.851-27.478-7.788-41.11c-5.185-24.067-10.979-48.035-14.811-72.364c-1.233-14.482,0.662-29.546,0.943-43.98
		c0.174-8.886,0.177-17.808-0.653-26.662c-1.123-11.996-2.657-25.484-9.554-35.867c-6.848-10.31-16.64-18.869-29.195-21.333
		c-15.351-3.013-28.149-0.07-41.953,6.695c-4.725,2.315-9.156,5.258-13.292,8.616c-5.071-3.255-10.91-5.265-16.702-7.244
		c-2.621-5.39-5.775-10.328-10.75-14.905c-10.277-9.457-22.956-14.933-37.083-14.47c-4.382,0.144-8.678,0.715-12.884,1.64
		c-8.099-6.227-17.223-10.802-26.66-14.812c-15.551-6.607-30.953-13.05-48.17-13.418c-13.292-0.284-27.889,7.591-34.107,19.563
		c-4.7,9.05-8.776,18.537-11.899,28.249c-2.953,9.186-4.041,18.886-5.164,28.418c-1.859,15.789,0.702,32.341,4.157,47.714
		c1.016,4.52,2.242,8.988,3.59,13.422c-13.324,28.86-16.835,59.769-16.068,91.349c0.307,12.623,1.015,25.245,1.222,37.855
		c-8.533,3.574-14.899,7.194-22.071,14.043c-5.556,5.305-10.101,11.876-14.194,18.365c-7.926,12.564-13.357,26.928-18.625,40.725
		c-7.633,19.989-12.57,41.039-20.717,60.81c1.328-3.145,2.655-6.29,3.982-9.436c-12.482,29.524-19.648,61.995-24.708,93.57
		c-4.707,29.374-7.867,59.55-4.046,89.138c-1.304-0.329-2.604-0.676-3.897-1.058c-5.491-2.983-10.638-6.542-15.65-10.292
		c-20.417-16.098-40.343-33.016-65.807-40.438c-14.399-4.198-29.68-5.818-44.014-10.337c-12.397-11.464-31.94-14.01-46.951-5.218
		c-18.778,11-24.746,35.281-14.17,54.044c1.447,2.567,3.063,4.879,4.796,7.01c-2.044,2.755-4.008,5.576-5.869,8.467
		c-2.6,1.788-5.18,3.661-7.752,5.663c-13.797,10.738-24.916,26.42-34.326,40.884c-9.926,15.255-17.19,31.962-24.165,48.71
		c-12.15,29.178-21.87,59.612-31.555,89.684c-6.539,20.304-11.064,40.71-13.025,61.995c-1.917,20.802,1.602,42.28,7.83,62.114
		c10.81,34.431,36.176,59.923,62.185,83.56c11.499,10.449,21.82,21.351,32.012,33.067c10.78,12.393,21.983,24.433,34.767,34.794
		c14.729,11.939,29.168,20.715,46.807,27.683c9.307,3.677,18.716,7.091,28.252,10.124c14.167,4.508,28.332,7.337,43.08,9.194
		c15.589,1.964,30.336-0.571,44.524-7.253c4.764-2.244,9.082-5.563,12.82-9.59c14.879,6.754,29.893,13.25,45.013,19.53
		c65.477,27.194,137.981,27.114,207.338,35.908c37.577,5.293,75.058,12.276,113.029,13.868
		c40.051,1.679,79.095-7.062,117.771-16.461c35.395-8.602,69.635-19.956,104.067-31.701c30.248-10.318,60.789-19.847,90.344-32.075
		c41.842-17.312,81.521-38.897,113.254-71.891c18.758-19.503,30.895-41.753,41.224-66.443c7.655-18.297,13.683-37.215,21.101-55.604
		c5.24-11.762,11.17-23.105,18.627-33.607c6.88-8.215,14.542-15.665,22.822-22.474c17.244-12.561,36.202-22.442,55.737-30.971
		c3.327-1.362,6.662-2.706,10.011-4.015c6.692-1.877,12.501-5.263,17.43-10.158c7.375-7.374,11.569-17.496,11.569-27.931
		C-3032.027,1535.464-3045.435,1519.315-3062.964,1515.371z M-3732.191,882.19c-1.318-1.021-2.656-2.018-3.999-3.006
		c-0.02-0.043-0.04-0.086-0.06-0.129C-3734.897,880.101-3733.544,881.146-3732.191,882.19z"/>
</g>
<rect x="-1574.31" y="39.498" fill="#534741" width="1442.747" height="499.527"/>
<path fill="#303030" d="M-955.036,507.291c-4.207-15.295-20.418-24.363-35.673-20.255c-1.545,0.416-3.093,0.769-4.652,1.076
	c-20.769,1.67-41.68-3.315-62.485-3.07c-25.743,0.303-51.4,2.895-77.153,2.958c-3.254,0.008-6.393,0.578-9.333,1.604v-68.605
	h-92.383V504h75.876c-2.012,3.924-3.16,8.343-3.16,13c0,15.779,13.191,29.039,29,29c27.049-0.066,54.002-2.8,81.048-2.995
	c26.56-0.192,52.292,7.06,78.662-0.041C-960.035,538.856-950.863,522.462-955.036,507.291z"/>
<path fill="#303030" d="M-1233.129,448.714h-34.84l-10.364,10.364v26.982c-7.173-1.013-14.771-1.508-21.755-0.746
	c-8.613,0.938-16.563,3.729-24.906,5.4c-6.555,0.454-13.111,0.174-19.688-0.064c-6.12-0.222-12.33,0.332-18.458,0.044
	c-7.855-1.633-15.423-3.303-23.595-4.096c-7.808-0.758-15.704-0.514-23.533-0.321c-7.333,0.18-14.676,0.102-21.992,0.673
	c-6.806,0.531-13.552,1.322-20.361,1.209c-5.98-2.542-10.187-3.81-17.316-4.534c-6.657-0.677-13.521,0.972-20.218,2.235
	c-1.743,0.091-3.475,0.086-5.222-0.013c-9.512-1.691-18.857-4.133-28.623-4.348c-10.515-0.231-20.983-1.41-31.5-1.5
	c-15.81-0.136-29,13.294-29,29c0,15.911,13.193,28.865,29,29c6.579,0.057,13.127,0.574,19.688,1.025
	c5.012,0.345,10.055,0.284,15.063,0.652c7.675,1.395,15.22,3.182,23.035,3.989c8.004,0.827,15.917-0.61,23.803-1.965
	c1.388,0.602,2.779,1.199,4.203,1.762c4.769,1.885,9.959,2.297,15.047,2.672c8.067,0.594,16.238-0.704,24.266-1.331
	c7.883-0.615,15.87-0.435,23.774-0.613c6.675-0.151,13.34-0.124,19.986,0.444c7.499,1.376,14.753,3.449,22.481,4.048
	c7.615,0.591,15.441-0.188,23.098,0.101c9.321,0.35,18.139-0.091,27.396-1.429c5.983-0.864,11.639-2.972,17.487-4.322
	c3.727-0.154,7.556,0.001,11.269,0.337c0.345,0.037,0.688,0.065,1.031,0.093c0.787,0.078,1.567,0.164,2.338,0.256
	c-0.479-0.064-0.957-0.129-1.436-0.193c13.872,0.781,26.926-6.244,30.935-20.816c2.891-10.511-1.062-23.409-9.603-30.578h28.51
	V448.714z"/>
<path fill="#49403C" d="M-393.642-98h-75.685c0.109-0.822,0.185-1.652,0.185-2.5c0-10.63-8.87-19.5-19.5-19.5h-231
	c-10.63,0-19.5,8.87-19.5,19.5s8.87,19.5,19.5,19.5h48.685c-0.109,0.821-0.185,1.652-0.185,2.5c0,10.63,8.87,19.5,19.5,19.5h258
	c10.63,0,19.5-8.87,19.5-19.5S-383.012-98-393.642-98z"/>
<polygon fill="#303030" points="-1137.28,438.655 -1207.609,438.655 -1199.826,408.403 -1145.064,408.403 "/>
<rect x="-1573.125" y="490.334" fill="#303030" width="1443.741" height="94.666"/>
<polygon points="-2133.258,194.998 -2407.586,194.998 -2377.224,39.498 -2163.62,39.498 "/>
<g>
	<polygon fill="#262626" points="-1934.61,803.444 -1941.11,803.444 -1941.11,759.7 -1937.86,754.7 -1934.61,759.7 	"/>
	<polygon fill="#262626" points="-1895.789,803.444 -1902.289,803.444 -1902.289,759.7 -1899.039,754.7 -1895.789,759.7 	"/>
	<polygon fill="#262626" points="-1954.021,803.444 -1960.521,803.444 -1960.521,759.7 -1957.271,754.7 -1954.021,759.7 	"/>
	<polygon fill="#262626" points="-1915.2,803.444 -1921.7,803.444 -1921.7,759.7 -1918.45,754.7 -1915.2,759.7 	"/>
	<polygon fill="#262626" points="-1856.967,803.444 -1863.467,803.444 -1863.467,759.7 -1860.217,754.7 -1856.967,759.7 	"/>
	<polygon fill="#262626" points="-1818.146,803.444 -1824.646,803.444 -1824.646,759.7 -1821.396,754.7 -1818.146,759.7 	"/>
	<polygon fill="#262626" points="-1876.378,803.444 -1882.878,803.444 -1882.878,759.7 -1879.628,754.7 -1876.378,759.7 	"/>
	<polygon fill="#262626" points="-1837.557,803.444 -1844.057,803.444 -1844.057,759.7 -1840.807,754.7 -1837.557,759.7 	"/>
	<rect x="-1957.271" y="762.619" fill="#262626" width="134.978" height="4"/>
</g>
<g>
	<rect x="-1037.82" y="442.313" fill="#303030" width="7.746" height="59.354"/>
	<circle fill="#303030" cx="-1033.948" cy="423.202" r="31.777"/>
</g>
<g>
	<rect x="-1389.474" y="442.313" fill="#303030" width="7.746" height="59.354"/>
	<circle fill="#303030" cx="-1385.601" cy="423.202" r="31.777"/>
</g>
<g>
	<rect x="-1459.183" y="442.313" fill="#303030" width="7.745" height="59.354"/>
	<circle fill="#303030" cx="-1455.311" cy="423.202" r="31.777"/>
</g>
<g>
	<rect x="-1829.063" y="612.319" fill="#262626" width="15.333" height="117.5"/>
	<circle fill="#262626" cx="-1821.396" cy="574.486" r="62.908"/>
</g>
<g>
	<rect x="-1964.938" y="612.319" fill="#262626" width="15.333" height="117.5"/>
	<circle fill="#262626" cx="-1957.271" cy="574.486" r="62.908"/>
</g>
<g>
	<rect x="-2027.846" y="314.169" fill="#262626" width="15.333" height="117.5"/>
	<circle fill="#262626" cx="-2020.179" cy="276.336" r="62.908"/>
</g>
<path fill="#231E1C" d="M-148.067,630.691c-7.029,2.079-16.313,1.092-25.297,0.225c-10.986-1.061-21.936-0.892-32.96-0.977
	c-22.609-0.173-45.157-1.825-67.762-2.278c-21.329-0.428-43.448-0.227-64.33-5.106c-21.744-5.082-43.685-9.274-65.626-13.397
	c-23.203-4.359-46.745-2.057-70.151-3.539c-19.708-1.248-39.777-7.626-59.249-12.506c-43.458-10.891-88.855-12.912-133.483-12.629
	c-44.78,0.285-89.485,3.395-134.251,4.299c-18.953,0.384-37.201,0.61-55.579,4.551c-9.96,0.852-19.875,2.26-29.703,4.106
	c-0.496,0.093-0.986,0.204-1.48,0.301c-0.535,0.094-1.072,0.181-1.607,0.275c-15.263,2.693-30.729,5.366-45.753,9.276
	c-1.534-0.253-3.103-0.386-4.701-0.374c-31.363,0.23-60.988,10.704-91.652,15.567c-6.833,0.741-13.658,1.058-20.556,0.892
	c-6.35-0.152-11.481-0.414-17.958,0.79c-2.972,0.553-5.762,1.615-8.623,2.45c-9.515,0.335-19.036-0.016-28.557,0.142
	c-10.803,0.179-21.51,1.808-32.32,2.103c-10.651,0.291-21.309-0.032-31.961,0.1c-11.365,0.142-22.72,0.73-34.084,0.914
	c-10.46,0.169-20.881,0.252-31.328,0.896c-10.558,0.651-21.27,2.574-31.838,1.827c-10.986-0.775-21.761-1.305-32.785-0.936
	c-11.617,0.388-23.211,1.21-34.839,1.256c-4.584,0.018-8.941,1.144-12.826,3.102c-15.977,0.278-31.996,0.938-47.915-0.528
	c-9.373-0.863-18.568-2.659-28.019-2.554c-9.137,0.103-18.23,1.072-27.384,1.083c-18.907,0.022-37.56-1.094-56.457,0.369
	c-19.007,1.472-38.344,0.528-57.4,0.528c-15.809,0-29,13.191-29,29c0,13.823,10.087,25.646,23.19,28.396v78.102h1442.747V663.728
	C-116.78,651.53-127.271,624.542-148.067,630.691z"/>
<polyline fill="#303030" points="-1247.077,421.667 -1211.705,386.295 -1176.333,421.667 "/>
<g>
	<polygon fill="#1A1A1A" points="-1041.225,916.483 -1048.399,916.492 -1048.461,868.211 -1044.882,862.688 -1041.288,868.202 	"/>
	<polygon fill="#1A1A1A" points="-998.377,916.427 -1005.551,916.438 -1005.614,868.156 -1002.034,862.633 -998.44,868.146 	"/>
	<polygon fill="#1A1A1A" points="-1062.649,916.511 -1069.822,916.52 -1069.885,868.24 -1066.306,862.717 -1062.711,868.23 	"/>
	<polygon fill="#1A1A1A" points="-1019.801,916.454 -1026.975,916.464 -1027.038,868.184 -1023.458,862.661 -1019.864,868.175 	"/>
	<polygon fill="#1A1A1A" points="-955.529,916.371 -962.704,916.38 -962.767,868.101 -959.187,862.577 -955.592,868.091 	"/>
	<polygon fill="#1A1A1A" points="-912.683,916.315 -919.857,916.324 -919.919,868.044 -916.339,862.521 -912.745,868.035 	"/>
	<polygon fill="#1A1A1A" points="-976.954,916.399 -984.128,916.409 -984.191,868.128 -980.611,862.604 -977.017,868.119 	"/>
	<polygon fill="#1A1A1A" points="-934.105,916.344 -941.28,916.353 -941.343,868.072 -937.763,862.549 -934.169,868.063 	"/>
	
		<rect x="-1066.292" y="871.349" transform="matrix(1 -0.0013 0.0013 1 -1.1369 -1.2776)" fill="#1A1A1A" width="166.696" height="4.414"/>
</g>
<g>
	<polygon fill="#1A1A1A" points="-445.939,875.835 -453.113,875.844 -453.175,827.563 -449.596,822.04 -446.001,827.554 	"/>
	<polygon fill="#1A1A1A" points="-403.091,875.778 -410.265,875.789 -410.328,827.508 -406.748,821.984 -403.154,827.498 	"/>
	<polygon fill="#1A1A1A" points="-467.363,875.862 -474.536,875.871 -474.599,827.592 -471.02,822.068 -467.425,827.582 	"/>
	<polygon fill="#1A1A1A" points="-424.515,875.806 -431.689,875.815 -431.752,827.535 -428.172,822.013 -424.578,827.526 	"/>
	<polygon fill="#1A1A1A" points="-360.243,875.723 -367.418,875.731 -367.48,827.452 -363.9,821.929 -360.306,827.442 	"/>
	<polygon fill="#1A1A1A" points="-317.396,875.667 -324.571,875.676 -324.633,827.396 -321.053,821.873 -317.459,827.387 	"/>
	<polygon fill="#1A1A1A" points="-381.667,875.751 -388.842,875.761 -388.905,827.479 -385.325,821.956 -381.731,827.471 	"/>
	<polygon fill="#1A1A1A" points="-338.819,875.695 -345.994,875.704 -346.057,827.424 -342.477,821.9 -338.883,827.415 	"/>
	
		<rect x="-471.005" y="830.71" transform="matrix(1 -0.0013 0.0013 1 -1.0839 -0.5134)" fill="#1A1A1A" width="151.642" height="4.414"/>
</g>
<rect x="-1162.667" y="400.334" fill="#303030" width="3.667" height="10.333"/>
<path fill="#49403C" d="M-876.173-401.443h-119.658c1.985-3.048,3.158-6.655,3.158-10.5c0-1.905-0.295-3.749-0.824-5.5h14.324
	c10.63,0,19.5-8.87,19.5-19.5s-8.87-19.5-19.5-19.5h-176c-10.63,0-19.5,8.87-19.5,19.5c0,1.905,0.295,3.749,0.824,5.5h-71.324
	c-10.63,0-19.5,8.87-19.5,19.5c0,4.591,1.66,8.849,4.396,12.21c-20.299,0.157-40.598,0.286-60.896,0.29
	c-10.63,0.002-19.5,8.869-19.5,19.5c0,10.628,8.87,19.502,19.5,19.5c66.714-0.013,133.435-1.352,200.146-0.676
	c2.194,8.356,9.887,14.676,18.854,14.676h75c9.436,0,17.47-6.994,19.159-16h131.841c10.63,0,19.5-8.87,19.5-19.5
	S-865.543-401.443-876.173-401.443z"/>
<path fill="#49403C" d="M-996.454-151.167h-77.578c0.039-0.497,0.078-0.994,0.078-1.5c0-10.63-8.87-19.5-19.5-19.5h-57.668
	c-2.727-7.509-9.975-13-18.332-13h-99c-8.356,0-15.604,5.491-18.332,13h-31.668c-10.63,0-19.5,8.87-19.5,19.5s8.87,19.5,19.5,19.5
	h85.578c-0.039,0.497-0.078,0.994-0.078,1.5c0,10.63,8.87,19.5,19.5,19.5h217c10.63,0,19.5-8.87,19.5-19.5
	S-985.824-151.167-996.454-151.167z"/>
<path fill="#49403C" d="M-621.754-249h-145c-8.725,0-16.254,5.98-18.676,14h-46.324c-10.63,0-19.5,8.87-19.5,19.5
	s8.87,19.5,19.5,19.5h161c8.725,0,16.254-5.98,18.676-14h30.324c10.63,0,19.5-8.87,19.5-19.5S-611.125-249-621.754-249z"/>
<path fill="#3D3633" d="M-1324.321-256.502h-280.323c-13.491,0-24.748,11.257-24.748,24.748c0,3.471,0.75,6.791,2.086,9.813
	h-101.499c-13.491,0-24.748,11.257-24.748,24.748s11.257,24.748,24.748,24.748h332.803c13.491,0,24.748-11.257,24.748-24.748
	c0-3.471-0.75-6.791-2.086-9.813h49.019c13.491,0,24.748-11.257,24.748-24.748S-1310.831-256.502-1324.321-256.502z"/>
<path fill="#3D3633" d="M-172.527-254h-96.737c4.49-5.119,7.243-11.783,7.243-18.998c0-0.841-0.045-1.673-0.118-2.499h83.612
	c15.809,0,29-13.191,29-29s-13.191-29-29-29H-532.51c-15.809,0-29,13.191-29,29c0,0.841,0.045,1.673,0.118,2.499h-115.111
	c-15.809,0-29,13.191-29,29s13.191,29,29,29h107.236c-4.49,5.119-7.243,11.783-7.243,18.998c0,15.809,13.191,29,29,29h374.981
	c15.809,0,29-13.191,29-29S-156.719-254-172.527-254z"/>
<path fill="#49403C" d="M-1703.548-108.502h-169.492c-15.809,0-29,13.191-29,29s13.191,29,29,29h169.492c15.809,0,29-13.191,29-29
	S-1687.739-108.502-1703.548-108.502z"/>
<rect x="-920.883" y="446.53" fill="#231E1C" width="77.368" height="9.644"/>
<rect x="-940.645" y="456.174" fill="#231E1C" width="77.368" height="9.644"/>
<rect x="-960.406" y="464.528" fill="#231E1C" width="77.369" height="9.644"/>
<rect x="-980.167" y="472.265" fill="#231E1C" width="77.368" height="9.644"/>
<rect x="-1218.333" y="424.336" fill="#DDD387" width="3.667" height="7.333"/>
<path d="M-703.364,1556.018c-6.569-6.569-18.232-12.869-27.931-11.569c-25.184,3.376-50.467-2.074-75.608,0.804
	c-10.041,1.148-19.795,2.883-29.496,5.154c-2.594-14.606-13.574-28.327-28.41-31.55c-23.808-5.173-48.794-5.616-71.86-13.846
	c-19.96-9.729-36.98-25.033-55.115-37.587c-25.684-17.78-54.744-29.243-86.357-27.609c-65.098,3.363-129.991,13.835-195.303,8.944
	c-2.613-0.195-5.223-0.415-7.829-0.674c-21.296-3.619-41.628-11.015-62.109-17.761c-10.619-3.497-21.333-6.693-32.279-8.998
	c-6.92-1.457-13.923-2.203-20.713-3.977c-6.217-16.331-11.147-33.287-21.496-47.635c-10.677-14.805-22.642-28.604-35.835-41.21
	c-29.047-27.752-71.555-60.164-114.505-48.099c-19.953,5.605-34.336,20.48-42.801,38.474c-4.104,2.643-7.883,6.115-11.119,9.489
	c-4.049,4.223-7.495,9.313-9.669,14.847c-4.281,1.731-8.492,3.677-12.635,5.785c-27.869,14.185-47.745,38.236-62.194,65.39
	c-9.936,18.672-17.634,38.526-25.394,58.171c-1.712,4.334-3.423,8.669-5.155,12.995c-0.863,2.156-1.737,4.309-2.615,6.458
	c-0.288,0.705-0.978,2.35-1.482,3.554c-3.464,8.011-7.188,15.854-11.544,23.434c-4.341,7.555-9.146,14.837-14.236,21.904
	c-0.508,0.705-1.025,1.403-1.543,2.102c-0.656,0.84-2.218,2.861-2.851,3.644c-3.075,3.802-6.288,7.49-9.564,11.119
	c-5.859,6.491-12.08,12.65-18.505,18.578c-3.243,2.991-6.575,5.885-9.943,8.733c-1.694,1.434-3.414,2.835-5.137,4.231
	c-0.866,0.698-1.736,1.393-2.609,2.082c-0.059,0.047-0.105,0.084-0.16,0.127c-4.556,3.526-8.284,7.007-10.727,11.881
	c-2.265,0.467-4.512,0.967-6.733,1.498c-29.639,7.093-56.123,22.803-82.73,37.006c-5.975,3.189-12.027,6.227-18.16,9.1
	c-1.181,0.554-5.108,2.251-6.645,2.931c-2.046,0.811-4.1,1.602-6.165,2.362c-11.245,4.145-22.845,7.119-34.593,9.433
	c-8.204,1.616-16.452,3.257-24.219,6.441c-6.783,2.781-11.963,5.258-17.349,9.381c-7.428,0.668-14.859,1.573-22.108,3.26
	c-11.748,2.735-22.196,8.71-31.436,16.263c-5.902,4.824-10.536,10.871-15.76,16.377c-0.826,0.87-1.695,1.695-2.572,2.512
	c-0.155,0.094-0.312,0.185-0.469,0.275c-0.152,0.044-0.302,0.093-0.455,0.134c-0.477,0.141-0.958,0.263-1.443,0.373
	c-8.662,0.644-17.45,0.236-26.11,0.162c-11.415-0.098-22.828-0.142-34.235,0.344c-11.225,0.478-22.32,2.236-33.532,2.802
	c-10.531,0.532-21.089-0.06-31.579-0.997c-21.978-1.965-43.689-4.961-65.78-5.655c-11.637-0.366-23.282-0.393-34.924-0.402
	c-7.304-0.006-14.688,0.392-21.993-0.094c-4.717-4.153-9.331-8.812-15.115-11.376c-11.376-5.043-21.271-5.636-33.512-3.495
	c-1.62,0.283-3.228,0.792-4.816,1.408c-0.769-0.831-1.57-1.635-2.454-2.371c-12.107-10.086-26.112-12.942-41.378-14.533
	c-16.662-1.737-33.43,1.144-50.073-0.116c-7.04-1.51-13.638-4.255-20.511-6.499c-7.414-2.421-14.992-4.284-22.669-5.645
	c-19.665-3.485-39.203-3.156-59.071-3.513c-21.803-0.391-43.501-1.275-65.178-2.697c-3.29-9.141-8.057-16.752-14.847-24.259
	c-13.351-14.758-33.352-23.136-51.673-29.629c-5.948-2.108-12.002-3.903-18.125-5.278c-2.759-8.138-9.098-14.751-17.065-17.901
	c-6.438-7.905-14.966-14.138-23.929-19.544c-5.934-10.893-11.048-22.271-16.458-33.425c-11.741-24.203-23.254-48.519-34.179-73.103
	c-2.654-5.972-5.259-11.966-7.832-17.974c-0.075-0.176-0.15-0.353-0.226-0.529c-0.378-0.895-1.12-2.649-1.408-3.339
	c-1.25-2.993-2.48-5.995-3.705-8.999c-4.275-10.485-7.538-21.272-9.528-32.394c0.327-0.615,0.539-1.335,0.587-2.163
	c0.606-10.387,1.753-20.682,3.401-30.904c3.94-3.918,7.134-8.639,8.343-14.096c0.584-2.637,0.872-5.212,1.047-7.81
	c0.769-4.285,1.208-8.639,1.159-12.984c-0.033-2.862-0.262-5.695-0.341-8.538c0.035-0.095,0.069-0.19,0.104-0.286
	c0.18-0.412,0.367-0.82,0.56-1.224c0.675-0.91,1.521-2.031,2.018-2.601c2.429-2.787,5.022-5.426,7.662-8.019
	c1.288-0.845,2.62-1.63,3.967-2.369c9.719-5.336,23.029-9.373,29.572-19.078c8.175-2.79,14.786-9.512,17.867-17.608
	c4.164-0.934,8.448-1.415,12.638-1.477c3.813-0.056,5.372-3.583,4.671-6.433c2.973-0.548,5.934-1.169,8.868-1.947
	c5.412-1.436,10.519-3.547,15.218-6.26v7.362c0,9.568,0.546,19.038-1.813,28.386c-3.558,14.1-12.549,27.571-10.01,42.603
	c1.072,6.349,10.708,3.647,9.643-2.658c-1.065-6.307,1.504-12.843,3.604-18.669c2.585-7.173,5.43-14.206,7.138-21.659
	c1.956-8.537,1.438-17.356,1.438-26.045v-6.364c8.742,2.156,17.774,1.808,26.43-0.399c1.955,18.166,9.537,36.783,0.256,53.94
	c-3.068,5.672,5.566,10.72,8.635,5.047c5.354-9.896,6.702-20.378,5.516-31.472c-1.106-10.354-4.024-20.422-4.694-30.81
	c4.548-1.938,8.903-4.361,12.954-7.157c2.616-1.806,5.222-3.935,7.685-5.863c1.042-0.763,2.108-1.479,3.206-2.146
	c1.095-0.414,3.359-1.335,4.603-1.654c4.02-1.032,7.936-2.594,11.572-4.59c1.833-1.006,3.467-2.149,4.949-3.396
	c1.296,4.262,2.246,8.307,0.866,12.92c-1.637,5.476-4.976,10.311-8.068,15.047c-3.402,5.211-6.331,10.515-8.723,16.265
	c-2.478,5.953,7.203,8.522,9.643,2.658c4.593-11.037,12.92-19.907,16.792-31.312c2.88-8.484-0.362-16.726-2.685-25.075
	c2.288-3.839,4.122-8.004,5.973-12.186c1.862-0.911,3.654-2.014,5.335-3.318c1.547,0.333,3.101,0.515,4.646,0.572
	c1.239,14.153,2.467,29.064-6.197,40.464c-3.904,5.137,4.787,10.109,8.635,5.047c9.78-12.868,8.668-29.167,7.486-44.814
	c2.66,3.367,5.845,6.41,9.674,9.325c1.404,1.069,2.867,1.955,4.373,2.679c1.49,12.648,4.245,25.257,2.332,37.959
	c-0.95,6.306,8.685,9.018,9.643,2.658c1.944-12.906-0.326-25.385-1.785-38.033c7.682,0.497,15.683-1.756,22.569-4.854
	c1.747-0.786,3.471-1.785,5.151-2.928c-0.017,8.492-0.423,16.957-1.859,25.284c-1.087,6.306,8.548,9.004,9.643,2.658
	c2.117-12.272,2.232-24.71,2.028-37.146c3.949-4.973,6.875-10.692,7.936-16.234c1.056-5.515,1.471-10.688,1.078-16.214
	c-0.036-0.5-0.075-0.999-0.116-1.499c0.008-0.005,0.016-0.01,0.023-0.015c3.207-2.156,5.602-4.048,7.748-6.177
	c2.03-0.576,4.079-1.336,6.294-2.414c7.478-3.637,12.965-11.989,14.945-19.868c2.233-8.882,2.389-18.995-1.083-27.503
	c-2.718-6.661-5.512-13.294-8.377-19.894c12.412-9.994,23.649-21.172,31.099-35.578c4.064-7.86,8.007-15.815,9.957-24.513
	c2.049-9.138,2.929-18.683,3.288-28.045c0.417-10.885-0.087-21.739,0.798-32.577c1.475-7.948,3.682-15.678,6.541-23.237
	c2.525-5.456,5.28-10.796,8.169-16.074c5.454-9.966,9.851-20.232,13.097-31.124c5.864-19.671,8.118-40.71,8.816-61.163
	c0.592-17.317-0.46-34.659-1.622-51.931c-1.301-19.346-2.738-38.337-5.367-57.567c0.47,3.5,0.94,7,1.411,10.501
	c-0.749-5.579-1.543-11.248-1.518-16.898c0.058-0.199,0.115-0.399,0.176-0.599c5.727-11.372,12.856-21.747,16.749-34.18
	c6.455-20.617-1.6-45.683-18.021-59.537c-22.813-19.246-51.404-22.634-79.756-19.521c-5.958,0.224-11.764,1.175-17.461,2.674
	c-4.638-6.517-10.933-11.964-17.662-16.036c-15.518-9.392-33.106-12.479-50.826-14.218c-11.938-1.171-24.003-0.517-35.956,0.051
	c-13.214,0.628-26.424,1.065-39.637,1.781c-31.109,1.688-62.209,3.562-93.267,6.034c-15.707,1.251-31.399,2.682-47.074,4.289
	c-13.427,1.377-26.655,4.03-39.99,6.033c-6.418,0.758-12.901,1.304-19.356,1.21c-3.42-1.897-6.769-3.928-10.138-5.929
	c-9.018-5.355-18.689-9.896-28.701-13.03c-18.031-5.644-37.016-6.137-55.675-8.11c-5.454-0.974-10.773-2.332-15.981-4.199
	c-7.19-3.355-14.193-6.986-21.593-10.033c-4.969-2.045-11.004-2.769-16.193-2.563c-12.971,0.515-22.731,5.326-32.541,13.462
	c-10.35,8.584-16.678,23.598-21.365,35.736c-1.825,4.726-3.038,9.639-4.272,14.547c-6.189-1.915-12.119-3.054-19.025-3.685
	c-17.959-1.64-36.26,8.897-44.636,24.703c-8.758,16.524-9.901,35.755-9.319,54.11c1.219,38.444,8.479,76.884,15.265,114.668
	c1.402,7.809,2.948,15.612,4.229,23.45c0.449,6.886-0.371,14.216-0.508,20.995c-0.196,9.704-0.41,19.406-0.447,29.111
	c-0.073,18.991,1.14,37.731,3.466,56.493c-4.967,2.233-9.373,6.01-12.728,11.453c-7.701,12.497-8.575,27.773-8.178,42.059
	c0.082,2.936,0.144,5.87,0.204,8.806c-0.944,4.855-1.52,9.753-1.52,14.664c0,3.798,0.769,7.442,2.145,10.792
	c0.067,1.876,0.123,3.753,0.211,5.629c1.396,29.729,3.801,59.445,6.024,89.122c2.216,29.569,2.865,59.073,3.943,88.684
	c0.307,8.424,0.801,17.406,3.848,25.295c3.052,7.902,6.89,14.774,11.445,21.845c1.453,2.254,2.824,4.55,4.114,6.9
	c0.222,0.404,0.432,0.815,0.647,1.224c0.283,0.723,0.858,2.14,1.109,3.02c0.846,2.961,1.308,6.034,1.759,9.077
	c-1.026,1.976-2.108,3.924-3.169,5.878c-0.541,0.995-1.067,1.998-1.583,3.007c-0.728,1.631-1.422,3.274-2.102,4.925
	c-1.325,2.942-2.749,5.842-4.153,8.746c-7.2,14.894-16.647,32.78-14.704,49.966c0.904,8,2.588,14.6,8.494,20.506
	c5.93,5.931,12.492,7.542,20.506,8.494c11.75,1.396,22.896-2.094,33.544-6.539c4.082,2.502,8.805,3.996,13.602,4.379
	c-1.917,7.522-3.497,15.134-4.146,23.16c-1.165,14.387,10.415,25.498,23.504,28.261c4.376,8.46,12.662,14.881,22.509,17.917
	c7.752,2.39,15.892,1.857,23.775-0.008c4.144,20.023,18.094,37.466,30.588,53.085c12.167,15.208,26.69,28.95,42.426,40.403
	c6.15,4.477,12.952,8.029,19.385,12.07c1.462,0.919,2.89,1.889,4.306,2.876c0.106,0.096,0.217,0.196,0.343,0.31
	c0.071,0.724,0.147,1.447,0.222,2.171c-7.638-0.163-15.323,2.603-21.078,8.358c-11.125,11.125-11.237,29.902,0,41.012
	c15.016,14.845,31.516,26.292,50.961,34.399c16.708,6.966,34.706,9.397,51.634,15.727c0.631,0.298,3.627,1.567,4.252,1.858
	c2.097,0.975,4.156,2.027,6.216,3.079c4.095,2.09,8.083,4.386,12.04,6.725c8.764,5.182,17.172,10.956,25.528,16.762
	c16.984,11.801,33.565,24.2,50.632,35.87c25.786,17.632,55.34,25.756,85.565,31.212c2.506,2.339,4.927,4.776,7.201,7.383
	c10.378,11.897,30.333,10.606,40.951,0.058c19.404,2.895,38.805,5.938,57.875,10.594c17.382,4.244,34.641,8.954,52.303,11.937
	c3.942,0.665,7.914,1.275,11.902,1.788c5.24,2.344,10.492,4.663,15.8,6.859c9.815,4.061,19.774,7.519,30.153,9.83
	c14.554,3.242,29.707,3.86,44.497,5.526c6.604,0.744,13.2,1.56,19.794,2.392c2.815,0.355,5.63,0.723,8.444,1.09
	c0.803,0.104,7.808,1.039,7.999,1.061c12.393,1.675,24.783,3.367,37.178,5.027c5.304,7.115,14.006,11.466,23.643,12.34
	c40.584,3.681,80.546,6.414,120.886-1.175c8.982-1.689,17.816-4.09,26.521-6.859c4.676-1.487,9.283-3.185,13.865-4.938
	c2.399-0.919,4.772-1.903,7.145-2.887c3.118-1.31,6.232-2.626,9.345-3.949c1.995-0.852,2.763-1.188,2.317-1.016
	c21.003-8.612,42.502-15.979,64.108-22.915c39.927-12.818,80.353-24.034,119.963-37.804c4.086,0.728,8.375,0.608,12.596-0.502
	c14.492-3.813,27.772-10.626,40.383-18.695c5.425-1.661,10.864-3.275,16.303-4.89c0.491,3.509,1.646,6.968,3.574,10.258
	c4.674,7.979,15.257,15.584,25.041,14.363c35.687-4.452,67.307-21.679,102.45-28.457c31.613-6.098,64.675-10.894,91.112-30.692
	c21.034-15.754,38.287-35.253,57.151-53.393c3.192-3.069,6.463-6.054,9.81-8.951c5.619,14.105,18.583,23.172,33.607,29.053
	c26.359,10.317,57.921,5.123,83.061-6.041c1.658-0.736,3.294-1.555,4.904-2.441c10.247-0.029,20.295,0.799,30.633-1.617
	c11.174-2.613,19.105-9.853,25.718-18.785c1.718-2.32,2.876-5.202,4.32-7.704c0.077-0.134,0.167-0.258,0.246-0.39
	c0.374-0.334,2.215-2.626,3.03-3.51c6.866-7.449,13.142-15.705,16.838-24.928c0.979-0.274,1.957-0.561,2.929-0.859
	c5.849-1.796,11.566-3.988,17.537-5.303c33.011-3.311,66.386-2.396,99.486-4.011c21.134-1.031,42.231-3.37,63.073-7.023
	c3.284-0.575,6.552-1.214,9.811-1.888c13.412,4.935,26.901,9.89,40.498,14.254c29.836,9.579,60.879,14.762,91.367,21.761
	c29.256,6.717,58.161,14.948,87.571,20.99c17.478,3.591,35.236,6.247,53.017,7.729c17.09,1.424,35.29,1.405,52.031-2.55
	c19.415-4.587,38.157-11.736,57.808-15.276c23.969-2.021,48.104,2.737,72.105-0.48c3.5-0.471,7-0.94,10.5-1.411
	c6.691-1.877,12.502-5.263,17.43-10.158c7.375-7.374,11.569-17.496,11.569-27.931S-695.989,1563.392-703.364,1556.018z
	 M-3137.646,1293.145c0.244,0.487,0.512,1.011,0.813,1.588C-3135.23,1297.809-3136.6,1297.318-3137.646,1293.145z
	 M-2543.852,1167.007C-2547.357,1168.623-2546.184,1167.397-2543.852,1167.007L-2543.852,1167.007z M-2536.999,1162.476
	c1.013-1.251,2.036-2.624,3.139-4.185C-2534.744,1159.848-2535.792,1161.24-2536.999,1162.476z"/>
<g>
	<linearGradient id="SVGID_4_" gradientUnits="userSpaceOnUse" x1="-1890.5371" y1="3085.8418" x2="-2241.5718" y2="2461.7788">
		<stop  offset="0" style="stop-color:#F15A24"/>
		<stop  offset="1" style="stop-color:#874C39"/>
	</linearGradient>
	<path fill="url(#SVGID_4_)" d="M-2392.063,2192.185c-1.352-1.045-2.705-2.09-4.058-3.135c0.02,0.043,0.04,0.086,0.06,0.129
		C-2394.719,2190.167-2393.381,2191.163-2392.063,2192.185z"/>
	<linearGradient id="SVGID_5_" gradientUnits="userSpaceOnUse" x1="-2167.7925" y1="3241.7988" x2="-2518.8271" y2="2617.7356">
		<stop  offset="0" style="stop-color:#F15A24"/>
		<stop  offset="1" style="stop-color:#874C39"/>
	</linearGradient>
	<path fill="url(#SVGID_5_)" d="M-1722.835,2825.365c-0.143-0.646-0.302-1.29-0.478-1.93c-2.504-9.104-9.292-19.471-18.152-23.606
		c-2.481-1.158-4.973-2.276-7.472-3.373c-4.668-6.673-9.007-13.519-14.15-19.963c-8.594-10.769-22.658-18.824-35.986-21.808
		c-15.168-3.395-29.961-1.806-45.152,0.123c-16.44,2.087-32.759,4.653-48.996,7.964c-0.627-0.047-1.253-0.098-1.88-0.143
		c-11.419-0.815-22.87-1.179-34.317-1.197c-15.862-0.026-32.165,3.239-47.746,5.824c-3.643,0.604-7.277,1.248-10.908,1.915
		c-9.582-8.096-20.361-14.518-31.628-19.978c-21.442-10.392-43.954-18.137-65.992-27.074c-3.253-1.51-6.26-3.16-9.219-5.144
		c-8.592-7.247-16.372-15.344-23.48-24.058c-27.606-37.64-43.688-82.189-63.255-124.21c-5.075-10.901-10.346-21.733-16.588-32.021
		c-6.391-10.532-13.696-20.485-21.042-30.362c-13.625-18.319-27.601-36.552-37.326-57.285c-3.449-9.22-5.859-18.664-7.325-28.456
		c-2.065-13.796-4.851-27.478-7.788-41.11c-5.185-24.067-10.979-48.035-14.811-72.364c-1.233-14.482,0.662-29.546,0.943-43.98
		c0.174-8.886,0.177-17.808-0.653-26.662c-1.123-11.996-2.657-25.484-9.554-35.867c-6.848-10.31-16.64-18.869-29.195-21.333
		c-15.351-3.013-28.149-0.07-41.954,6.695c-4.725,2.315-9.156,5.258-13.291,8.616c-5.071-3.255-10.91-5.265-16.702-7.244
		c-2.621-5.39-5.775-10.328-10.75-14.905c-10.277-9.457-22.956-14.933-37.083-14.47c-4.382,0.144-8.678,0.715-12.884,1.64
		c-8.099-6.227-17.223-10.802-26.66-14.812c-15.551-6.607-30.953-13.05-48.17-13.418c-13.292-0.284-27.889,7.591-34.107,19.563
		c-4.7,9.05-8.776,18.537-11.899,28.249c-2.954,9.186-4.041,18.886-5.164,28.418c-1.859,15.789,0.702,32.341,4.157,47.714
		c1.016,4.52,2.242,8.988,3.59,13.422c-13.324,28.86-16.835,59.769-16.068,91.349c0.307,12.623,1.015,25.245,1.222,37.855
		c-8.533,3.574-14.899,7.194-22.071,14.043c-5.556,5.305-10.101,11.876-14.194,18.365c-7.926,12.564-13.357,26.928-18.625,40.725
		c-7.633,19.989-12.57,41.039-20.717,60.81c1.328-3.145,2.655-6.29,3.982-9.436c-12.482,29.524-19.648,61.995-24.708,93.57
		c-4.707,29.374-7.867,59.55-4.046,89.138c-1.304-0.329-2.604-0.676-3.897-1.058c-5.491-2.983-10.638-6.542-15.65-10.292
		c-20.417-16.098-40.343-33.016-65.807-40.438c-14.399-4.198-29.68-5.818-44.014-10.337c-12.397-11.464-31.941-14.01-46.951-5.218
		c-18.778,11-24.746,35.281-14.17,54.044c1.447,2.567,3.063,4.879,4.796,7.01c-2.044,2.755-4.008,5.576-5.869,8.467
		c-2.6,1.788-5.18,3.661-7.752,5.663c-13.797,10.738-24.916,26.42-34.326,40.884c-9.926,15.255-17.19,31.962-24.165,48.71
		c-12.15,29.178-21.87,59.612-31.555,89.684c-6.539,20.304-11.064,40.71-13.025,61.995c-1.917,20.802,1.602,42.28,7.83,62.114
		c10.811,34.431,36.176,59.923,62.185,83.56c11.499,10.449,21.82,21.351,32.012,33.067c10.78,12.393,21.983,24.433,34.767,34.794
		c14.729,11.939,29.168,20.715,46.807,27.683c9.307,3.677,18.716,7.091,28.252,10.124c14.167,4.508,28.333,7.337,43.08,9.194
		c15.589,1.964,30.336-0.571,44.524-7.253c4.764-2.244,9.082-5.563,12.82-9.59c14.879,6.754,29.893,13.25,45.013,19.53
		c65.477,27.194,137.981,27.114,207.338,35.908c37.577,5.293,75.058,12.276,113.029,13.868
		c40.051,1.679,79.095-7.062,117.771-16.461c35.395-8.602,69.635-19.956,104.067-31.701c30.248-10.318,60.789-19.847,90.344-32.075
		c41.842-17.312,81.521-38.897,113.254-71.891c18.758-19.503,30.895-41.753,41.224-66.443c7.655-18.297,13.683-37.215,21.101-55.604
		c5.24-11.762,11.17-23.105,18.627-33.607c6.88-8.215,14.542-15.665,22.822-22.474c17.244-12.561,36.202-22.442,55.737-30.971
		c3.327-1.362,6.662-2.706,10.011-4.015c6.692-1.877,12.501-5.263,17.43-10.158c7.375-7.374,11.569-17.496,11.569-27.931
		C-1691.899,2845.458-1705.306,2829.31-1722.835,2825.365z M-2392.063,2192.185c-1.318-1.021-2.656-2.018-3.999-3.006
		c-0.02-0.043-0.04-0.086-0.06-0.129C-2394.769,2190.095-2393.416,2191.14-2392.063,2192.185z"/>
</g>
<polygon points="1267.813,2710.369 975.828,2744.867 975.828,2539.378 1296.812,2503.387 "/>
<polygon points="1113.82,3122.849 938.33,3109.35 938.33,2687.871 1267.813,2710.369 "/>
<rect x="624.844" y="3058.354" width="493.476" height="472.477"/>
<polygon points="975.828,3239.847 624.844,3239.847 624.844,2530.382 1064.073,2530.382 "/>
<polygon points="2196.767,3816.132 819.836,3816.132 794.337,3501.147 2196.767,3547.64 "/>
<rect x="993.826" y="3410.843" transform="matrix(0.7278 -0.6858 0.6858 0.7278 -2118.415 1700.6677)" width="178.492" height="215.99"/>
<path fill="#C6E8BA" d="M2057.309,3293.622c0,0-68.371,114.622-118.285,62.177c-49.914-52.446-65.385-92.503-107.105-99.577
	c0,0,6.383,15.061,4.471,22.829c-1.911,7.769-23.813-12.039-39.813-9.796l15.867,27.59l-23.035,1.54c0,0,13.355,4.317,16.568,20.555
	c3.213,16.238,15.185,39.781,36.225,56.286c21.041,16.506,50.355,73.151,98.846,68.605c48.49-4.544,105.118-66.645,115.439-81.697
	c10.322-15.054,12.473-23.793,12.473-23.793L2057.309,3293.622z"/>
<path fill="#F15A24" d="M1759.973,3531.869c0,0-20.891-32.471,0-85.951c15.957-40.849,14.129-65.937,14.129-65.937
	s15.307,43.565,9.42,60.049c0,0,25.903-20.922,27.08-44.018c1.178-23.096-3.385-43.111,15.381-58.418c0,0-9.346,36.5,0,49.452
	c9.346,12.951,10.336,43.058,3.017,56.516c0,0,28.026-7.668,23.99-38.854c0,0,16.483,28.258,5.888,41.21
	c-10.598,12.951,9.418,18.839,12.951,34.146c3.532,15.306,15.307,67.501-17.662,70.839
	C1821.199,3554.24,1777.635,3568.369,1759.973,3531.869z"/>
<path fill="#A3E092" d="M2182.17,3133.384c-49-83-138-67-153,2s4.691,124.422,8,136c4,14,34,138,22,172s226,44,226,44l44-34
	c0,0-66-176-93-225S2182.17,3133.384,2182.17,3133.384z"/>
<path fill="#A3E092" d="M2144.65,3479.193c0,0-105.229,57.014-169.978-26.053c-37.747-48.425-31.19-74.451-56.964-85.573
	c0,0,5.031,18.947-0.328,31.256c0,0-18.734-25.205-28.46-30.721c0,0,1.434,32.279,1.39,35.439c0,0-13.986-11.535-14.467-19.23
	c0,0-11.008,18.349-7.438,40.48s43.541,101.771,99.9,119.342c56.357,17.57,171.541-8.924,171.541-8.924L2144.65,3479.193z"/>
<polygon points="2463.51,3576.8 2454.17,3458.859 2197.297,3310.588 1930.023,3577.861 2196.236,3844.073 "/>
<g>
	<circle cx="1744.451" cy="3526.549" r="20.781"/>
	<circle cx="1786.014" cy="3526.549" r="20.781"/>
	<circle cx="1825.014" cy="3526.549" r="20.781"/>
	<circle cx="1866.576" cy="3526.549" r="20.781"/>
</g>
<rect x="1748.17" y="3524.384" width="118.406" height="38"/>
<g>
	<path fill="#44CA92" d="M2050.188,3246.327c-0.016-0.038-0.032-0.074-0.047-0.111
		C2050.231,3246.448,2050.234,3246.452,2050.188,3246.327z"/>
	<path fill="#44CA92" d="M2065.271,3232.301c-0.5-4.167-1.908-8.097-4.223-11.285c-2.059-2.836-5.514-6.26-8.887-5.867
		c-3.111,0.362-5.737,2.827-5.737,6.816c0,0.331,0.024,0.666,0.071,0.999c-0.051,0.177-0.102,0.354-0.145,0.535
		c-0.953,4.008-0.208,9.362,0.639,13.25c0.605,2.773,1.604,5.447,2.637,8.027c-0.744-1.855,0.359,1.02,0.561,1.551
		c0.139,0.35,0.287,0.688,0.455,1.021c0.748,1.49,1.81,2.803,3.035,3.742c1.72,1.318,3.934,1.701,5.896,1.01
		c2.738-0.963,4.284-3.574,5.328-6.541C2066.322,3241.522,2065.774,3236.499,2065.271,3232.301z"/>
</g>
<path fill="#44CA92" d="M2088.022,3219.039c-1.034-2.61-2.755-4.84-4.94-6.4c-1.238-0.885-2.611-1.311-4.008-1.387
	c-0.971-0.735-2.143-1.172-3.397-1.172c-3.271,0-6.013,2.962-6.007,6.512c0.007,4.256,0.223,8.519,1.103,12.68
	c0.88,4.156,2.784,7.832,4.935,11.344c1.217,1.988,2.662,3.867,4.688,4.922c3.217,1.673,7.07,1.009,8.926-2.604
	c1.207-2.351,1.635-5.399,1.705-8.038C2091.172,3229.463,2089.986,3223.996,2088.022,3219.039z M2078.646,3236.854
	c-0.02,0.068-0.041,0.138-0.059,0.207C2078.309,3238.118,2078.23,3237.714,2078.646,3236.854z"/>
<rect x="2238.17" y="3543.384" width="750" height="283"/>
<polygon points="1772.17,2760.384 1472.17,2760.384 1472.17,2330.384 1584.125,2300.384 "/>
<polygon points="1843.125,2806.249 1579.603,2889.623 1472.17,2752.16 1735.691,2608.786 "/>
<polygon points="2102.125,2949.623 1584.125,2879.699 1584.125,2300.384 2102.125,2250.384 "/>
<circle fill="#303030" cx="-1300.25" cy="483.25" r="3.75"/>
<circle fill="#303030" cx="-1288" cy="484.5" r="3.75"/>
<g>
	<polygon fill="#1A1A1A" points="-730.78,815.443 -764.6,815.443 -764.6,770.859 -747.69,750.859 -730.78,770.859 	"/>
	<polyline fill="none" stroke="#1A1A1A" stroke-width="5" points="-778.803,781.972 -747.69,750.859 -716.578,781.972 	"/>
	<rect x="-756.428" y="791.5" fill="#F5F5F5" width="17.476" height="32.693"/>
</g>
<g>
	<polyline fill="#262626" points="-1920.895,730.266 -1889.782,699.153 -1858.669,730.266 	"/>
</g>
<rect x="-885.959" y="435.709" fill="#231E1C" width="145.699" height="34.75"/>
<rect x="-885.959" y="376.81" fill="#231E1C" width="145.699" height="7.362"/>
<rect x="-817.907" y="380.596" fill="#231E1C" width="7.362" height="64.712"/>
<rect x="-839.105" y="380.596" fill="#231E1C" width="7.362" height="64.712"/>
<rect x="-775.51" y="380.596" fill="#231E1C" width="7.362" height="64.712"/>
<rect x="-754.312" y="380.596" fill="#231E1C" width="7.362" height="64.712"/>
<rect x="-796.709" y="380.596" fill="#231E1C" width="7.363" height="64.712"/>
<rect x="-860.304" y="380.596" fill="#231E1C" width="7.362" height="64.712"/>
<rect x="-775.51" y="268.368" fill="#231E1C" width="7.362" height="112.124"/>
<rect x="-860.304" y="268.368" fill="#231E1C" width="7.362" height="112.124"/>
<rect x="-881.502" y="380.596" fill="#231E1C" width="7.362" height="64.712"/>
<polygon fill="#231E1C" points="-740.26,280.457 -888.844,280.457 -816.4,222.797 "/>
<g>
	<path fill="#303030" d="M1083.491-254.735c-5.363-19.503-26.035-31.066-45.487-25.828c-1.971,0.531-3.945,0.98-5.933,1.373
		c-26.481,2.129-53.146-4.228-79.676-3.915c-32.825,0.386-65.541,3.69-98.38,3.771c-4.148,0.01-8.15,0.737-11.9,2.046v-87.48
		H724.316v105.836h96.751c-2.565,5.003-4.029,10.638-4.029,16.577c0,20.121,16.82,37.028,36.978,36.979
		c34.491-0.085,68.859-3.57,103.346-3.819c33.867-0.245,66.679,9.002,100.303-0.052
		C1077.117-214.486,1088.812-235.391,1083.491-254.735z"/>
	<path fill="#303030" d="M728.891-329.428h-44.425l-13.216,13.215v34.406c-9.146-1.292-18.834-1.923-27.74-0.952
		c-10.983,1.197-21.119,4.755-31.759,6.886c-8.358,0.579-16.718,0.222-25.106-0.082c-7.802-0.283-15.722,0.423-23.534,0.056
		c-10.017-2.082-19.666-4.211-30.088-5.222c-9.954-0.966-20.022-0.655-30.006-0.41c-9.351,0.229-18.715,0.129-28.043,0.858
		c-8.678,0.677-17.28,1.686-25.962,1.542c-7.625-3.241-12.99-4.857-22.08-5.782c-8.488-0.863-17.242,1.239-25.78,2.851
		c-2.223,0.116-4.43,0.109-6.658-0.016c-12.128-2.157-24.045-5.27-36.498-5.544c-13.407-0.295-26.755-1.798-40.166-1.913
		c-20.159-0.173-36.979,16.951-36.979,36.978c0,20.289,16.823,36.807,36.979,36.979c8.388,0.072,16.738,0.732,25.104,1.308
		c6.391,0.439,12.821,0.362,19.207,0.832c9.788,1.778,19.407,4.057,29.373,5.086c10.207,1.055,20.294-0.778,30.351-2.505
		c1.771,0.767,3.544,1.529,5.359,2.247c6.081,2.403,12.699,2.929,19.187,3.407c10.286,0.757,20.706-0.897,30.941-1.697
		c10.052-0.784,20.236-0.554,30.315-0.782c8.512-0.193,17.012-0.158,25.485,0.566c9.562,1.754,18.812,4.398,28.666,5.162
		c9.711,0.753,19.689-0.239,29.452,0.128c11.886,0.446,23.131-0.116,34.934-1.821c7.63-1.102,14.841-3.79,22.299-5.512
		c4.752-0.197,9.634,0.001,14.368,0.43c0.44,0.047,0.877,0.083,1.315,0.118c1.004,0.1,1.997,0.209,2.981,0.326
		c-0.61-0.082-1.221-0.164-1.831-0.246c17.688,0.996,34.334-7.962,39.445-26.543c3.688-13.403-1.354-29.85-12.244-38.991h36.354
		V-329.428z"/>
	<polygon fill="#303030" points="851.108,-342.254 761.431,-342.254 771.355,-380.829 841.183,-380.829 	"/>
	<g>
		<rect x="977.932" y="-337.589" fill="#303030" width="9.877" height="75.684"/>
		<circle fill="#303030" cx="982.87" cy="-361.958" r="40.52"/>
	</g>
	<g>
		<rect x="529.531" y="-337.589" fill="#303030" width="9.877" height="75.684"/>
		<circle fill="#303030" cx="534.47" cy="-361.958" r="40.52"/>
	</g>
	<g>
		<rect x="440.645" y="-337.589" fill="#303030" width="9.877" height="75.684"/>
		<circle fill="#303030" cx="445.583" cy="-361.958" r="40.52"/>
	</g>
	<polyline fill="#303030" points="711.105,-363.916 756.208,-409.02 801.311,-363.916 	"/>
	<rect x="818.738" y="-391.118" fill="#303030" width="4.675" height="13.176"/>
	<rect x="747.758" y="-360.513" fill="#DDD387" width="4.675" height="9.35"/>
	<circle fill="#303030" cx="643.303" cy="-285.391" r="4.782"/>
	<circle fill="#303030" cx="901.303" cy="-284.391" r="4.782"/>
	<circle fill="#303030" cx="658.923" cy="-283.797" r="4.782"/>
</g>
<g>
	<rect x="-1362.535" y="2195.836" fill="#231E1C" width="77.367" height="9.644"/>
	<rect x="-1382.296" y="2205.479" fill="#231E1C" width="77.368" height="9.644"/>
	<rect x="-1402.058" y="2213.834" fill="#231E1C" width="77.369" height="9.644"/>
	<rect x="-1421.819" y="2221.57" fill="#231E1C" width="77.368" height="9.644"/>
</g>
<rect x="-1337.611" y="2185.015" fill="#231E1C" width="145.699" height="34.75"/>
<rect x="-1337.611" y="2126.115" fill="#231E1C" width="145.699" height="7.362"/>
<rect x="-1269.559" y="2129.901" fill="#231E1C" width="7.362" height="64.712"/>
<rect x="-1290.757" y="2129.901" fill="#231E1C" width="7.363" height="64.712"/>
<rect x="-1227.162" y="2129.901" fill="#231E1C" width="7.361" height="64.712"/>
<rect x="-1205.963" y="2129.901" fill="#231E1C" width="7.362" height="64.712"/>
<rect x="-1248.361" y="2129.901" fill="#231E1C" width="7.363" height="64.712"/>
<rect x="-1311.956" y="2129.901" fill="#231E1C" width="7.362" height="64.712"/>
<rect x="-1227.162" y="2017.674" fill="#231E1C" width="7.361" height="112.124"/>
<rect x="-1311.956" y="2017.674" fill="#231E1C" width="7.362" height="112.124"/>
<rect x="-1333.154" y="2129.901" fill="#231E1C" width="7.362" height="64.712"/>
<polygon fill="#231E1C" points="-1191.912,2029.763 -1340.496,2029.763 -1268.052,1972.103 "/>
<path fill="#231E1C" d="M-227.343,2666.102c5.08-15.063,7.644-31.388,9.167-47.157c1.464-15.154-1.19-30.388-4.39-45.159
	c-2.753-12.717-5.105-25.454-6.957-38.323c-2.135-16.857-3.627-33.782-4.839-50.731c-0.335-4.679-0.048-9.404,0.144-14.117
	c1.3-2.17,2.246-4.534,2.719-7.06c3.48-18.587,4.33-37.244,3.329-56.091c-1.025-19.297-2.496-39.231-7.314-57.964
	c-2.073-8.062-4.698-15.899-7.431-23.749c-2.52-7.234-5.333-13.688-10.451-19.438c-5.234-5.882-11.76-9.111-19.043-11.681
	c-7.614-2.687-17.637-2.351-25.664-1.479c-5.888,0.64-11.869,1.336-17.612,2.849c-3.106,0.817-5.943,2.188-8.961,3.135
	c-4.31,0.016-8.666-0.452-12.947-0.536c-6.423-0.126-12.846-0.198-19.268-0.332c-11.553-0.24-23.092-0.792-34.568-2.128
	c-14.702-2.185-29.323-4.899-44.054-6.889c-0.823-0.111-1.646-0.221-2.469-0.33c-2.393-1.381-4.986-2.575-7.825-3.545
	c-7.377-2.52-14.926-1.913-21.796,0.818c-5.27-0.05-10.561,0.251-15.813-0.013c-3.146-0.743-6.235-1.693-9.305-2.722
	c-1.672-0.561-3.319-1.193-4.966-1.823c-0.244-0.098-0.452-0.182-0.644-0.258c-0.245-0.109-0.491-0.214-0.735-0.324
	c-7.947-3.543-15.645-7.631-23.461-11.446c-1.562-0.763-3.133-1.501-4.706-2.237c-1.565-0.732-6.394-2.812-8.642-3.773
	c-5.125-2.211-10.238-4.454-15.454-6.443c-6.882-2.624-13.898-3.853-20.992-4.001c-0.461-0.148-0.922-0.298-1.378-0.442
	c-8.501-2.693-17.771-3.291-26.539-4.467c2.481,0.333,4.963,0.667,7.443,1c-18.801-2.618-47.178-2.02-60.152,13.03
	c-21.385,1.113-56.535-3.203-95.137-8.469c-5.147-5.542-12.497-9.037-20.551-9.156c-1.272-0.02-2.535-0.077-3.796-0.164
	c-11.466-2.327-22.073-7.321-32.985-11.475c-8.13-3.094-16.075-4.638-24.696-5.794c-5.764-0.772-11.578-0.67-17.37-1.116
	c-7.387-1.397-14.554-3.58-21.703-5.95c-6.911-2.292-14.769-3.058-21.896-3.796c-21.407-2.216-44.693,8.48-50.046,30.852
	c-0.316,1.324-0.527,2.651-0.658,3.973c-0.497,0.962-0.862,1.984-1.082,3.075c-10.604,52.619-12.353,106.326-15.77,159.965
	c-3.784,59.418,27.925,88.516,68.241,111.395c3.658-1.798,7.756-2.875,12.057-3.068c12.183-0.549,24.852,2.264,36.638,5.156
	c14.582,3.579,28.902,8.229,43.018,13.328c32.484,11.736,64.331,25.628,95.102,41.314c29.011,14.79,57.564,31.164,83.486,50.96
	c12.423,9.487,24.744,19.231,35.344,30.782c8.569,9.338,17.063,19.743,22.057,31.519c5.691,13.418,8.916,27.128,5.974,41.536
	c5.237,1.492,10.481,2.96,15.726,4.426c15.74,4.399,31.558,8.708,46.954,14.223c13.965,5.002,28.675,10.501,40.624,19.535
	c5.987,4.526,10.565,8.9,12.638,16.435c0.516,1.874,0.819,3.793,0.927,5.719c1.621,0.148,3.254,0.246,4.893,0.305
	c4.689,0.166,9.439-0.676,14.133-0.635c10.325,2.411,19.822,7.348,30.163,9.821c13.576,3.247,28.122,4.051,41.961,2.234
	c7.555-0.992,14.897-2.016,22.137-4.429c1.327-0.442,2.622-0.977,3.913-1.515c-2.479,1.032,16.817-6.994,3.737-1.662
	c4.525-1.845,9.013-3.778,13.457-5.811c2.384-1.09,4.754-2.209,7.131-3.313c0.841-0.391,3.124-1.379,4.872-2.141
	c3.004,1.125,6.238,1.752,9.595,1.777c14.726,0.111,28.853,1.65,43.443-1.666c9.389-2.135,17.059-10.475,19.557-19.557
	c2.75-9.997-0.394-19.751-7.201-27.242c-0.326-0.359-0.808-0.938-1.249-1.476c-0.675-1.033-1.315-2.088-1.943-3.147
	c-0.764-1.29-1.432-2.634-2.096-3.977c-0.119-0.322-0.249-0.641-0.364-0.965c-2.309-6.317-3.772-12.973-4.898-19.617
	c-0.415-4.55-0.481-9.079-0.146-13.632C-236.331,2688.873-231.232,2677.632-227.343,2666.102z"/>
<path fill="#231E1C" d="M-249.687,2875.62c-1.312-0.291-2.589-0.648-3.859-1.037c-0.867-0.346-1.813-0.741-2.386-1.04
	c-3.65-1.906-7.118-4.169-10.618-6.33c-7.911-4.884-16.837-9.922-26.031-11.646c-12.131-2.274-26.116-3.689-38.458-0.537
	c-13.081-2.474-28.228,2.033-41.979,4.966c-3.24-0.209-6.499-0.259-9.763-0.21c-1.268-0.465-2.882-1.117-3.28-1.268
	c-3.97-1.74-7.927-3.497-11.949-5.139c-10.229-4.174-21.747-4.788-32.671-5.347c-20.632-1.055-41.303,1.027-61.938,1.088
	c-21.072,0.062-42.017-2.956-62.997-4.5c-10.662-0.785-21.339-0.63-32.01-0.684c-10.165-3.238-20.49-5.688-31.287-5.868
	c-3.343-0.056-6.642,0.276-9.919,0.803c-0.562-0.215-1.27-0.502-1.921-0.771c-6.687-3.031-13.181-6.49-19.798-9.662
	c-15.219-7.293-30.49-12.787-46.744-12.916c-0.219-0.213-0.428-0.433-0.654-0.64c-0.936-0.854-1.889-1.685-2.871-2.482
	c-2.176-1.619-4.363-3.224-6.527-4.857c-2.54-1.917-5.146-3.886-7.738-5.928c-1.053-0.393-2.039-0.746-2.573-0.893
	c-1.543-0.426-3.096-0.83-4.665-1.151c-0.499-0.035-0.998-0.075-1.498-0.097c-1.935-0.061-3.876-0.078-5.808,0.069
	c-1.677,0.344-3.348,0.72-4.989,1.211c-1.554,0.464-3.096,0.969-4.615,1.533c-0.158,0.075-0.318,0.146-0.476,0.222
	c-14.861,7.287-27.599,18.001-40.832,27.781c-2.14,1.581-4.309,3.137-6.504,4.66c-13.629,11.34-30.403,19.613-50.72,23.576
	c-1.053-0.425-2.181-0.767-3.403-0.989c-5.904-1.073-25.531,1.523-51.132,0.403c-32.458-4.187-69.044-14.361-100.804-30.233
	c-9.542-6.432-18.768-14.17-27.397-23.504c-65.333-70.667-33.334-139.998-20.001-173.998s10.986-167.334,10.986-167.334
	c-0.532-2.244-1.069-4.356-1.609-6.361c3.245-68.738,9.141-137.455,7.034-206.498c-43.862-74.258-196.064-37.025-268.659-35.559
	c-87.167,1.766-184.159,19.612-268.989,35.385c-88.378,16.437-204.648,19.864-299.301,13.521c-3.379,2.065-6.707,4.221-9.926,6.527
	c-1.194,0.959-3.282,2.624-4.087,3.351c-1.843,1.664-3.663,3.363-5.351,5.187c-0.662,0.714-1.314,1.438-1.955,2.172
	c-1.358,2.005-2.713,4.019-3.95,6.101c-1.475,2.481-2.893,4.998-4.174,7.587c-0.654,1.32-2.654,5.98-2.948,6.542
	c-3.817,10.043-6.749,20.429-8.808,30.974c0.073,18.762,0.279,37.521,0.723,56.274c0.519,2.669,1.036,5.339,1.521,8.015h391.948
	c68.864,0,62.247,63.13,124.074,63.637c63.682,12.367,109.121,34.954,156.091,75.812c20.639,17.953,65.296-13.65,65.296,30.867
	c0,32.357-6.649,72.185,0,103.826c0,143.79,190.516,266.029,337.23,246.377c5.105,4.067,10.825,5.456,17.519,6.164
	c10.837,1.146,21.612-0.968,32.386-1.886c12.522-1.066,25.186-1.234,37.742-1.665c25.675-0.88,51.226-0.982,76.908-0.628
	c25.2,0.348,50.331-1.354,75.523-1.067c18.807,0.214,37.596,1.081,56.396,1.565c10.694,0.642,21.356,1.818,32.03,2.753
	c13.816,1.211,27.712,0.848,41.49,2.31c24.685,3.852,48.732,11.021,73.813,12.428c12.597,0.707,25.898-1.913,38.015-6.131
	c4.959,1.473,10.417,1.717,15.85,0.67c0.5-0.097,1.002-0.178,1.503-0.27c0.983,0.07,1.976,0.133,2.981,0.184
	c10.104,0.513,20.223,0.736,30.342,0.713c0.776,0.055,1.549,0.11,2.313,0.168c9.271,0.7,18.484,0.201,27.654-0.982
	c1.921-0.1,3.841-0.195,5.76-0.313c12.541-0.763,23.544-7.992,27-20.557C-226.238,2895.911-234.788,2878.936-249.687,2875.62z"/>
<path fill="#ED1C24" d="M-777.169,2647.106c0,0-13.5-46-41.5-44.5s-31.5,20-22.5,40s22.5,34.5,16.5,58s-15.473,43.037-10.986,58.019
	s78.986-8.519,78.986-8.519S-773.169,2685.606-777.169,2647.106z"/>
<path fill="#ED1C24" d="M-825.581,2674.912c0,0-7.089,22.694-23.089,18.694s-20-21.5-40.5-26.5c0,0,2.5,10.473,5,13.486
	c0,0-7.75-8.736-12.5-8.986c0,0,1,9.5,6.5,14c0,0-3.25-2-10.25-2l-3.25,1c0,0,6.75,4.223,12,13s21.5,13.5,30.75,13.5
	s30.75-3.5,39.5-23.5S-825.581,2674.912-825.581,2674.912z"/>
<polygon fill="#6C3423" points="3427.165,1556.166 3478.165,1532.166 3516.165,1535.166 3538.665,1522.166 3553.165,1505.166 
	3584.165,1501.666 3613.165,1568.166 3631.165,1574.166 3655.165,1610.166 3645.165,1638.166 3508.165,1638.166 3432.165,1628.166 
	"/>
<path fill="#65392B" d="M4948.628,78.403l15,37l4.5,25l20.5-7C4988.628,133.403,4951.128,80.403,4948.628,78.403z"/>
<polygon fill="#331D16" points="4824.013,399.237 4792.295,406.547 4773.462,426.213 4801.462,428.545 "/>
<polygon fill="#65392B" points="5097.462,185.57 5060.128,210.903 5051.128,252.237 5032.128,269.57 5014.128,301.903 
	5014.795,309.237 5076.462,309.237 5121.795,314.903 5193.462,304.903 5246.129,304.903 5237.462,277.57 5216.795,264.903 
	5212.129,248.903 5181.462,218.237 5154.795,208.903 5139.462,194.57 "/>
<polygon fill="#44261D" points="5069.129,214.238 5051.128,252.237 5058.462,210.57 5097.462,185.57 5098.462,189.57 "/>
<polygon fill="#6D3E31" points="5221.461,305.903 5251.461,288.57 5312.128,281.903 5443.461,291.903 5448.128,331.236 
	5437.461,345.568 4991.461,348.235 5002.795,333.236 "/>
<polygon fill="#331D16" points="5002.129,159.236 5015.462,130.57 5026.127,109.651 5004.125,92.57 4982.795,92.57 
	4952.795,115.236 4915.462,140.403 4910.794,218.903 4891.462,245.903 4891.462,261.236 4934.795,261.236 4964.129,245.903 
	4988.628,244.401 4999.462,215.236 4993.462,185.57 "/>
<polygon fill="#44261D" points="4800.794,158.566 4845.128,117.903 4884.128,117.903 4926.128,75.903 4950.128,75.903 
	4989.128,134.903 4985.128,196.903 5010.128,241.903 5003.128,305.903 4877.128,314.903 4815.128,286.903 4805.128,217.903 "/>
<g>
	<polygon fill="#65392B" points="5010.128,244.255 4986.236,201.25 4988.628,135.755 4971.128,120.255 4955.884,98.651 
		4954.128,126.755 4931.628,155.255 4939.628,190.255 4952.128,197.755 4957.128,223.755 4911.128,248.755 4904.041,272.948 
		4926.378,308.005 5020.878,310.005 	"/>
</g>
<polygon fill="#261611" points="4786.46,143.233 4815.127,154.233 4837.793,216.9 4863.46,244.566 4884.793,284.566 
	4902.46,325.566 4869.127,345.568 4787.46,329.568 4742.127,309.234 4744.46,260.901 4754.46,232.234 4770.46,148.403 "/>
<polygon fill="#6D3E31" points="5119.128,314.037 5113.46,277.911 5116.294,252.329 5110.128,233.314 5107.628,193.903 
	5139.462,194.595 5157.128,207.904 5184.128,217.758 5214.128,250.428 5219.794,267.021 5243.128,279.985 5248.628,297.099 
	5219.794,314.037 5158.832,314.037 5123.128,319.569 "/>
<polygon fill="#261611" points="4863.13,345.497 4886.226,284.852 4906.59,283.214 4924.045,271.235 4945.947,271.92 
	4968.534,300.668 4972.298,323.596 4994.543,332.493 5004.125,348.235 "/>
<polygon fill="#231E1C" points="1821.01,853.997 1872.428,873.729 1913.084,986.131 1959.123,1035.756 1997.387,1107.503 
	2029.076,1181.043 1969.288,1216.919 1822.805,1188.221 1741.49,1151.748 1745.677,1065.055 1763.613,1013.636 1792.313,863.271 "/>
<polygon fill="#65392B" points="5109.311,220.424 5148.128,271.235 5137.128,286.903 5137.128,309.735 5118.128,319.569 
	5084.628,312.403 "/>
<circle fill="#261611" cx="4472.332" cy="1701.001" r="36"/>
<circle fill="#261611" cx="4515.665" cy="1727.001" r="36"/>
<circle fill="#261611" cx="4462.332" cy="1727.001" r="36"/>
<path fill="#261611" d="M4384.998,1562.334c0,0,56,6,56,62.667s11.334,66,11.334,66l99.299,37.349l-2.633,39.318h-160
	L4384.998,1562.334z"/>
<path fill="#261611" d="M4388.332,1757.006v16.667h282.666v-10.672c0,0-30.666,0-75.333,0s-44.198-32.205-44.198-32.205
	L4388.332,1757.006z"/>
<polygon fill="#231E1C" points="1160,-203.834 1176.668,-1126.501 1235,-1126.501 1252,-203.834 "/>
<g>
	<circle fill="#4D4D4D" cx="1763.5" cy="-348.931" r="8.509"/>
	<rect x="1754.991" y="-348.931" fill="#4D4D4D" width="17.018" height="17.176"/>
</g>
<g>
	<circle fill="#4D4D4D" cx="1798.5" cy="-349.009" r="8.509"/>
	<rect x="1789.991" y="-349.009" fill="#4D4D4D" width="17.018" height="17.176"/>
</g>
<g>
	<circle fill="#4D4D4D" cx="1703.75" cy="-351.509" r="8.509"/>
	<rect x="1695.241" y="-351.509" fill="#4D4D4D" width="17.018" height="17.176"/>
</g>
<g>
	<circle fill="#4D4D4D" cx="1615" cy="-323.413" r="8.509"/>
	<rect x="1606.491" y="-323.413" fill="#4D4D4D" width="17.018" height="17.176"/>
</g>
<g>
	<circle fill="#4D4D4D" cx="1652.5" cy="-322.246" r="8.509"/>
	<rect x="1643.991" y="-322.246" fill="#4D4D4D" width="17.018" height="17.176"/>
</g>
<g>
	<circle fill="#4D4D4D" cx="1688" cy="-317.992" r="8.509"/>
	<rect x="1679.491" y="-317.992" fill="#4D4D4D" width="17.018" height="17.176"/>
</g>
<g>
	<circle fill="#4D4D4D" cx="1719.5" cy="-313.737" r="8.509"/>
	<rect x="1710.991" y="-313.737" fill="#4D4D4D" width="17.018" height="17.176"/>
</g>
<g>
	<circle fill="#4D4D4D" cx="1781.482" cy="-314.904" r="8.509"/>
	<rect x="1772.974" y="-314.904" fill="#4D4D4D" width="17.018" height="17.176"/>
</g>
<g>
	<circle fill="#4D4D4D" cx="1835.482" cy="-322.325" r="8.509"/>
	<rect x="1826.974" y="-322.325" fill="#4D4D4D" width="17.018" height="17.176"/>
</g>
<g>
	<circle fill="#4D4D4D" cx="1746.482" cy="-398.332" r="8.509"/>
	<rect x="1737.974" y="-398.332" fill="#4D4D4D" width="17.018" height="17.176"/>
</g>
<g>
	<circle fill="#4D4D4D" cx="1709.04" cy="-398.332" r="8.509"/>
	<rect x="1700.531" y="-398.332" fill="#4D4D4D" width="17.018" height="17.176"/>
</g>
<g>
	<circle fill="#4D4D4D" cx="1676.464" cy="-390.801" r="8.509"/>
	<rect x="1667.955" y="-390.801" fill="#4D4D4D" width="17.018" height="17.176"/>
</g>
<g>
	<circle fill="#4D4D4D" cx="1636.982" cy="-365.301" r="8.509"/>
	<rect x="1628.474" y="-365.301" fill="#4D4D4D" width="17.018" height="17.176"/>
</g>
<g>
	<circle fill="#4D4D4D" cx="1734.388" cy="-351.509" r="8.509"/>
	<rect x="1725.879" y="-351.509" fill="#4D4D4D" width="17.018" height="17.176"/>
</g>
<g>
	
		<rect x="1782.788" y="-502.523" transform="matrix(0.9994 0.0342 -0.0342 0.9994 -14.1476 -61.4325)" fill="#303030" width="14" height="116"/>
	<circle fill="#303030" cx="1793.298" cy="-517.892" r="55.509"/>
</g>
<rect x="1860" y="-413.098" transform="matrix(0.9647 0.2635 -0.2635 0.9647 -39.1407 -504.8086)" fill="#4D4D4D" width="5" height="29.532"/>
<path fill="none" stroke="#231E1C" stroke-width="17" stroke-linecap="round" d="M1173.362-598.539
	c0,0-140.726,34.01-140.726-104.99"/>
<path fill="none" stroke="#231E1C" stroke-width="17" stroke-linecap="round" d="M1351.435-623.112
	c0,0,36.305,112.746-107.387,114.201"/>
<path fill="none" stroke="#231E1C" stroke-width="12" stroke-linecap="round" d="M1032.695-669.413c0,0-59.732,24.66-59.732-32.333"
	/>
<path fill="none" stroke="#231E1C" stroke-width="12" stroke-linecap="round" d="M1393.693-649.971c0,0,27.259,67.694-35.741,67.694
	"/>
<circle fill="#231E1C" cx="1364.525" cy="-706.599" r="90.475"/>
<path fill="none" stroke="#231E1C" stroke-width="23" stroke-linecap="round" d="M1415.5-978c0,0,20.195,169.437-192.31,171.589"/>
<path fill="none" stroke="#231E1C" stroke-width="12" stroke-linecap="round" d="M1463.615-979.346c0,0,14.916,70.935-60.972,70.935
	"/>
<path fill="none" stroke="#231E1C" stroke-width="12" stroke-linecap="round" d="M1128.343-938.017c0,0-14.916,70.935,60.972,70.935
	"/>
<circle fill="#231E1C" cx="1406.555" cy="-1081.271" r="133.803"/>
<circle fill="#231E1C" cx="1119.156" cy="-1170.267" r="254.384"/>
<circle fill="#231E1C" cx="986.87" cy="-806.483" r="115.13"/>
<g>
	<g>
		<ellipse fill="#231E1C" cx="1095.445" cy="-625.266" rx="13.943" ry="16.611"/>
		<circle fill="#231E1C" cx="1095.445" cy="-646.458" r="7.288"/>
		<polygon fill="#231E1C" points="1088.972,-649.803 1079.372,-646.458 1088.532,-644.159 1091.159,-647.958 		"/>
	</g>
	<path fill="#231E1C" d="M1104.671-612.812l3.785,20.611c0,0-13.501,15.531-25.667,0l4.334-20.611H1104.671z"/>
</g>
<g>
	<g>
		<ellipse fill="#231E1C" cx="1142.779" cy="-618.266" rx="13.943" ry="16.611"/>
		<circle fill="#231E1C" cx="1142.779" cy="-639.458" r="7.288"/>
		<polygon fill="#231E1C" points="1140.015,-645.714 1130.306,-648.729 1136.307,-641.436 1140.678,-642.931 		"/>
	</g>
	<path fill="#231E1C" d="M1152.005-605.812l3.785,20.611c0,0-13.501,15.531-25.667,0l4.334-20.611H1152.005z"/>
</g>
<g>
	<path opacity="0.37" fill="#FFFFFF" d="M1501.707-605.781c-15.626,2.916-20.542,22.707-21.245,34.084s-4.689,41.113-6.329,48.229
		c-1.641,7.116-4.688,17.791-5.859,22.111c-1.173,4.32-5.392,12.199-1.173,14.995c4.22,2.796,4.922-3.28,7.501-5.453
		c2.579-2.172,5.391,5.453,3.75,9.011c-1.64,3.558,0,5.845,3.282,7.878c3.281,2.033,7.031-12.454,11.251-10.675
		c4.219,1.78,3.281,7.879,2.109,9.912c-1.172,2.034-2.813,5.337,3.046,8.387c5.861,3.05,6.798-8.641,8.907-10.928
		c2.11-2.288,6.095,1.016,5.86,3.558c-0.234,2.542-3.75,4.312-1.172,7.874c2.578,3.563,7.5,1.38,9.142-4.01
		c1.641-5.39,7.266-13.268,10.078-29.025c2.813-15.757,15.236-69.383,9.142-86.666
		C1533.902-603.779,1520.608-609.307,1501.707-605.781z"/>
	<path fill="#FFFFFF" d="M1524.218-580.251c-0.355-1.356-1.67-3.065-3.299-2.474c-1.837,0.667-2.764,2.399-3.376,4.145
		c-1.084,3.083-1.823,8.552,1.947,10.053c0.417,0.166,0.779,0.146,1.08,0.015c0.374,0.011,0.775-0.079,1.199-0.304
		C1525.138-570.603,1525.061-577.029,1524.218-580.251z M1520.903-572.87c-0.03-0.854,0.223-1.721,0.424-2.542
		c0.012-0.048,0.023-0.095,0.036-0.143C1521.308-574.617,1521.165-573.686,1520.903-572.87z"/>
	<path fill="#FFFFFF" d="M1534.823-578.211c-0.355-1.356-1.67-3.064-3.299-2.474c-1.837,0.667-2.764,2.399-3.376,4.145
		c-1.083,3.083-1.823,8.552,1.947,10.053c0.417,0.167,0.78,0.146,1.08,0.015c0.374,0.011,0.775-0.079,1.199-0.304
		C1535.743-568.563,1535.666-574.989,1534.823-578.211z M1531.509-570.831c-0.03-0.854,0.223-1.721,0.424-2.542
		c0.012-0.048,0.023-0.095,0.036-0.143C1531.913-572.578,1531.771-571.646,1531.509-570.831z"/>
</g>
<g>
	<path opacity="0.42" fill="#FFFFFF" d="M3687.103-468.562c-19.154,3.574-25.18,27.833-26.041,41.779
		c-0.862,13.946-5.748,50.395-7.759,59.118c-2.011,8.723-5.745,21.808-7.182,27.103c-1.438,5.297-6.609,14.953-1.438,18.381
		c5.172,3.427,6.033-4.021,9.194-6.684s6.607,6.684,4.597,11.045s0,7.164,4.022,9.657s8.619-15.265,13.791-13.085
		c5.172,2.182,4.022,9.658,2.586,12.15s-3.448,6.542,3.734,10.281c7.184,3.738,8.332-10.592,10.918-13.396
		c2.586-2.804,7.47,1.246,7.183,4.361s-4.596,5.285-1.436,9.652c3.159,4.367,9.193,1.691,11.205-4.915
		c2.011-6.606,8.906-16.264,12.354-35.579c3.448-19.314,18.676-85.047,11.205-106.231S3710.271-472.884,3687.103-468.562z"/>
	<path fill="#FFFFFF" d="M3714.695-437.269c-0.436-1.662-2.047-3.756-4.044-3.031c-2.251,0.816-3.387,2.94-4.138,5.08
		c-1.328,3.778-2.234,10.482,2.387,12.322c0.512,0.203,0.956,0.179,1.324,0.018c0.459,0.014,0.95-0.096,1.47-0.371
		C3715.823-425.442,3715.729-433.319,3714.695-437.269z M3710.633-428.222c-0.037-1.046,0.273-2.109,0.52-3.115
		c0.015-0.059,0.029-0.115,0.044-0.174C3711.128-430.363,3710.953-429.222,3710.633-428.222z"/>
	<path fill="#FFFFFF" d="M3727.695-434.769c-0.436-1.662-2.047-3.756-4.044-3.031c-2.251,0.816-3.387,2.94-4.138,5.08
		c-1.328,3.778-2.234,10.482,2.387,12.322c0.512,0.203,0.956,0.179,1.324,0.018c0.459,0.014,0.95-0.096,1.47-0.371
		C3728.823-422.942,3728.729-430.819,3727.695-434.769z M3723.633-425.722c-0.037-1.046,0.273-2.109,0.52-3.115
		c0.015-0.059,0.029-0.115,0.044-0.174C3724.128-427.863,3723.953-426.722,3723.633-425.722z"/>
</g>
<polygon fill="#231E1C" points="3159,-305.966 2479,-292 2510,-1109 3159,-1109 "/>
<path fill="#231E1C" d="M2615.048-374.644c-0.302,6.621-5.914,11.742-12.534,11.44l-125.87-5.748
	c-6.619-0.302-11.741-5.914-11.44-12.535l5.749-125.869c0.302-6.621,5.915-11.743,12.534-11.44l125.87,5.748
	c6.62,0.302,11.741,5.914,11.44,12.535L2615.048-374.644z"/>
<path fill="#231E1C" d="M2627.048-577.644c-0.302,6.621-5.914,11.742-12.534,11.44l-125.87-5.748
	c-6.619-0.302-11.741-5.914-11.44-12.535l5.749-125.869c0.302-6.621,5.915-11.743,12.534-11.44l125.87,5.748
	c6.62,0.302,11.741,5.914,11.44,12.535L2627.048-577.644z"/>
<path fill="#231E1C" d="M2637.547-786.134c-0.302,6.621-5.914,11.742-12.534,11.44l-125.87-5.748
	c-6.619-0.302-11.741-5.914-11.44-12.535l5.749-125.869c0.302-6.621,5.915-11.743,12.534-11.44l125.87,5.748
	c6.62,0.302,11.741,5.914,11.44,12.535L2637.547-786.134z"/>
<path fill="#231E1C" d="M1302.752-245.391c0,21.789-17.66,39.449-39.453,39.449c-21.785,0-39.445-17.66-39.445-39.449
	s17.66-39.449,39.445-39.449C1285.092-284.84,1302.752-267.18,1302.752-245.391z"/>
<path fill="#231E1C" d="M871.752-214.391c0,21.789-17.66,39.449-39.453,39.449c-21.785,0-39.445-17.66-39.445-39.449
	s17.66-39.449,39.445-39.449C854.092-253.84,871.752-236.18,871.752-214.391z"/>
<circle fill="#231E1C" cx="788.303" cy="-196.391" r="24.697"/>
<circle fill="#231E1C" cx="615" cy="-203" r="24.697"/>
<polygon fill="#231E1C" points="1819.021,808.565 1822.021,955.558 1867.019,1051.553 1961.514,1147.549 1963.014,1213.545 
	1519.035,1279.542 1412.541,1269.042 1445.539,802.565 "/>
<g>
	<path fill="#231E1C" d="M2087.113-45.452c-1.778-15.713-4.78-31.208-7.16-46.818c-1.109-10.73-1.084-21.497-1.051-32.261
		c1.66-6.862,1.57-14.192-0.276-21.311c-0.267-6.042-0.768-12.077-1.723-18.096c-3.613-22.781-22.282-43.488-42.473-53.347
		c-19.189-9.372-39.573-13.292-60.86-14.03c-21.953-0.761-43.493,4.171-65.056,7.732c-6.911,0.515-13.849,0.557-20.765,1.047
		c-10.771,0.762-20.879,2.702-31.137,5.727c-0.241,0.071-0.479,0.15-0.72,0.223c-3.069-0.073-6.138-0.117-9.202-0.086
		c-12.365,0.125-24.666,1.875-36.984,2.779c-12.976,0.952-26.041,0.428-39.037,0.262c-13.258-0.169-26.515-0.232-39.766,0.307
		c-4.877,0.199-9.711,0.6-14.535,0.939c-7.345,0.004-14.688,0-22.032,0c-3.071-0.564-6.132-1.181-9.193-1.811
		c-7.38-1.519-14.786-2.618-22.23-3.615c-21.969-3.205-43.567-8.454-65.419-12.343c-26.005-4.629-51.943-9.077-78.301-11.286
		c-23.618-1.98-47.257-1.349-70.896-2.544c-9.548-0.483-19.078-1.227-28.609-1.936c-2.422-0.675-4.837-1.338-7.242-1.978
		c-43.829-11.652-89.613-13.815-134.623-13.512c-45.161,0.305-90.249,3.632-135.396,4.6c-19.114,0.411-37.52,0.653-56.055,4.869
		c-10.045,0.911-20.044,2.417-29.956,4.394c-0.499,0.099-0.994,0.218-1.493,0.322c-0.54,0.1-1.08,0.193-1.62,0.294
		c-15.394,2.882-30.991,5.741-46.144,9.925c-1.547-0.271-3.13-0.413-4.741-0.4c-31.631,0.247-61.509,11.452-92.435,16.655
		c-6.891,0.793-13.774,1.132-20.731,0.954c-6.404-0.163-11.58-0.443-18.111,0.845c-2.997,0.591-5.812,1.728-8.697,2.622
		c-9.595,0.358-19.197-0.017-28.8,0.151c-10.896,0.191-21.693,1.934-32.596,2.25c-10.742,0.312-21.49-0.034-32.233,0.106
		c-11.462,0.152-22.914,0.782-34.375,0.978c-10.55,0.181-21.06,0.27-31.596,0.958c-10.647,0.697-21.451,2.754-32.109,1.955
		c-11.079-0.83-21.947-1.396-33.065-1.001c-11.717,0.415-23.409,1.294-35.137,1.344c-4.623,0.019-9.018,1.224-12.936,3.318
		c-16.113,0.298-32.27,1.003-48.324-0.565c-9.452-0.924-18.726-2.845-28.258-2.732c-9.215,0.109-18.386,1.147-27.617,1.159
		c-19.068,0.024-37.88-1.17-56.938,0.395c-19.17,1.574-38.671,0.565-57.89,0.565c-15.943,0-29.248,14.114-29.248,31.027
		c0,14.79,10.173,27.438,23.388,30.382V-102H364v223v43v694h1418.341c17.603-24.631,36.331-48.521,52.945-73.834
		c5.546-8.449,10.694-17.13,15.822-25.827l-0.774-12.007l18.667-46.667v-29.333c0,0,17.333-36,17.333-40s0-48,0-48l8.667-63.333
		l0.666-13.334l8,6l8.667,26.667v-25.333l11.333-27.334l19.334-23.333l1.333-8h8.667l8.666,15.333l2,12.667l7.334-18h4.666
		l10-16.667c1.333,18.666,14.993,71.76,14.993,71.76L2012,458l20-198l17-31l14.848-155.466c2.709-4.541,4.865-9.266,6.824-14.82
		c1.953-5.536,2.966-11.5,3.507-17.472c3.92-11.385,6.636-23.178,8.961-35.013C2086.471-10.73,2089.064-28.201,2087.113-45.452z"/>
</g>
<rect x="1408.04" y="1204.546" fill="#231E1C" width="2521.497" height="173.991"/>
<path fill="#231E1C" d="M2138.504,1161.047l140.993,17.999l236.988,13.499l149.992-14.999l161.992,17.999l236.988,1.5v46.498
	l-6,68.996c0,0-545.974,16.5-589.471,16.5s-562.472-68.997-562.472-68.997v-50.997l127.494-79.496L2138.504,1161.047z"/>
<g>
	<path fill="#231E1C" d="M3178.615-99.021c-0.546-30.638-0.974-61.199-2.502-91.814c-0.742-14.874-1.818-29.634-1.285-44.528
		c0.508-14.205,1.195-28.416-0.105-42.599c-2.025-22.075-6.58-44.065-23.387-59.913c-12.955-12.216-30.124-20.19-47.502-23.603
		c-17.561-3.449-34.854-4.013-52.367,0.136c-17.184,4.071-30.785,14.661-46.075,22.458c-0.584,0.165-1.171,0.315-1.761,0.456
		c-12.899,0.648-25.49-1.676-38.416-2.237c-15.99-0.693-31.981-1.365-47.976-1.954c-32.616-1.2-65.214-1.693-97.85-1.911
		c-11.724-0.078-23.46-0.337-35.2-0.663c-5.339-1.302-11.034-1.518-16.801-0.499c-46.699-1.448-93.453-3.116-139.943,2.055
		c-9.533,1.06-19.047,2.322-28.545,3.693c-25.099,1.888-51.211,2.66-75.577,8.942c-22.35,5.762-43.744,15.595-64.886,24.682
		c-5.148-0.065-10.297-0.17-15.438-0.181c-8.499-0.018-16.437,2.792-22.938,7.51c-6.229,1.984-12.303,4.617-18.349,8.14
		c-11.008,6.414-21.375,14.777-30.13,24.032c-8.226,8.695-16.003,18.855-20.754,29.94c-2.267,5.288-4.329,9.96-5.714,15.071
		L2305-116l1,32l-16,79l8.112,125.157c0.091,2.261,0.188,4.522,0.298,6.78c0.682,14.114,1.384,28.299,2.617,42.376
		c0.211,2.411,0.466,4.817,0.738,7.221L2304,211l4.786,92.134c-0.863,6.276-1.661,12.561-2.286,18.866
		c-0.317,3.203-0.561,6.428-0.753,9.664l5.252,6.003l6.667,32l2,24l7.333-24l2.667-18l8.667-18l6-30l6.666,8l1.334,15.333l11.333,20
		l2.667,41.334l9.333,36.666l3.333,50l4,31.334l4,13.333l2.667,30L2402.333,491l-0.667-28v-30l2.667-19.333l4.666-14l8-36v30.667
		l4,7.333l1.334,38l16.666-39.333l11.334-44.667l16.666-3.333L2484.333,325l105.332-34l15.333-0.667c0,0,0.656,0.438,1.764,1.182
		c6.842-26.673,15.269-52.931,25.601-78.687c8.095-17.708,18.441-35.542,20.609-54.131c34.573-0.002,69.146-0.278,103.685-1.474
		c65.242-2.258,130.51-8.742,194.514-21.826c54.774-11.198,108.43-28.895,159.854-50.736c4.296-1.66,8.76-3.091,12.576-5.641
		c6.311-4.217,10.109-8.129,14.087-13.068l-0.756,0.979c21.062-22.523,34.188-50.831,38.593-81.279
		C3179.616-42.642,3179.123-70.53,3178.615-99.021z"/>
</g>
<g>
	<g>
		<path fill="#595959" d="M1885.026,1573.983c-5.007,0.947-11.442-2.062-14.398-5.813c-4.922-9.048-3.568-20.601,4.087-28.256
			c9.316-9.316,23.329-9.081,32.646,0.236c3.885,3.885,4.422,11.784,6,17.333l-16.667,17.667
			C1896.693,1575.15,1891.192,1572.816,1885.026,1573.983z"/>
	</g>
	<circle fill="#303030" cx="1899.63" cy="1547.705" r="5.926"/>
	<circle fill="#303030" cx="1887.478" cy="1559.856" r="5.926"/>
	<polyline fill="#303030" points="1904.684,1559.725 1899.499,1559.725 1899.498,1564.911 	"/>
</g>
<g>
	<circle fill="#808080" cx="2110.021" cy="1119.424" r="25.667"/>
	<polygon fill="#808080" points="2138.144,1155.062 2135.489,1156.475 2130.526,1152.023 2131.075,1158.823 2127.864,1158.643 
		2125.478,1161.803 2097.905,1142.118 2135.602,1119.75 	"/>
	<circle fill="#303030" cx="2101.514" cy="1124.858" r="7.001"/>
	<circle fill="#303030" cx="2118.869" cy="1114.561" r="7.001"/>
	<polygon fill="#303030" points="2124.4,1135.784 2117.633,1139.799 2114.396,1127.487 	"/>
	<path fill="#595959" d="M2088.089,1120.03c0,0-11.825,7.017-17.2,10.206s-18.849-3.352-16.488-12.601c0,0-8.075,3.048-2.039,13.71
		s14.479,11.176,22.864,6.2c8.386-4.976,17.201-10.206,17.201-10.206L2088.089,1120.03z"/>
	<path fill="#808080" d="M2121.662,1100.69c0,0,11.825-7.017,17.2-10.206s6.092-18.149-3.158-20.51c0,0,6.545-5.627,13.011,4.78
		s2.87,18.064-5.515,23.04c-8.386,4.975-17.2,10.205-17.2,10.205L2121.662,1100.69z"/>
</g>
<polygon fill="#231E1C" points="1914.928,1165.803 1952.896,1066.104 1986.374,1063.412 2015.069,1043.72 2051.078,1044.845 
	2088.208,1092.105 2094.396,1129.798 2130.966,1144.425 2146.719,1170.305 "/>
<rect x="363.817" y="578.846" fill="#231E1C" width="1206.121" height="798.079"/>
<g>
	<g>
		<path fill="#232323" d="M2813.028,890.21c0,0-8.748,116.277-42.576,109.031c-33.828-7.247-80.299-39.628-115.727-38.979
			c-35.428,0.649-43.623,6.646-43.623,6.646s27.083,4.697,28.582,11.193c0,0-30.73,0.249-39.976,10.592
			c0,0,29.981,5.397,32.229,15.142c0,0-6.646,0.85-14.391,8.795c-7.745,7.944-6.574,14.516-6.574,14.516s25.934-7.695,34.629-5.596
			c8.694,2.099,50.944,13.219,62.887,23.462c11.943,10.243,83.396,29.333,99.088,2.451c15.692-26.883,29.186-110.731,27.188-125.321
			C2832.766,907.55,2813.028,890.21,2813.028,890.21z"/>
		<path fill="#232323" d="M3001.879,829.815c-22.262-52.329-60.958-96.433-104.722-127.844
			c-24.34-17.469-51.183-31.942-80.249-31.748c-17.959,0.12-33.474,4.354-49.823,11.521c-4.859,2.131-9.413,4.818-13.66,8.12
			c-3.901,3.034-7.902,5.941-11.459,9.457c-3.632,3.591-6.541,8.183-9.537,12.328c-7.508,10.389-11.32,26.76-10.459,40.225
			c0.492,7.655,1.346,15.267,3.605,22.619c2.688,8.745,6.226,16.679,9.825,24.944c6.666,15.304,16.393,29.27,26.168,42.372
			c8.56,11.473,18.03,22.112,27.521,32.647c11.274,12.517,23.11,24.711,33.08,38.542c6.556,10.584,11.991,21.835,16.553,33.545
			c11.023,32.668,16.341,66.944,24.038,100.499c4.814,20.987,24.611,34.859,43.418,30.52c9.492-2.19,17.15-8.638,21.801-17.177
			c3.217,4.633,6.507,8.534,11.913,11.597c6.967,3.944,14.069,7.64,22.022,7.408c10.53-0.309,19.514-3.213,28.01-9.62
			c8.559-6.455,15.68-13.36,20.743-23.554c6.22-12.526,9.226-25.946,11.384-40.031c2.279-14.88,4.623-29.611,5.182-44.813
			c0.604-16.393-0.816-32.597-2.598-48.979C3021.532,883.858,3013.061,856.099,3001.879,829.815z"/>
		<path fill="#232323" d="M2939.231,849.998c0,0-3.988,100.363-24.352,113.24c-20.362,12.877-128.008-62.365-149.703-64.471
			c-21.694-2.106-39.315,10.586-39.315,10.586s25.503,0.877,26.895,9.534c0,0-29.062-3.23-37.166,6.39
			c0,0,34.692,9.819,31.909,14.221c0,0-26.767-0.158-35.055,6.72c0,0,22.732,2.701,33.767,17.354
			c11.034,14.651,45.871,31.593,79.46,46.671c33.589,15.079,74.831,23.486,98.447,1.153c23.615-22.331,26.149-48.47,31.038-70.962
			c5.658-26.039,5.36-89.6,5.36-89.6S2947.025,828.568,2939.231,849.998z"/>
	</g>
	<path fill="#FF931E" d="M2795.063,817.431c0,0-5.292,10.1-9.679,12.491c-4.388,2.392-15.743,1.368-15.743,1.368
		s5.552-9.622,9.939-12.015C2783.969,816.884,2795.063,817.431,2795.063,817.431z"/>
	<path fill="#FF931E" d="M2828.08,797.729c0,0-5.292,10.099-9.679,12.49c-4.388,2.392-15.743,1.369-15.743,1.369
		s5.552-9.623,9.939-12.015C2816.984,797.183,2828.08,797.729,2828.08,797.729z"/>
</g>
<g>
	<path fill="#413254" d="M2843.216,1860.376c0,0-44.966-88.612-98.085-86.789s-103.513,37.551-59.65,125.278
		c43.861,87.728,73.853,189.135,66.853,229.135c-6.843,39.104-17.03,77.254-17.03,77.254l156.039,0.933l33.788-104.323
		C2925.13,2101.863,2878.835,1909.775,2843.216,1860.376z"/>
	<path fill="#413254" d="M2733.667,1985.001c0,0-34.667,111.334-66,96.667s-69.333-56.667-104-64s-44-3.333-44-3.333
		s25.333,10.666,25.333,17.333c0,0-30-6.667-41.333,1.333c0,0,28,12,28,22c0,0-6.667-0.666-16,5.334s-7.333,16-7.333,16s18-8,26-4
		s53.332,27.334,62.666,40s74.666,47.332,96,24.666s53.334-101.334,54.667-116S2733.667,1985.001,2733.667,1985.001z"/>
	<path fill="#3A2850" d="M2829.481,2006.692c0,0-2.818,99.938-25.556,107.906c-22.736,7.969-110.709-89.549-131.375-96.479
		s-40.689,1.476-40.689,1.476s24.652,6.588,24.063,15.337c0,0-27.592-9.682-37.651-2.13c0,0,31.597,17.367,27.896,21.03
		c0,0-26.046-6.172-35.668-1.333c0,0,21.543,7.742,29,24.5s37.594,41.098,66.933,63.342c29.339,22.245,67.635,39.709,95.667,23.258
		c28.031-16.45,44.146-39.241,46.198-62.167s1.736-89.14,1.736-89.14S2841.895,1987.563,2829.481,2006.692z"/>
	
		<ellipse transform="matrix(0.9275 -0.3738 0.3738 0.9275 -548.8154 1174.4779)" fill="#303030" cx="2753.75" cy="2002.25" rx="8.749" ry="18.25"/>
	
		<ellipse transform="matrix(0.9275 -0.3738 0.3738 0.9275 -544.7026 1182.0193)" fill="#303030" cx="2775.25" cy="1995.417" rx="8.749" ry="18.25"/>
</g>
<path fill="#231E1C" d="M2666.895,1187.947l90.789-82.315l72.632,9.684l27.843-46l56.895-18.157l23-35.105L2986.474,987l69,42.368
	l2.421,48.421c0,0,18.158,46,21.789,50.843c3.632,4.842,25.422,60.526,25.422,60.526l-3.632,50.842L2666.895,1187.947z"/>
<g>
	<path fill="#FF931E" d="M2602.167,1159.833c0,7.916-6.417,14.333-14.333,14.333s-14.333-6.417-14.333-14.333
		s14.333-40.832,14.333-40.832S2602.167,1151.917,2602.167,1159.833z"/>
	<path fill="#FF931E" d="M2629.417,1160.951c0,8.882-7.2,16.082-16.083,16.082s-16.083-7.2-16.083-16.082
		c0-8.883,16.083-45.818,16.083-45.818S2629.417,1152.068,2629.417,1160.951z"/>
	<path fill="#FF931E" d="M2653.667,1159.333c0,7.916-6.417,14.333-14.333,14.333s-14.333-6.417-14.333-14.333
		s14.333-40.832,14.333-40.832S2653.667,1151.417,2653.667,1159.333z"/>
	<path fill="#FF931E" d="M2640.792,1140.833c0,7.916-6.417,14.333-14.333,14.333s-14.333-6.417-14.333-14.333
		s14.333-40.832,14.333-40.832S2640.792,1132.917,2640.792,1140.833z"/>
	<path fill="#FF931E" d="M2615.042,1140.833c0,7.916-6.417,14.333-14.333,14.333s-14.333-6.417-14.333-14.333
		s14.333-40.832,14.333-40.832S2615.042,1132.917,2615.042,1140.833z"/>
	<path fill="#FF931E" d="M2627.917,1123.833c0,7.916-6.417,14.333-14.333,14.333s-14.333-6.417-14.333-14.333
		s14.333-40.832,14.333-40.832S2627.917,1115.917,2627.917,1123.833z"/>
</g>
<g>
	<circle fill="#231E1C" cx="2574.895" cy="1181" r="16.947"/>
	<circle fill="#231E1C" cx="2590.579" cy="1181" r="16.948"/>
	<circle fill="#231E1C" cx="2613.947" cy="1181" r="16.947"/>
	<circle fill="#231E1C" cx="2637" cy="1181" r="16.947"/>
	<circle fill="#231E1C" cx="2653" cy="1181" r="16.947"/>
</g>
<path fill="#231E1C" d="M3025.319,865.026l-52.73,157.336l11.533,70.136l-29.819,43.82l-15.446,118.424l16.698,40.306
	l161.028,33.487l89.601-260.662c0,0-50.896-151.784-52.019-154.689c-1.124-2.905-88.011-60.605-88.011-60.605L3025.319,865.026z"/>
<polygon fill="#231E1C" points="2130.526,1152.023 2188,1150 2211,1155 2218,1162 2290,1139 2344,1159 2368.333,1171.667 2383,1178 
	2415,1178 2436,1187 2470,1185 2491,1196 2490,1221 2296,1232 2116,1190 "/>
<g>
	
		<rect x="650.453" y="-466.198" transform="matrix(0.9994 0.0341 -0.0341 0.9994 -14.971 -22.5101)" fill="#493F3A" width="3.88" height="32.144"/>
	<circle fill="#493F3A" cx="653.366" cy="-470.457" r="15.382"/>
</g>
<g>
	
		<rect x="612.954" y="-466.198" transform="matrix(0.9994 0.0341 -0.0341 0.9994 -14.9928 -21.2313)" fill="#493F3A" width="3.88" height="32.144"/>
	<circle fill="#493F3A" cx="615.867" cy="-470.457" r="15.382"/>
</g>
<g>
	
		<rect x="816.944" y="-485.197" transform="matrix(0.9994 0.0341 -0.0341 0.9994 -15.522 -28.1989)" fill="#493F3A" width="3.88" height="32.144"/>
	<circle fill="#493F3A" cx="819.857" cy="-489.456" r="15.382"/>
</g>
<g>
	
		<rect x="1313.42" y="-427.2" transform="matrix(0.9994 0.0341 -0.0341 0.9994 -13.2554 -45.0963)" fill="#493F3A" width="3.88" height="32.144"/>
	<circle fill="#493F3A" cx="1316.333" cy="-431.459" r="15.382"/>
</g>
<path fill="#231E1C" d="M2575,295l111,5l65-26l109-5l69,1l84-43l121-150l-14-43c0,0-399,1-410,2s-118,36-118,36L2575,295z"/>
<g>
	<g>
		<path fill="#808080" d="M3196.823,1073.642c-5.007,0.947-11.442-2.062-14.398-5.813c-4.922-9.048-3.568-20.601,4.087-28.256
			c9.316-9.316,23.329-9.081,32.646,0.236c3.885,3.885,4.422,11.784,6,17.333l-16.667,17.667
			C3208.49,1074.809,3202.989,1072.475,3196.823,1073.642z"/>
	</g>
	<circle fill="#231E1C" cx="3211.427" cy="1047.363" r="5.926"/>
	<circle fill="#231E1C" cx="3199.274" cy="1059.515" r="5.926"/>
	<polyline fill="#231E1C" points="3216.48,1059.383 3211.296,1059.383 3211.295,1064.569 	"/>
</g>
<polygon fill="#231E1C" points="4067.526,1164.047 4289.079,1017.219 4383.079,1060.235 4509.079,1048.504 4581.079,1007.441 
	4703.079,888.166 4751.079,682.856 4701.079,459.948 4631.079,256.593 4505.079,119.72 4357.079,31.729 4247.079,-163.804 
	4337.079,-199 4849.079,-114.921 4971.079,-111.01 5007.079,1189.288 4981.079,1377 4029.079,1377 "/>
<path fill="none" stroke="#231E1C" stroke-width="8" stroke-linecap="round" d="M947.33-702.953c0,0-1.809,25.029,25.029,25.029"/>
<path fill="none" stroke="#231E1C" stroke-width="8" stroke-linecap="round" d="M1102.333-925.667c0,0-2,27.667,27.667,27.667"/>
<g>
	<path fill="none" stroke="#231E1C" stroke-width="8" stroke-linecap="round" d="M120.653-43.014c0,0,27.668,2,27.667-27.667"/>
	<circle fill="#231E1C" cx="150.667" cy="-84.667" r="19.333"/>
</g>
<polyline fill="#303030" points="3336.941,1156.548 3378.939,1158.047 3416.438,1176.047 3458.436,1183.546 3498.934,1177.547 
	3578.43,1128.049 3641.427,1111.55 "/>
</svg>
