<?xml version="1.0" encoding="UTF-8" standalone="no"?>
<!-- Created with Inkscape (http://www.inkscape.org/) -->

<svg
   xmlns:dc="http://purl.org/dc/elements/1.1/"
   xmlns:cc="http://creativecommons.org/ns#"
   xmlns:rdf="http://www.w3.org/1999/02/22-rdf-syntax-ns#"
   xmlns:svg="http://www.w3.org/2000/svg"
   xmlns="http://www.w3.org/2000/svg"
   xmlns:sodipodi="http://sodipodi.sourceforge.net/DTD/sodipodi-0.dtd"
   xmlns:inkscape="http://www.inkscape.org/namespaces/inkscape"
   width="744.09448819"
   height="1052.3622047"
   id="svg2"
   version="1.1"
   inkscape:version="0.48.2 r9819"
   sodipodi:docname="objects.svg">
  <defs
     id="defs4" />
  <sodipodi:namedview
     id="base"
     pagecolor="#ffffff"
     bordercolor="#666666"
     borderopacity="1.0"
     inkscape:pageopacity="0.0"
     inkscape:pageshadow="2"
     inkscape:zoom="2.8284271"
     inkscape:cx="261.52263"
     inkscape:cy="485.83343"
     inkscape:document-units="px"
     inkscape:current-layer="layer1"
     showgrid="false"
     inkscape:window-width="1680"
     inkscape:window-height="998"
     inkscape:window-x="-8"
     inkscape:window-y="-8"
     inkscape:window-maximized="1" />
  <metadata
     id="metadata7">
    <rdf:RDF>
      <cc:Work
         rdf:about="">
        <dc:format>image/svg+xml</dc:format>
        <dc:type
           rdf:resource="http://purl.org/dc/dcmitype/StillImage" />
        <dc:title />
      </cc:Work>
    </rdf:RDF>
  </metadata>
  <g
     inkscape:label="Layer 1"
     inkscape:groupmode="layer"
     id="layer1">
    <path
       style="fill:#292900;fill-opacity:1;stroke:none"
       d="m 251.21936,527.12077 1.6886,-3.34531 3.79706,-1.57918 5.49193,-1.22383 279.62359,-0.0383 2.18911,1.38843 c 1.36464,2.51719 1.70463,2.96309 1.70463,5.13912 l 0,7.63927 c 0.003,0.94234 -0.87199,0.28912 -1.38896,1.38056 -1.04537,0.31567 -1.88704,-1.40555 -3.1361,0.94701 l -4.92449,0.50508 -229.43089,0 -4.04061,0.44194 c -8.66412,10.03921 -6.14461,-0.0521 -9.21691,-0.0782 l -42.86204,-0.36373 z"
       id="rect2985"
       inkscape:connector-curvature="0"
       sodipodi:nodetypes="cccccccccccccccc" />
    <path
       style="fill:#292900;fill-opacity:1;stroke:none"
       d="m 264.17341,597.24209 c 0,-2.58999 -0.50072,-3.83209 -2.401,-5.95594 -0.9012,-1.00723 0.84679,-3.85962 0.8383,-13.14876 l -0.009,-9.5545 -1.42857,-1.29063 -1.42857,-1.29063 0,-6.24415 0,-6.24416 -1.21429,-1.21428 c -0.66785,-0.66786 -1.37678,-1.21429 -1.57539,-1.21429 -0.59605,0 -2.26272,-2.20547 -2.06198,-2.72858 0.16421,-0.42794 -0.20788,-0.64853 -0.66868,-0.39642 -0.29576,0.16181 -1.24243,-1.32641 -1.25402,-1.97138 -0.006,-0.34766 -0.43405,-1.30169 -0.95068,-2.12008 -0.66412,-1.05203 -0.99235,-2.14864 -1.12032,-3.7429 l -0.18101,-2.25493 25.88847,0 25.88846,0 -0.39252,1.25408 c -0.21588,0.68974 -0.68567,1.34712 -1.04396,1.46083 -0.376,0.11934 -0.56977,0.41964 -0.45826,0.71022 0.11295,0.29435 -0.0278,0.50345 -0.33897,0.50345 -0.29269,0 -0.71523,0.40178 -0.93898,0.89285 -0.22375,0.49107 -0.54993,0.89286 -0.72485,0.89286 -0.7873,0 -1.35302,2.59999 -1.35302,6.21834 l 0,3.74128 -1.04767,0.61887 c -0.57621,0.34038 -1.41996,1.34424 -1.875,2.23081 -0.45503,0.88656 -1.34817,2.16485 -1.98475,2.84064 -0.96459,1.02399 -1.24722,1.15417 -1.69643,0.78137 -0.29646,-0.24604 -0.53901,-0.79731 -0.53901,-1.22504 0,-0.42773 -0.14353,-0.93038 -0.31896,-1.11698 -0.17543,-0.18661 -0.38676,-2.23008 -0.46961,-4.54105 -0.0921,-2.56893 -0.31513,-4.36623 -0.5739,-4.625 -0.23279,-0.23278 -0.42324,-1.08217 -0.42324,-1.88753 0,-0.80535 -0.14711,-1.61696 -0.3269,-1.80357 -0.1798,-0.1866 -0.38069,-0.74107 -0.44643,-1.23214 -0.0813,-0.60752 -0.37634,-0.92933 -0.9231,-1.00698 -0.44197,-0.0628 -0.80357,0.0578 -0.80357,0.26785 0,0.21009 -0.24107,0.38199 -0.53572,0.38199 -0.44094,0 -0.53571,0.64015 -0.53571,3.61854 l 0,3.61854 -1.1936,1.12571 c -0.65647,0.61914 -2.10393,1.43514 -3.21656,1.81333 -2.33554,0.79388 -5.58984,3.43033 -5.58984,4.52858 0,0.39641 -0.32889,1.18263 -0.73086,1.74715 -0.76068,1.06827 -1.10881,2.60573 -1.81428,8.01243 -0.41649,3.19203 -0.42255,3.20563 -0.87424,1.96429 -0.25017,-0.6875 -0.47219,-1.8125 -0.49338,-2.5 -0.0536,-1.73774 -0.7341,-2.5 -2.23196,-2.5 l -1.24455,0 -0.23028,4.80174 c -0.22208,4.63049 -0.17769,5.24639 0.49043,6.8054 0.16836,0.39286 0.38049,1.4375 0.4714,2.32143 0.0909,0.88393 0.35622,2.33036 0.58958,3.21429 0.23336,0.88392 -1.36984,4.33928 -1.11822,7.67857 0.25163,3.33928 0.57486,6.58156 0.7183,7.20505 0.40056,1.74115 -0.43732,2.67785 -2.46759,2.75861 l -1.63578,0.0651 0,-2.26425 0,0 z"
       id="path3753"
       inkscape:connector-curvature="0"
       sodipodi:nodetypes="csccccccsscscsscccsccsssscssscscscscccssscsssssscscsscsssccccc" />
    <path
       style="fill:#292900;fill-opacity:1;stroke:none"
       d="m 447.57473,585.19179 c -0.0949,-0.20835 -0.20919,-2.78362 -0.25398,-5.72283 -0.0681,-4.4684 -0.14797,-5.4201 -0.48746,-5.80837 -1.13272,-1.29551 -1.29569,-2.65386 -1.55552,-12.965 -0.0252,-0.99961 0.31473,-3.74652 1.07427,-8.68123 0.12561,-0.81614 -0.27672,-2.00307 -0.13787,-2.36754 0.42917,-1.1265 -0.0689,-3.8257 -0.0744,-5.92039 -0.005,-1.7163 -2.0357,-3.54352 -2.70669,-6.13808 -0.14521,-0.5615 3.15361,-0.12627 5.67824,-0.12627 1.92791,0 2.55482,0.0806 2.55482,0.3283 0,0.18056 1.89894,-1.56374 1.77542,-1.43179 -0.32222,0.34422 -0.96512,4.78169 -1.16232,6.40679 -0.0927,0.76393 -0.26971,1.72988 -0.39336,2.14657 -0.12365,0.41669 -0.4646,1.54812 -0.75766,2.51429 -0.29306,0.96616 -0.6287,2.72762 -0.74586,3.91434 -0.27883,2.82412 -0.58051,4.12664 -1.15538,4.98842 -0.41271,0.61869 -0.48226,1.36204 -0.56932,6.08508 -0.071,3.85298 -0.005,5.80649 0.2339,6.88166 0.1832,0.82576 0.42328,1.50137 0.53353,1.50137 0.11024,0 0.20044,0.27876 0.20044,0.61946 0,0.5867 0.2306,1.30656 0.83487,2.60627 0.19182,0.41257 0.17609,1.08751 -0.0559,2.39911 -0.17756,1.00377 -0.89546,2.85413 -0.98741,4.86812 0.0174,0.80045 -0.95272,2.99468 -1.03607,3.66268 -0.0743,0.59546 -0.76153,0.33723 -0.80626,0.23904 l 0,0 z"
       id="path3758"
       inkscape:connector-curvature="0"
       sodipodi:nodetypes="cssccccsssssssssscsssccsccc" />
  </g>
</svg>
