<?xml version="1.0" encoding="UTF-8" standalone="no"?>
<!-- Created with Inkscape (http://www.inkscape.org/) -->

<svg
   xmlns:dc="http://purl.org/dc/elements/1.1/"
   xmlns:cc="http://creativecommons.org/ns#"
   xmlns:rdf="http://www.w3.org/1999/02/22-rdf-syntax-ns#"
   xmlns:svg="http://www.w3.org/2000/svg"
   xmlns="http://www.w3.org/2000/svg"
   xmlns:sodipodi="http://sodipodi.sourceforge.net/DTD/sodipodi-0.dtd"
   xmlns:inkscape="http://www.inkscape.org/namespaces/inkscape"
   width="744.09448819"
   height="1052.3622047"
   id="svg4266"
   version="1.1"
   inkscape:version="0.48.2 r9819"
   sodipodi:docname="New document 3">
  <defs
     id="defs4268" />
  <sodipodi:namedview
     id="base"
     pagecolor="#ffffff"
     bordercolor="#666666"
     borderopacity="1.0"
     inkscape:pageopacity="0.0"
     inkscape:pageshadow="2"
     inkscape:zoom="0.35"
     inkscape:cx="374.97989"
     inkscape:cy="519.92392"
     inkscape:document-units="px"
     inkscape:current-layer="layer1"
     showgrid="false"
     inkscape:window-width="469"
     inkscape:window-height="437"
     inkscape:window-x="50"
     inkscape:window-y="50"
     inkscape:window-maximized="0" />
  <metadata
     id="metadata4271">
    <rdf:RDF>
      <cc:Work
         rdf:about="">
        <dc:format>image/svg+xml</dc:format>
        <dc:type
           rdf:resource="http://purl.org/dc/dcmitype/StillImage" />
        <dc:title></dc:title>
      </cc:Work>
    </rdf:RDF>
  </metadata>
  <g
     inkscape:label="Layer 1"
     inkscape:groupmode="layer"
     id="layer1">
    <g
       transform="translate(798.8768,-102.8171)"
       id="ghostie">
      <g
         id="g221">
        <path
           style="opacity:0.37000002;fill:#ffffff"
           inkscape:connector-curvature="0"
           d="m -425.329,557.587 c -12.927,3.239 -16.993,25.222 -17.574,37.858 -0.582,12.637 -3.88,45.665 -5.236,53.57 -1.357,7.903 -3.877,19.76 -4.847,24.559 -0.97,4.799 -4.46,13.55 -0.97,16.654 3.49,3.106 4.07,-3.643 6.205,-6.056 2.133,-2.412 4.459,6.057 3.102,10.009 -1.356,3.952 0,6.492 2.715,8.751 2.715,2.258 5.816,-13.833 9.307,-11.856 3.491,1.977 2.715,8.751 1.745,11.01 -0.97,2.258 -2.327,5.928 2.521,9.315 4.848,3.387 5.623,-9.598 7.367,-12.139 1.746,-2.54 5.042,1.129 4.848,3.952 -0.193,2.823 -3.102,4.789 -0.969,8.746 2.133,3.957 6.204,1.533 7.562,-4.453 1.356,-5.987 6.01,-14.738 8.336,-32.24 2.328,-17.502 12.604,-77.064 7.562,-96.262 -5.042,-19.194 -16.039,-25.335 -31.674,-21.418 z"
           id="path223" />
        <path
           style="fill:#ffffff"
           inkscape:connector-curvature="0"
           d="m -406.708,578.419 c -0.295,-1.122 -1.382,-2.535 -2.729,-2.046 -1.52,0.552 -2.287,1.984 -2.793,3.428 -0.896,2.551 -1.509,7.075 1.61,8.316 0.345,0.138 0.645,0.121 0.894,0.013 0.31,0.009 0.642,-0.065 0.992,-0.251 2.787,-1.479 2.723,-6.795 2.026,-9.46 z m -2.742,6.105 c -0.025,-0.706 0.184,-1.424 0.351,-2.103 0.01,-0.039 0.02,-0.078 0.03,-0.117 -0.047,0.776 -0.164,1.546 -0.381,2.22 z"
           id="path225" />
        <path
           style="fill:#ffffff"
           inkscape:connector-curvature="0"
           d="m -397.936,580.106 c -0.294,-1.122 -1.382,-2.535 -2.729,-2.046 -1.52,0.551 -2.286,1.984 -2.793,3.428 -0.896,2.55 -1.508,7.074 1.61,8.316 0.346,0.137 0.646,0.12 0.895,0.012 0.309,0.01 0.641,-0.064 0.992,-0.251 2.786,-1.477 2.723,-6.794 2.025,-9.459 z m -2.741,6.106 c -0.025,-0.706 0.184,-1.424 0.35,-2.103 0.01,-0.039 0.02,-0.078 0.031,-0.118 -0.047,0.776 -0.164,1.546 -0.381,2.221 z"
           id="path227" />
      </g>
    </g>
  </g>
</svg>
